<svg width="24" height="24" viewBox="0 0 24 24" fill="none" xmlns="http://www.w3.org/2000/svg">
<path fill-rule="evenodd" clip-rule="evenodd" d="M7.67602 4C5.98557 4 4.47761 5.06268 3.90905 6.65465L2.26786 11.25H9.16484C9.68206 11.25 10.029 11.6657 10.061 12.0878C10.0862 12.4209 10.263 12.689 10.6011 12.899C10.9552 13.1189 11.4588 13.25 12 13.25C12.5412 13.25 13.0448 13.1189 13.3989 12.899C13.737 12.689 13.9138 12.4209 13.939 12.0878C13.971 11.6657 14.3179 11.25 14.8352 11.25H21.7321L20.0909 6.65465C19.5224 5.06268 18.0144 4 16.324 4H7.67602ZM22 12.75H15.3314C15.1371 13.377 14.7066 13.8525 14.1903 14.1732C13.5485 14.5718 12.7554 14.75 12 14.75C11.2446 14.75 10.4515 14.5718 9.80973 14.1732C9.29338 13.8525 8.86292 13.377 8.66862 12.75H2V16C2 18.2091 3.79086 20 6 20H18C20.2091 20 22 18.2091 22 16V12.75Z" fill="black"/>
</svg>
