<svg width="21" height="20" viewBox="0 0 21 20" fill="none" xmlns="http://www.w3.org/2000/svg">
<path fill-rule="evenodd" clip-rule="evenodd" d="M5.59208 9.17433C7.5555 5.72478 8.53721 4 10.0918 4C11.6465 4 12.6282 5.72477 14.5916 9.17432L14.8363 9.60418C16.4679 12.4707 17.2837 13.904 16.5463 14.952C15.809 16 13.9849 16 10.3365 16H9.84718C6.19882 16 4.37465 16 3.63734 14.952C2.90002 13.904 3.71582 12.4707 5.34741 9.60418L5.59208 9.17433ZM10.0918 6.83333C10.3705 6.83333 10.5964 7.05719 10.5964 7.33333V10.6667C10.5964 10.9428 10.3705 11.1667 10.0918 11.1667C9.81317 11.1667 9.58726 10.9428 9.58726 10.6667V7.33333C9.58726 7.05719 9.81317 6.83333 10.0918 6.83333ZM10.0918 13.3333C10.4634 13.3333 10.7646 13.0349 10.7646 12.6667C10.7646 12.2985 10.4634 12 10.0918 12C9.72027 12 9.41906 12.2985 9.41906 12.6667C9.41906 13.0349 9.72027 13.3333 10.0918 13.3333Z" fill="#FFAE08"/>
</svg>
