<svg width="24" height="24" viewBox="0 0 24 24" fill="none" xmlns="http://www.w3.org/2000/svg">
<path d="M15.7361 3.33065C16.1668 2.90001 16.865 2.90001 17.2956 3.33065L19.89 5.92501C20.3206 6.35565 20.3206 7.05386 19.89 7.4845L18.9827 8.3918C18.7673 8.60712 18.4182 8.60712 18.2029 8.3918L14.8288 5.0177C14.6135 4.80238 14.6135 4.45328 14.8288 4.23795L15.7361 3.33065Z" fill="#535663"/>
<path d="M12.9895 5.85677C13.4202 5.42613 14.1184 5.42613 14.549 5.85677L17.1434 8.45113C17.574 8.88177 17.574 9.57998 17.1434 10.0106L9.0011 18.1529C8.95804 18.196 8.88822 18.196 8.84516 18.1529L4.84726 14.155C4.80419 14.1119 4.80419 14.0421 4.84726 13.9991L12.9895 5.85677Z" fill="#535663"/>
<path d="M4.04596 14.9877C4.05881 14.8977 4.16884 14.861 4.2331 14.9253L8.07505 18.7672C8.1393 18.8315 8.10262 18.9415 8.01267 18.9544L4.84037 19.4076C4.1126 19.5115 3.48881 18.8877 3.59277 18.16L4.04596 14.9877Z" fill="#535663"/>
<path d="M5 21.0001H19.3355" stroke="#535663" stroke-width="1.5" stroke-linecap="round"/>
</svg>
