<svg width="30" height="30" viewBox="0 0 30 30" fill="none" xmlns="http://www.w3.org/2000/svg">
<path fill-rule="evenodd" clip-rule="evenodd" d="M25 15C25 20.5228 20.5228 25 15 25C9.47715 25 5 20.5228 5 15C5 9.47715 9.47715 5 15 5C20.5228 5 25 9.47715 25 15ZM18 12C18 13.6569 16.6569 15 15 15C13.3431 15 12 13.6569 12 12C12 10.3431 13.3431 9 15 9C16.6569 9 18 10.3431 18 12ZM15 23.5C16.784 23.5 18.4397 22.9504 19.8069 22.0112C20.4108 21.5964 20.6688 20.8062 20.3178 20.1632C19.59 18.8303 18.0902 18 14.9999 18C11.9097 18 10.41 18.8302 9.68214 20.1632C9.33105 20.8062 9.5891 21.5963 10.193 22.0111C11.5602 22.9503 13.2159 23.5 15 23.5Z" fill="#0352D5"/>
</svg>
