<?xml version="1.0" encoding="utf-8"?>
<!-- Generator: Adobe Illustrator 24.3.0, SVG Export Plug-In . SVG Version: 6.00 Build 0)  -->
<svg version="1.1" id="圖層_1" xmlns="http://www.w3.org/2000/svg" xmlns:xlink="http://www.w3.org/1999/xlink" x="0px" y="0px"
	 viewBox="0 0 25 24" style="enable-background:new 0 0 25 24;" xml:space="preserve">
<style type="text/css">
	.st0{fill-rule:evenodd;clip-rule:evenodd;fill:url(#SVGID_1_);}
</style>
<linearGradient id="SVGID_1_" gradientUnits="userSpaceOnUse" x1="12.5" y1="20.1808" x2="12.5" y2="2.799" gradientTransform="matrix(1 0 0 -1 0 23.8898)">
	<stop  offset="0" style="stop-color:#FFF1DD"/>
	<stop  offset="1" style="stop-color:#FF9900"/>
</linearGradient>
<path class="st0" d="M11,5l-0.6-0.4C9.5,4,8.6,3.7,7.5,3.7H6.8c-0.5,0-0.9,0-1.4,0.2c-2.8,1-4.7,4.6-4.5,12.7c0,1.6,0.4,3.4,1.9,4.2
	c0.5,0.2,1,0.4,1.6,0.4c0.7,0,1.3-0.2,1.8-0.5c0.5-0.3,0.9-0.7,1.3-1.1c0.5-0.5,1-1,1.7-1.3c0.7-0.4,1.4-0.5,2.2-0.5h2.3
	c0.8,0,1.5,0.2,2.2,0.5c0.6,0.3,1.1,0.8,1.7,1.3c0.4,0.4,0.8,0.8,1.3,1.1c0.5,0.3,1,0.5,1.8,0.5c0.6,0,1.2-0.1,1.6-0.4
	c1.5-0.7,1.9-2.5,1.9-4.2c0.1-8.1-1.8-11.7-4.5-12.7c-0.4-0.2-0.9-0.2-1.4-0.2h-0.7c-1,0-2,0.3-2.8,0.9L14,5c-0.5,0.3-1,0.5-1.5,0.5
	C11.9,5.5,11.4,5.3,11,5z M18,8.3c0.5,0,0.9,0.4,0.9,0.9c0,0.5-0.4,0.9-0.9,0.9c-0.5,0-0.9-0.4-0.9-0.9C17.1,8.7,17.5,8.3,18,8.3z
	 M7.3,8.6c0.5,0,0.9,0.4,0.9,0.9v0.9H9c0.5,0,0.9,0.4,0.9,0.9c0,0.5-0.4,0.9-0.9,0.9H8.2V13c0,0.5-0.4,0.9-0.9,0.9
	c-0.5,0-0.9-0.4-0.9-0.9v-0.9H5.5c-0.5,0-0.9-0.4-0.9-0.9c0-0.5,0.4-0.9,0.9-0.9h0.9V9.5C6.4,9,6.8,8.6,7.3,8.6z M20.6,11
	c0,0.5-0.4,0.9-0.9,0.9s-0.9-0.4-0.9-0.9s0.4-0.9,0.9-0.9S20.6,10.5,20.6,11z M16.3,11.8c0.5,0,0.9-0.4,0.9-0.9s-0.4-0.9-0.9-0.9
	c-0.5,0-0.9,0.4-0.9,0.9S15.8,11.8,16.3,11.8z M18.9,12.7c0-0.5-0.4-0.9-0.9-0.9c-0.5,0-0.9,0.4-0.9,0.9s0.4,0.9,0.9,0.9
	C18.5,13.6,18.9,13.2,18.9,12.7z"/>
</svg>
