<svg width="19" height="18" viewBox="0 0 19 18" fill="none" xmlns="http://www.w3.org/2000/svg">
<g clip-path="url(#clip0_512_1579)">
<path d="M17.8883 5.19385C17.8883 5.31962 17.8886 5.41956 17.9062 5.52138C17.8886 5.70704 17.8478 5.93506 17.8067 6.16863C17.7479 6.38424 17.6642 6.58966 17.5642 6.78729C17.4819 6.93103 17.3834 7.07381 17.2834 7.18761C17.1246 7.36129 16.9586 7.52216 16.7704 7.6659C16.6057 7.80972 16.4192 7.93682 16.2369 8.05061C16.0429 8.18237 15.8121 8.2961 15.5886 8.38594C15.4181 8.46979 15.2372 8.54157 15.0373 8.5835C14.8138 8.65537 14.5714 8.69652 14.3303 8.72646C14.1597 8.74443 13.9896 8.75664 13.8249 8.74466C13.7661 8.74466 13.7371 8.7138 13.7254 8.67188C13.7254 8.62396 13.724 8.60044 13.7534 8.5705C13.7946 8.51061 13.8363 8.45725 13.8657 8.40934L14.7948 7.27859L11.3669 7.56452C11.0964 7.59447 10.8309 7.59582 10.5604 7.53593C10.3369 7.50598 10.1263 7.45058 9.91462 7.34877C9.67351 7.23498 9.39134 7.0922 9.12082 6.94846L8.06668 9.83382C7.74324 9.92365 7.40234 10.0205 7.0789 10.1224C7.14947 10.0924 6.79775 10.2245 6.43314 10.3563C6.05089 10.5 5.79267 10.6126 5.5398 10.7384C5.04582 10.984 4.56815 11.2606 4.09769 11.578C3.86246 11.7337 3.60426 11.9193 3.33962 12.1109C3.18084 12.2367 3.01145 12.3807 2.82914 12.5424L2.30335 13.0571C2.03871 13.3146 1.78607 13.6191 1.58612 13.9305C1.68609 13.9605 1.78811 13.9915 1.8822 14.0215C1.9116 14.0335 1.95257 14.0511 1.99961 14.0631C2.23484 14.135 2.40491 14.1774 2.56369 14.2372C2.67543 14.2792 2.78632 14.3201 2.89806 14.362C3.15681 14.4818 3.40991 14.5776 3.65102 14.6973C3.74511 14.7393 3.84457 14.783 3.94454 14.8429C3.98571 14.8669 4.04631 14.8961 4.08748 14.9261C4.08748 14.9441 4.09769 14.9427 4.09769 14.9547C4.09769 14.9547 4.11556 14.9679 4.11556 14.9859C4.12732 14.9979 4.12832 15.0145 4.12832 15.0145C4.12832 15.0564 4.09824 15.0883 4.07472 15.1003C3.90418 15.1422 3.72202 15.1715 3.55147 15.1834C3.28096 15.2313 3.02841 15.2847 2.77554 15.3446C2.51679 15.3985 2.26369 15.4895 2.02258 15.5733C1.85792 15.6153 1.66911 15.685 1.50444 15.7449C1.34566 15.8048 1.19381 15.859 1.05267 15.9009C1.0115 15.9188 0.981201 15.9307 0.981201 15.9607C0.981201 15.9906 1.01028 16.0023 1.02204 16.0023C1.0338 16.0023 1.0348 16.0023 1.0348 16.0023L4.82257 16.2778C4.86374 16.2778 4.90392 16.2908 4.94509 16.2908C5.01566 16.2908 5.08637 16.2778 5.15694 16.2778C5.39805 16.2478 5.62672 16.1891 5.83843 16.0932C6.1207 15.9615 6.36282 15.7892 6.58628 15.5915C6.78623 15.3879 6.96684 15.1823 7.11974 14.9547C7.26088 14.7391 7.36156 14.5054 7.44389 14.2658C7.5321 14.0502 7.5855 13.8054 7.6149 13.5718C7.64431 13.3861 7.65574 13.189 7.65574 12.9973C8.59666 12.9135 9.51536 12.799 10.4328 12.6672C11.8206 12.4216 13.1887 11.9374 14.4707 11.2427C14.8235 11.057 15.1786 10.8719 15.5197 10.6682C15.7432 10.5425 15.9958 10.3808 16.2369 10.1951C16.4486 10.0215 16.6468 9.85256 16.8291 9.69085C17.029 9.50519 17.2229 9.29017 17.411 9.05659C17.7462 8.64335 17.9881 8.15214 18.141 7.61911C18.1998 7.37955 18.2402 7.13321 18.2814 6.87567C18.2814 6.78584 18.2993 6.70195 18.2993 6.60014C18.2993 6.48634 18.283 6.35521 18.2712 6.24142C18.23 6.00784 18.1698 5.79157 18.0874 5.57596C18.0286 5.45019 17.9589 5.31962 17.8883 5.19385ZM3.85011 12.4748C4.11474 12.4748 4.33251 12.7036 4.33251 12.9791C4.33251 13.2606 4.11474 13.4834 3.85011 13.4834C3.58547 13.4834 3.3677 13.2606 3.3677 12.9791C3.3677 12.7036 3.58547 12.4748 3.85011 12.4748Z" fill="url(#paint0_linear_512_1579)"/>
<path d="M14.3894 14.5362C12.9721 15.3867 11.4078 15.9496 9.76712 16.1952L8.62625 16.291L7.46186 16.3629L6.23279 16.3509C6.55623 16.1473 6.85027 15.9077 7.10902 15.6322L7.36189 15.3328C7.5736 15.0573 7.74414 14.7698 7.85587 14.4524C7.9088 14.2487 7.95585 14.0631 7.99701 13.8654L8.06758 13.4043L9.29078 13.2725L10.2493 13.1467L10.8962 13.0449C11.2667 12.9731 11.6313 12.8712 12.0018 12.7575L13.1838 12.3262L14.1012 11.907L15.0363 11.4339L15.9125 10.9428L16.6005 10.4696L17.4768 9.63715L18.1295 8.72681L18.0884 9.07417C17.9178 10.1941 17.5062 11.2722 16.9005 12.2364C16.4888 12.9012 15.9654 13.4582 15.3597 13.8894L15.0363 14.123L14.3894 14.5362Z" fill="url(#paint1_linear_512_1579)"/>
<path d="M16.6947 3.63615C16.4241 3.43851 16.1419 3.26482 15.8302 3.12109L10.761 0.976998L10.6787 0.935074C10.6611 0.935074 10.6493 0.923096 10.6316 0.923096C10.6199 0.923096 10.5905 0.935074 10.5787 0.953041C10.5493 0.976997 10.5493 1.00694 10.5493 1.03689C10.5493 1.06683 10.5493 1.09678 10.5787 1.10876L11.9901 2.97735L12.3018 3.40856C12.3723 3.5523 12.4018 3.69604 12.4135 3.83977C12.4135 3.85774 12.4135 3.86972 12.4135 3.8817C12.4135 4.01346 12.3841 4.1572 12.3429 4.28895L12.19 4.61835L12.0489 4.83396C12.3547 4.77407 12.637 4.72017 12.9369 4.67226C13.3191 4.60039 13.7249 4.54649 14.1483 4.52852C14.5012 4.51654 14.8305 4.50456 15.1657 4.50456C15.4186 4.51654 15.7008 4.52852 15.9831 4.55846C16.1713 4.58841 16.336 4.61835 16.5065 4.66028C16.6359 4.7022 16.7653 4.77407 16.877 4.84594C17.0593 4.9777 17.2004 5.15138 17.2828 5.34902C17.3533 5.51073 17.4004 5.69639 17.4121 5.87007C17.471 5.70837 17.4945 5.55265 17.4945 5.37897C17.4945 5.34902 17.4945 5.33704 17.4945 5.3071C17.4827 5.09149 17.4533 4.88786 17.4004 4.67226C17.3122 4.44467 17.2004 4.22906 17.0711 4.0434C16.9593 3.89967 16.8358 3.76791 16.7065 3.65411C16.7065 3.63615 16.6947 3.63615 16.6947 3.63615Z" fill="url(#paint2_linear_512_1579)"/>
<path d="M12.978 15.7699C13.2426 15.6562 13.4955 15.5304 13.7366 15.3866C13.766 15.3986 13.8072 15.3986 13.8366 15.3986C14.0071 15.3986 14.1777 15.3866 14.3423 15.3567C14.8363 15.3148 15.3303 15.2429 15.8125 15.1531C15.2891 15.5124 14.7951 15.9017 14.3423 16.3209C13.9483 16.6623 13.5955 17.0396 13.2426 17.405C13.1427 17.405 13.0603 17.375 12.9898 17.3511C12.6781 17.2073 12.3958 17.0516 12.1135 16.8779C11.843 16.7222 11.6078 16.5366 11.4078 16.3209C11.5607 16.2611 11.7195 16.2072 11.8724 16.1592C12.2547 16.0634 12.6193 15.9317 12.978 15.7699Z" fill="url(#paint3_linear_512_1579)"/>
</g>
<defs>
<linearGradient id="paint0_linear_512_1579" x1="9.64024" y1="5.19385" x2="9.64024" y2="16.2908" gradientUnits="userSpaceOnUse">
<stop stop-color="#FFF1DD"/>
<stop offset="1" stop-color="#FF9900"/>
</linearGradient>
<linearGradient id="paint1_linear_512_1579" x1="12.1812" y1="8.72681" x2="12.1812" y2="16.3629" gradientUnits="userSpaceOnUse">
<stop stop-color="#FFF1DD"/>
<stop offset="1" stop-color="#FF9900"/>
</linearGradient>
<linearGradient id="paint2_linear_512_1579" x1="14.0219" y1="0.923096" x2="14.0219" y2="5.87007" gradientUnits="userSpaceOnUse">
<stop stop-color="#FFF1DD"/>
<stop offset="1" stop-color="#FF9900"/>
</linearGradient>
<linearGradient id="paint3_linear_512_1579" x1="13.6102" y1="15.1531" x2="13.6102" y2="17.405" gradientUnits="userSpaceOnUse">
<stop stop-color="#FFF1DD"/>
<stop offset="1" stop-color="#FF9900"/>
</linearGradient>
<clipPath id="clip0_512_1579">
<rect width="19" height="18" fill="white"/>
</clipPath>
</defs>
</svg>
