<?xml version="1.0" encoding="utf-8"?>
<!-- Generator: Adobe Illustrator 24.3.0, SVG Export Plug-In . SVG Version: 6.00 Build 0)  -->
<svg version="1.1" id="圖層_1" xmlns="http://www.w3.org/2000/svg" xmlns:xlink="http://www.w3.org/1999/xlink" x="0px" y="0px"
	 viewBox="0 0 19 20" style="enable-background:new 0 0 19 20;" xml:space="preserve">
<style type="text/css">
	.st0{clip-path:url(#SVGID_2_);}
	.st1{fill:url(#SVGID_3_);}
	.st2{fill:#417BFF;}
	.st3{display:none;fill:#F2F8FF;}
	.st4{fill:url(#SVGID_4_);}
</style>
<g>
	<defs>
		<rect id="SVGID_1_" y="0.5" width="19" height="19"/>
	</defs>
	<clipPath id="SVGID_2_">
		<use xlink:href="#SVGID_1_"  style="overflow:visible;"/>
	</clipPath>
	<g class="st0">
		
			<linearGradient id="SVGID_3_" gradientUnits="userSpaceOnUse" x1="9.5" y1="16.7508" x2="9.5" y2="3.0287" gradientTransform="matrix(1 0 0 -1 0 19.8898)">
			<stop  offset="0" style="stop-color:#FFF1DD"/>
			<stop  offset="1" style="stop-color:#FF9900"/>
		</linearGradient>
		<path class="st1" d="M19,14.7c0,0.6-0.2,1.1-0.6,1.5c-0.4,0.4-0.9,0.6-1.5,0.6H2.1c-0.6,0-1.1-0.2-1.5-0.6C0.2,15.8,0,15.3,0,14.7
			V5.3c0-0.6,0.2-1.1,0.6-1.5s0.9-0.6,1.5-0.6h14.8c0.6,0,1.1,0.2,1.5,0.6C18.8,4.2,19,4.7,19,5.3V14.7z"/>
		<path class="st2" d="M5.8,13.2c0,1.2-0.4,1.6-1.6,1.6H2.1c-1.2,0-1.6-0.4-1.6-1.6V6.8c0-1.2,0.4-1.6,1.6-1.6h2.1
			c1.2,0,1.6,0.4,1.6,1.6V13.2z M12.1,13.2c0,1.2-0.4,1.6-1.6,1.6H8.4c-1.2,0-1.6-0.4-1.6-1.6V6.8c0-1.2,0.4-1.6,1.6-1.6h2.1
			c1.2,0,1.6,0.4,1.6,1.6V13.2z M18.5,13.2c0,1.2-0.4,1.6-1.6,1.6h-2.1c-1.2,0-1.6-0.4-1.6-1.6V6.8c0-1.2,0.4-1.6,1.6-1.6h2.1
			c1.2,0,1.6,0.4,1.6,1.6V13.2z"/>
		<path class="st3" d="M0.5,7.4h5.3v5.3H0.5V7.4z M6.9,7.4h5.3v5.3H6.9V7.4z M13.2,7.4h5.3v5.3h-5.3V7.4z"/>
		
			<linearGradient id="SVGID_4_" gradientUnits="userSpaceOnUse" x1="9.4786" y1="11.9127" x2="9.4786" y2="7.7438" gradientTransform="matrix(1 0 0 -1 0 19.8898)">
			<stop  offset="0" style="stop-color:#FFF1DD"/>
			<stop  offset="1" style="stop-color:#FF9900"/>
		</linearGradient>
		<path class="st4" d="M16.3,8.8h-1.5c-0.3,0-0.4-0.2-0.4-0.4c0-0.2,0.1-0.4,0.4-0.4h2.1c0.3,0,0.4,0.3,0.4,0.4
			c0,0.1-0.1,0.2-0.1,0.4l-1.4,2.9c-0.2,0.3-0.2,0.4-0.5,0.4c-0.3,0-0.5-0.2-0.5-0.4c0-0.1,0-0.1,0.1-0.2L16.3,8.8z M9.9,8.8H8.4
			C8.1,8.8,8,8.6,8,8.4C8,8.2,8.1,8,8.4,8h2.1C10.8,8,11,8.2,11,8.4c0,0.1-0.1,0.2-0.1,0.4l-1.4,2.9c-0.2,0.3-0.2,0.4-0.5,0.4
			c-0.3,0-0.5-0.2-0.5-0.4c0-0.1,0-0.1,0.1-0.2L9.9,8.8z M3.6,8.8H2.1c-0.3,0-0.4-0.2-0.4-0.4C1.7,8.2,1.8,8,2.1,8h2.1
			c0.3,0,0.4,0.3,0.4,0.4c0,0.1-0.1,0.2-0.1,0.4L3,11.7c-0.2,0.3-0.2,0.4-0.5,0.4c-0.3,0-0.5-0.2-0.5-0.4c0-0.1,0-0.1,0.1-0.2
			L3.6,8.8z"/>
	</g>
</g>
</svg>
