<svg width="41" height="41" viewBox="0 0 41 41" fill="none" xmlns="http://www.w3.org/2000/svg">
<path fill-rule="evenodd" clip-rule="evenodd" d="M8.16675 8.83337C7.61446 8.83337 7.16675 9.28109 7.16675 9.83338V27.1667H33.8334V9.83337C33.8334 9.28109 33.3857 8.83337 32.8334 8.83337H8.16675ZM10.7003 23.8687V12.1307H30.2999V23.8687H10.7003ZM9.70029 11.9307C9.70029 11.4889 10.0585 11.1307 10.5003 11.1307H30.4999C30.9417 11.1307 31.2999 11.4889 31.2999 11.9307V23.8687V24.8687H30.2999H10.7003H9.70029V23.8687V11.9307Z" fill="url(#paint0_linear_430_758)"/>
<path d="M7.16671 28.8334H33.8334L36.6485 33.056C36.87 33.3883 36.6318 33.8334 36.2324 33.8334H4.76763C4.36828 33.8334 4.13009 33.3883 4.35161 33.056L7.16671 28.8334Z" fill="url(#paint1_linear_430_758)"/>
<defs>
<linearGradient id="paint0_linear_430_758" x1="9.23469" y1="27.9393" x2="25.9838" y2="14.1355" gradientUnits="userSpaceOnUse">
<stop stop-color="#F1F6FF"/>
<stop offset="0.282494" stop-color="#3E5C95"/>
<stop offset="1" stop-color="#A3BEF2"/>
</linearGradient>
<linearGradient id="paint1_linear_430_758" x1="6.4183" y1="34.0441" x2="8.72088" y2="25.3464" gradientUnits="userSpaceOnUse">
<stop stop-color="#F1F6FF"/>
<stop offset="0.282494" stop-color="#3E5C95"/>
<stop offset="1" stop-color="#A3BEF2"/>
</linearGradient>
</defs>
</svg>
