<svg width="24" height="25" viewBox="0 0 24 25" fill="none" xmlns="http://www.w3.org/2000/svg">
<path d="M15.6718 8.82886L8.32887 16.1717" stroke="#FFEDC5" stroke-width="1.5" stroke-linecap="round"/>
<path d="M11.3085 9.03927L14.7018 5.64601C14.7252 5.62257 14.7468 5.5998 14.7701 5.57618C15.039 5.30301 16.9058 3.55957 18.9231 5.57693C20.9405 7.59427 19.197 9.46099 18.9239 9.72994C18.9002 9.75319 18.8775 9.7748 18.854 9.79824L15.4608 13.1915" stroke="#FFEDC5" stroke-width="1.5" stroke-linecap="round"/>
<path d="M8.53927 11.8085L5.14601 15.2018C5.12257 15.2252 5.0998 15.2468 5.07618 15.2701C4.80301 15.539 3.05957 17.4058 5.07693 19.4231C7.09427 21.4405 8.96099 19.697 9.22994 19.4239C9.25319 19.4002 9.2748 19.3775 9.29824 19.354L12.6915 15.9608" stroke="#FFEDC5" stroke-width="1.5" stroke-linecap="round"/>
</svg>
