<svg width="30" height="30" viewBox="0 0 30 30" fill="none" xmlns="http://www.w3.org/2000/svg">
<path fill-rule="evenodd" clip-rule="evenodd" d="M19.1251 14.9999C19.1251 14.5857 18.7893 14.2499 18.3751 14.2499L7.40256 14.2499L9.36321 12.5693C9.67771 12.2998 9.71413 11.8263 9.44456 11.5118C9.175 11.1973 8.70152 11.1609 8.38703 11.4304L4.88703 14.4304C4.72079 14.5729 4.62512 14.7809 4.62512 14.9999C4.62512 15.2188 4.72079 15.4268 4.88703 15.5693L8.38703 18.5693C8.70152 18.8389 9.175 18.8025 9.44456 18.488C9.71413 18.1735 9.67771 17.7 9.36322 17.4304L7.40256 15.7499L18.3751 15.7499C18.7893 15.7499 19.1251 15.4141 19.1251 14.9999Z" fill="#3E5C95"/>
<path d="M12.3751 10.9999C12.3751 11.7021 12.3751 12.0532 12.5436 12.3054C12.6166 12.4146 12.7104 12.5084 12.8196 12.5813C13.0718 12.7498 13.4229 12.7498 14.1251 12.7498L18.3751 12.7498C19.6178 12.7498 20.6251 13.7572 20.6251 14.9998C20.6251 16.2425 19.6178 17.2498 18.3751 17.2498L14.1252 17.2498C13.4229 17.2498 13.0718 17.2498 12.8195 17.4184C12.7104 17.4913 12.6166 17.5851 12.5437 17.6942C12.3751 17.9465 12.3751 18.2976 12.3751 18.9999C12.3751 21.8283 12.3751 23.2425 13.2538 24.1212C14.1325 24.9999 15.5465 24.9999 18.3749 24.9999L19.3749 24.9999C22.2033 24.9999 23.6175 24.9999 24.4962 24.1212C25.3749 23.2425 25.3749 21.8283 25.3749 18.9999L25.3749 10.9999C25.3749 8.17146 25.3749 6.75723 24.4962 5.87856C23.6175 4.99988 22.2033 4.99988 19.3749 4.99988L18.3749 4.99988C15.5465 4.99988 14.1325 4.99988 13.2538 5.87856C12.3751 6.75724 12.3751 8.17145 12.3751 10.9999Z" fill="#3E5C95"/>
</svg>
