<?xml version="1.0" encoding="utf-8"?>
<!-- Generator: Adobe Illustrator 24.3.0, SVG Export Plug-In . SVG Version: 6.00 Build 0)  -->
<svg version="1.1" id="圖層_1" xmlns="http://www.w3.org/2000/svg" xmlns:xlink="http://www.w3.org/1999/xlink" x="0px" y="0px"
	 viewBox="0 0 24 24" style="enable-background:new 0 0 24 24;" xml:space="preserve">
<style type="text/css">
	.st0{fill:none;stroke:url(#SVGID_1_);}
	.st1{fill:url(#SVGID_2_);}
	.st2{fill:none;}
	.st3{fill:#2E3252;}
	.st4{fill:url(#SVGID_3_);}
</style>
<linearGradient id="SVGID_1_" gradientUnits="userSpaceOnUse" x1="7.4414" y1="10.4376" x2="17.7065" y2="16.2539" gradientTransform="matrix(1 0 0 -1 0 23.8898)">
	<stop  offset="0" style="stop-color:#FAEFDB"/>
	<stop  offset="0.2825" style="stop-color:#90846D"/>
	<stop  offset="1" style="stop-color:#FFF4DE"/>
</linearGradient>
<path class="st0" d="M20.5,9.4c0,3.3-2.7,5.9-5.9,5.9s-5.9-2.7-5.9-5.9c0-3.3,2.7-5.9,5.9-5.9S20.5,6.2,20.5,9.4z"/>
<linearGradient id="SVGID_2_" gradientUnits="userSpaceOnUse" x1="2.3561" y1="5.2947" x2="12.6213" y2="11.111" gradientTransform="matrix(1 0 0 -1 0 23.8898)">
	<stop  offset="0" style="stop-color:#FAEFDB"/>
	<stop  offset="0.2825" style="stop-color:#90846D"/>
	<stop  offset="1" style="stop-color:#FFF4DE"/>
</linearGradient>
<circle class="st1" cx="9.5" cy="14.6" r="6.4"/>
<circle class="st2" cx="9.5" cy="14.6" r="6.4"/>
<path class="st3" d="M9.3,18.4c-0.2,0-0.3-0.1-0.4-0.2c-0.1-0.1-0.2-0.2-0.2-0.4v-0.6L9,17.4c-0.4,0-0.7-0.1-0.9-0.1
	c-0.3-0.1-0.5-0.2-0.6-0.2c-0.1-0.1-0.2-0.2-0.3-0.3c-0.1-0.1-0.1-0.2-0.1-0.4c0-0.1,0.1-0.2,0.1-0.3c0.1-0.1,0.2-0.2,0.3-0.2
	c0.1,0,0.3,0,0.4,0C8.1,16,8.2,16,8.4,16.1c0.2,0.1,0.5,0.1,0.8,0.1c0.2,0,0.4,0,0.5-0.1C9.9,16.1,10,16,10,16
	c0.1-0.1,0.1-0.2,0.1-0.2c0-0.1,0-0.1-0.1-0.2c0-0.1-0.1-0.1-0.2-0.2c-0.1,0-0.2-0.1-0.4-0.1l-0.9-0.2c-0.5-0.1-0.9-0.3-1.1-0.6
	c-0.2-0.3-0.4-0.6-0.4-1c0-0.3,0.1-0.6,0.2-0.9C7.5,12.3,7.8,12.1,8,12c0.3-0.2,0.6-0.3,1-0.3l-0.2,0.1v-0.5c0-0.2,0.1-0.3,0.2-0.4
	c0.1-0.1,0.2-0.2,0.4-0.2c0.2,0,0.3,0.1,0.4,0.2c0.1,0.1,0.2,0.2,0.2,0.4v0.5l-0.2-0.2c0.2,0,0.4,0,0.6,0.1c0.2,0.1,0.4,0.1,0.6,0.2
	c0.1,0.1,0.2,0.2,0.3,0.3c0.1,0.1,0.1,0.2,0.1,0.3c0,0.1-0.1,0.2-0.1,0.3c-0.1,0.1-0.2,0.2-0.3,0.2c-0.1,0-0.3,0-0.4-0.1
	c-0.1-0.1-0.3-0.1-0.4-0.1c-0.1,0-0.3-0.1-0.6-0.1c-0.3,0-0.5,0.1-0.6,0.2c-0.1,0.1-0.2,0.2-0.2,0.4c0,0.1,0,0.2,0.1,0.3
	c0.1,0.1,0.2,0.1,0.5,0.2l0.9,0.2c0.5,0.1,0.9,0.3,1.1,0.6c0.2,0.3,0.4,0.6,0.4,1c0,0.3-0.1,0.6-0.2,0.9c-0.2,0.2-0.4,0.4-0.6,0.6
	c-0.3,0.2-0.6,0.3-0.9,0.3l0.2-0.2v0.6c0,0.2-0.1,0.3-0.2,0.4C9.6,18.3,9.5,18.4,9.3,18.4z"/>
<linearGradient id="SVGID_3_" gradientUnits="userSpaceOnUse" x1="18.1157" y1="6.5071" x2="18.9538" y2="4.9358" gradientTransform="matrix(1 0 0 -1 0 23.8898)">
	<stop  offset="0" style="stop-color:#FAEFDB"/>
	<stop  offset="0.2825" style="stop-color:#90846D"/>
	<stop  offset="1" style="stop-color:#FFF4DE"/>
</linearGradient>
<path class="st4" d="M21.3,17.2c0.2-0.2,0.2-0.5,0-0.7c-0.2-0.2-0.5-0.2-0.7,0L21.3,17.2z M16.4,20.9c0,0.3,0.2,0.5,0.5,0.5h4.5
	c0.3,0,0.5-0.2,0.5-0.5c0-0.3-0.2-0.5-0.5-0.5h-4v-4c0-0.3-0.2-0.5-0.5-0.5c-0.3,0-0.5,0.2-0.5,0.5V20.9z M20.6,16.5l-4.1,4.1
	l0.7,0.7l4.1-4.1L20.6,16.5z"/>
</svg>
