<svg width="24" height="25" viewBox="0 0 24 25" fill="none" xmlns="http://www.w3.org/2000/svg">
<path fill-rule="evenodd" clip-rule="evenodd" d="M4.7102 5.97132C3.66548 6.4688 3 7.52277 3 8.6799V16.3201C3 17.4772 3.66548 18.5312 4.7102 19.0286L10.7102 21.8858C11.5262 22.2743 12.4738 22.2743 13.2898 21.8858L19.2898 19.0286C20.3345 18.5312 21 17.4772 21 16.3201V8.6799C21 7.52277 20.3345 6.4688 19.2898 5.97132L13.2898 3.11417C12.4738 2.72561 11.5262 2.72561 10.7102 3.11417L4.7102 5.97132ZM9.75 12.5C9.75 11.2573 10.7574 10.25 12 10.25C13.2426 10.25 14.25 11.2573 14.25 12.5C14.25 13.7426 13.2426 14.75 12 14.75C10.7574 14.75 9.75 13.7426 9.75 12.5ZM12 8.74998C9.92893 8.74998 8.25 10.4289 8.25 12.5C8.25 14.571 9.92893 16.25 12 16.25C14.0711 16.25 15.75 14.571 15.75 12.5C15.75 10.4289 14.0711 8.74998 12 8.74998Z" fill="url(#paint0_linear_498_2015)"/>
<defs>
<linearGradient id="paint0_linear_498_2015" x1="4.39586" y1="22.9929" x2="19.2547" y2="15.163" gradientUnits="userSpaceOnUse">
<stop stop-color="#F1F6FF"/>
<stop offset="0.282494" stop-color="#3E5C95"/>
<stop offset="1" stop-color="#A3BEF2"/>
</linearGradient>
</defs>
</svg>
