<svg width="30" height="30" viewBox="0 0 30 30" fill="none" xmlns="http://www.w3.org/2000/svg">
<path fill-rule="evenodd" clip-rule="evenodd" d="M25 15C25 20.5228 20.5228 25 15 25C9.47715 25 5 20.5228 5 15C5 9.47715 9.47715 5 15 5C20.5228 5 25 9.47715 25 15ZM11.9696 11.9696C12.2625 11.6768 12.7374 11.6768 13.0303 11.9696L15 13.9393L16.9696 11.9697C17.2625 11.6768 17.7374 11.6768 18.0303 11.9697C18.3232 12.2626 18.3232 12.7374 18.0303 13.0303L16.0606 15L18.0303 16.9696C18.3232 17.2625 18.3232 17.7374 18.0303 18.0303C17.7374 18.3232 17.2625 18.3232 16.9696 18.0303L15 16.0607L13.0303 18.0303C12.7374 18.3232 12.2625 18.3232 11.9696 18.0303C11.6768 17.7374 11.6768 17.2625 11.9696 16.9697L13.9393 15L11.9696 13.0303C11.6767 12.7374 11.6767 12.2625 11.9696 11.9696Z" fill="#DE7123"/>
</svg>
