<svg width="24" height="24" viewBox="0 0 24 24" fill="none" xmlns="http://www.w3.org/2000/svg">
<rect x="22" y="22" width="20" height="20" rx="5" transform="rotate(-180 22 22)" stroke="#596898" stroke-width="1.5"/>
<path d="M10.9146 13.8991L8.55814 14.2371C8.24066 14.2826 8.0495 14.6147 8.16724 14.9162L9.04117 17.1536" stroke="#596898" stroke-width="1.5" stroke-linecap="round"/>
<path d="M8.80786 14.3563C9.63764 15.463 10.9921 16 12.5221 16C15.0469 16 16.8079 13.9415 16.8079 11.5207C16.8079 11.3445 16.797 11.1707 16.7759 11" stroke="#596898" stroke-width="1.5" stroke-linecap="round"/>
<path d="M12.8457 9.15948L15.2158 8.93665C15.5351 8.90663 15.7422 8.58424 15.6393 8.27742L14.8754 6.00009" stroke="#596898" stroke-width="1.5" stroke-linecap="round"/>
<path d="M15 8.69275C14.1702 7.58604 12.8157 7.04901 11.2857 7.04901C8.76098 7.04901 7 9.10751 7 11.5283C7 11.7045 7.01084 11.8783 7.03192 12.049" stroke="#596898" stroke-width="1.5" stroke-linecap="round"/>
</svg>
