<svg width="20" height="20" viewBox="0 0 20 20" fill="none" xmlns="http://www.w3.org/2000/svg">
<path fill-rule="evenodd" clip-rule="evenodd" d="M18.3334 13.3334C18.3334 16.0948 16.0948 18.3334 13.3334 18.3334L6.66675 18.3334C3.90533 18.3334 1.66675 16.0948 1.66675 13.3334V6.66669C1.66675 3.90527 3.90533 1.66669 6.66675 1.66669H13.3334C16.0948 1.66669 18.3334 3.90526 18.3334 6.66669L18.3334 13.3334ZM9.58814 11.5119C9.54818 11.2374 9.29519 11.0466 9.02308 11.0856L7.16296 11.3524C6.52801 11.4435 6.14568 12.1077 6.38117 12.7106L7.07104 14.4767C7.17196 14.7351 7.46117 14.863 7.71702 14.7625C7.97287 14.6619 8.09846 14.371 7.99754 14.1126L7.51092 12.8668C8.29892 13.5279 9.33922 13.8334 10.4352 13.8334C12.8513 13.8334 14.5066 11.8566 14.5066 9.60058C14.5066 9.43324 14.4963 9.26799 14.4763 9.10544C14.4424 8.83138 14.1928 8.63663 13.9188 8.67046C13.6447 8.70429 13.45 8.95388 13.4838 9.22795C13.4989 9.34997 13.5066 9.4743 13.5066 9.60058C13.5066 11.3793 12.227 12.8334 10.4352 12.8334C9.58805 12.8334 8.84883 12.6181 8.28841 12.2057L9.1678 12.0796C9.43991 12.0406 9.6281 11.7864 9.58814 11.5119ZM10.2093 7.67956C10.2358 7.95567 10.4792 8.15864 10.7529 8.13291L12.6238 7.957C13.2625 7.89696 13.6767 7.25219 13.4708 6.63854L12.8678 4.84085C12.7796 4.57787 12.4969 4.436 12.2365 4.52398C11.9761 4.61195 11.8365 4.89646 11.9247 5.15944L12.3178 6.33134C11.5312 5.67679 10.4956 5.37423 9.40484 5.37423C6.98871 5.37423 5.33341 7.35099 5.33341 9.607C5.33341 9.77435 5.34371 9.9396 5.36378 10.1021C5.3976 10.3762 5.6472 10.571 5.92126 10.5371C6.19532 10.5033 6.39007 10.2537 6.35625 9.97964C6.34118 9.85762 6.33341 9.73328 6.33341 9.607C6.33342 7.8283 7.61309 6.37423 9.40484 6.37423C10.2802 6.37423 11.0403 6.6041 11.607 7.04369L10.6568 7.13303C10.3831 7.15876 10.1828 7.40345 10.2093 7.67956Z" fill="#596898"/>
</svg>
