<svg width="41" height="40" viewBox="0 0 41 40" fill="none" xmlns="http://www.w3.org/2000/svg">
<path d="M9.53726 8.87308C9.29587 9.35427 9.17715 9.94787 8.93971 11.1351L8.14248 15.1212C7.63769 17.6452 9.56818 20 12.1421 20C14.2376 20 15.9922 18.4121 16.2007 16.327L16.2927 15.4068C16.0753 17.8717 18.0181 20 20.4998 20C22.9984 20 24.9507 17.8426 24.7021 15.3565L24.7994 16.327C25.0079 18.4121 26.7625 20 28.858 20C31.4319 20 33.3624 17.6452 32.8576 15.1212L32.0604 11.1351C31.823 9.94789 31.7042 9.35427 31.4629 8.87308C30.9542 7.85915 30.039 7.10886 28.945 6.80896C28.4258 6.66663 27.8205 6.66663 26.6098 6.66663H23.8331H14.3903C13.1796 6.66663 12.5743 6.66663 12.0551 6.80896C10.9611 7.10886 10.0459 7.85915 9.53726 8.87308Z" fill="url(#paint0_linear_383_1161)"/>
<path d="M28.8579 21.9999C29.9475 21.9999 30.9597 21.7168 31.8333 21.2252V22.6666C31.8333 27.6949 31.8333 30.2091 30.2712 31.7712C29.0137 33.0286 27.1394 33.2739 23.8333 33.3217V28.6667C23.8333 27.4205 23.8333 26.7974 23.5653 26.3333C23.3898 26.0293 23.1373 25.7768 22.8333 25.6013C22.3692 25.3333 21.7461 25.3333 20.5 25.3333C19.2538 25.3333 18.6307 25.3333 18.1666 25.6013C17.8626 25.7768 17.6101 26.0293 17.4346 26.3333C17.1666 26.7974 17.1666 27.4205 17.1666 28.6667V33.3217C13.8605 33.2739 11.9862 33.0286 10.7287 31.7712C9.16663 30.2091 9.16663 27.6949 9.16663 22.6666V21.2252C10.0403 21.7168 11.0525 21.9999 12.1421 21.9999C13.7381 21.9999 15.2015 21.3818 16.2924 20.3626C17.3955 21.3761 18.8686 21.9999 20.4997 21.9999C22.1309 21.9999 23.6041 21.376 24.7073 20.3623C25.7982 21.3817 27.2617 21.9999 28.8579 21.9999Z" fill="url(#paint1_linear_383_1161)"/>
<defs>
<linearGradient id="paint0_linear_383_1161" x1="9.991" y1="20.5619" x2="22.3816" y2="7.46341" gradientUnits="userSpaceOnUse">
<stop stop-color="#F1F6FF"/>
<stop offset="0.282494" stop-color="#3E5C95"/>
<stop offset="1" stop-color="#A3BEF2"/>
</linearGradient>
<linearGradient id="paint1_linear_383_1161" x1="10.9244" y1="33.8679" x2="22.9856" y2="21.9149" gradientUnits="userSpaceOnUse">
<stop stop-color="#F1F6FF"/>
<stop offset="0.282494" stop-color="#3E5C95"/>
<stop offset="1" stop-color="#A3BEF2"/>
</linearGradient>
</defs>
</svg>
