<svg width="30" height="30" viewBox="0 0 30 30" fill="none" xmlns="http://www.w3.org/2000/svg">
<path d="M25 15.0001C25 20.523 20.5228 25.0001 15 25.0001C9.47715 25.0001 5 20.523 5 15.0001C5 9.47727 9.47715 5.00012 15 5.00012C20.5228 5.00012 25 9.47727 25 15.0001Z" fill="#3E5C95"/>
<path fill-rule="evenodd" clip-rule="evenodd" d="M15 10.2501C15.4142 10.2501 15.75 10.5859 15.75 11.0001V14.6895L18.0303 16.9698C18.3232 17.2627 18.3232 17.7376 18.0303 18.0305C17.7374 18.3233 17.2626 18.3233 16.9697 18.0305L14.4697 15.5305C14.329 15.3898 14.25 15.199 14.25 15.0001V11.0001C14.25 10.5859 14.5858 10.2501 15 10.2501Z" fill="white"/>
</svg>
