<svg width="30" height="30" viewBox="0 0 30 30" fill="none" xmlns="http://www.w3.org/2000/svg">
<path fill-rule="evenodd" clip-rule="evenodd" d="M6 13.0001C6 9.22889 6 7.34327 7.17157 6.17169C8.34315 5.00012 10.2288 5.00012 14 5.00012H16C19.7712 5.00012 21.6569 5.00012 22.8284 6.17169C24 7.34327 24 9.22889 24 13.0001V17.0001C24 20.7714 24 22.657 22.8284 23.8285C21.6569 25.0001 19.7712 25.0001 16 25.0001H14C10.2288 25.0001 8.34315 25.0001 7.17157 23.8285C6 22.657 6 20.7714 6 17.0001V13.0001ZM10.25 21.0001C10.25 20.5859 10.5858 20.2501 11 20.2501H19C19.4142 20.2501 19.75 20.5859 19.75 21.0001C19.75 21.4143 19.4142 21.7501 19 21.7501H11C10.5858 21.7501 10.25 21.4143 10.25 21.0001ZM18.3553 9.30996C16.1338 8.89684 13.8663 8.89684 11.6447 9.30996L11.169 9.39843C10.2887 9.56213 9.76942 10.5917 10.1009 11.5162L10.8452 13.5926C10.9531 13.8935 11.2437 14.0593 11.5255 13.9807C11.7028 13.9312 11.8807 13.8856 12.0592 13.8439L11.4198 11.8541C11.2635 11.3676 11.4903 10.8318 11.9263 10.6574C12.3624 10.483 12.8426 10.736 12.9989 11.2225L13.7514 13.5643C15.3304 13.4101 16.9267 13.5489 18.4746 13.9807C18.7564 14.0593 19.047 13.8935 19.1548 13.5926L19.8992 11.5162C20.2307 10.5917 19.7114 9.56213 18.8311 9.39843L18.3553 9.30996Z" fill="#3E5C95"/>
</svg>
