<svg width="40" height="40" viewBox="0 0 40 40" fill="none" xmlns="http://www.w3.org/2000/svg">
<path d="M17.3333 9.33331H22.6666C27.6949 9.33331 30.2091 9.33331 31.7712 10.8954C32.8959 12.0201 33.2108 13.6384 33.299 16.3333H6.70091C6.78909 13.6384 7.104 12.0201 8.22872 10.8954C9.79082 9.33331 12.305 9.33331 17.3333 9.33331Z" fill="url(#paint0_linear_285_53)"/>
<path fill-rule="evenodd" clip-rule="evenodd" d="M33.3326 21.09L32.7879 20.5453C31.6164 19.3738 29.7169 19.3738 28.5453 20.5453L27.4767 21.6139C27.0504 20.4763 25.9531 19.6666 24.6666 19.6666C23.0098 19.6666 21.6666 21.0098 21.6666 22.6666V25.0184C21.0134 25.0911 20.3795 25.3778 19.8786 25.8787C18.7071 27.0502 18.7071 28.9497 19.8786 30.1213L20.424 30.6666H17.3333C12.305 30.6666 9.79082 30.6666 8.22872 29.1045C6.66663 27.5425 6.66663 25.0283 6.66663 20C6.66663 19.4107 6.66663 18.856 6.66914 18.3333H33.3308C33.3333 18.856 33.3333 19.4107 33.3333 20C33.3333 20.3773 33.3333 20.7404 33.3326 21.09ZM12 24.3333C11.4477 24.3333 11 24.781 11 25.3333C11 25.8856 11.4477 26.3333 12 26.3333H17.3333C17.8856 26.3333 18.3333 25.8856 18.3333 25.3333C18.3333 24.781 17.8856 24.3333 17.3333 24.3333H12Z" fill="url(#paint1_linear_285_53)"/>
<path fill-rule="evenodd" clip-rule="evenodd" d="M24.6666 21.6666C25.2189 21.6666 25.6666 22.1144 25.6666 22.6666V28.2524L26.6262 27.2929C27.0167 26.9023 27.6499 26.9023 28.0404 27.2929C28.4309 27.6834 28.4309 28.3166 28.0404 28.7071L25.3737 31.3738C24.9832 31.7643 24.35 31.7643 23.9595 31.3738L21.2929 28.7071C20.9023 28.3166 20.9023 27.6834 21.2929 27.2929C21.6834 26.9023 22.3165 26.9023 22.7071 27.2929L23.6666 28.2524V22.6666C23.6666 22.1144 24.1143 21.6666 24.6666 21.6666ZM29.9595 21.9595C30.35 21.569 30.9832 21.569 31.3737 21.9595L34.0404 24.6262C34.4309 25.0167 34.4309 25.6499 34.0404 26.0404C33.6499 26.4309 33.0167 26.4309 32.6262 26.0404L31.6666 25.0809V30.6666C31.6666 31.2189 31.2189 31.6666 30.6666 31.6666C30.1143 31.6666 29.6666 31.2189 29.6666 30.6666V25.0809L28.7071 26.0404C28.3165 26.4309 27.6834 26.4309 27.2929 26.0404C26.9023 25.6499 26.9023 25.0167 27.2929 24.6262L29.9595 21.9595Z" fill="url(#paint2_linear_285_53)"/>
<defs>
<linearGradient id="paint0_linear_285_53" x1="8.81212" y1="32.6078" x2="28.361" y2="18.8862" gradientUnits="userSpaceOnUse">
<stop stop-color="#F1F6FF"/>
<stop offset="0.282494" stop-color="#3E5C95"/>
<stop offset="1" stop-color="#A3BEF2"/>
</linearGradient>
<linearGradient id="paint1_linear_285_53" x1="8.81212" y1="32.6078" x2="28.361" y2="18.8862" gradientUnits="userSpaceOnUse">
<stop stop-color="#F1F6FF"/>
<stop offset="0.282494" stop-color="#3E5C95"/>
<stop offset="1" stop-color="#A3BEF2"/>
</linearGradient>
<linearGradient id="paint2_linear_285_53" x1="8.81212" y1="32.6078" x2="28.361" y2="18.8862" gradientUnits="userSpaceOnUse">
<stop stop-color="#F1F6FF"/>
<stop offset="0.282494" stop-color="#3E5C95"/>
<stop offset="1" stop-color="#A3BEF2"/>
</linearGradient>
</defs>
</svg>
