<svg width="31" height="30" viewBox="0 0 31 30" fill="none" xmlns="http://www.w3.org/2000/svg">
<path d="M5.25 13.0004V17.0004C5.25 19.8288 5.25 21.243 6.12868 22.1217C6.34602 22.339 6.59612 22.5026 6.89228 22.6257C6.88556 22.5812 6.87922 22.5366 6.87321 22.492C6.74986 21.5745 6.74992 20.4288 6.75 19.099L6.75 11.0003L6.75 10.9016V10.9015C6.74992 9.57182 6.74986 8.4261 6.87321 7.50861C6.87921 7.46399 6.88555 7.41944 6.89226 7.375C6.59611 7.49812 6.34601 7.6617 6.12868 7.87903C5.25 8.75771 5.25 10.1719 5.25 13.0004Z" fill="url(#paint0_linear_210_83)"/>
<path d="M25.25 13.0004V17.0004C25.25 19.8288 25.25 21.243 24.3713 22.1217C24.154 22.339 23.9039 22.5026 23.6077 22.6257C23.6144 22.5812 23.6208 22.5366 23.6268 22.492C23.7501 21.5745 23.7501 20.4288 23.75 19.099V10.9016C23.7501 9.57183 23.7501 8.4261 23.6268 7.50861C23.6208 7.46399 23.6144 7.41944 23.6077 7.375C23.9039 7.49812 24.154 7.6617 24.3713 7.87903C25.25 8.75771 25.25 10.1719 25.25 13.0004Z" fill="url(#paint1_linear_210_83)"/>
<path fill-rule="evenodd" clip-rule="evenodd" d="M9.12868 5.87868C8.25 6.75736 8.25 8.17157 8.25 11V19C8.25 21.8284 8.25 23.2426 9.12868 24.1213C10.0074 25 11.4216 25 14.25 25H16.25C19.0784 25 20.4926 25 21.3713 24.1213C22.25 23.2426 22.25 21.8284 22.25 19V11C22.25 8.17157 22.25 6.75736 21.3713 5.87868C20.4926 5 19.0784 5 16.25 5H14.25C11.4216 5 10.0074 5 9.12868 5.87868ZM11.5 20C11.5 19.5858 11.8358 19.25 12.25 19.25H15.25C15.6642 19.25 16 19.5858 16 20C16 20.4142 15.6642 20.75 15.25 20.75H12.25C11.8358 20.75 11.5 20.4142 11.5 20ZM12.25 15.25C11.8358 15.25 11.5 15.5858 11.5 16C11.5 16.4142 11.8358 16.75 12.25 16.75H18.25C18.6642 16.75 19 16.4142 19 16C19 15.5858 18.6642 15.25 18.25 15.25H12.25ZM11.5 12C11.5 11.5858 11.8358 11.25 12.25 11.25H18.25C18.6642 11.25 19 11.5858 19 12C19 12.4142 18.6642 12.75 18.25 12.75H12.25C11.8358 12.75 11.5 12.4142 11.5 12Z" fill="url(#paint2_linear_210_83)"/>
<defs>
<linearGradient id="paint0_linear_210_83" x1="15.25" y1="7.375" x2="15.25" y2="22.6257" gradientUnits="userSpaceOnUse">
<stop stop-color="#CBBA9B"/>
<stop offset="0.460068" stop-color="#FFEDC5"/>
<stop offset="1" stop-color="#8D7E57"/>
</linearGradient>
<linearGradient id="paint1_linear_210_83" x1="15.25" y1="7.375" x2="15.25" y2="22.6257" gradientUnits="userSpaceOnUse">
<stop stop-color="#CBBA9B"/>
<stop offset="0.460068" stop-color="#FFEDC5"/>
<stop offset="1" stop-color="#8D7E57"/>
</linearGradient>
<linearGradient id="paint2_linear_210_83" x1="15.25" y1="5" x2="15.25" y2="25" gradientUnits="userSpaceOnUse">
<stop stop-color="#CBBA9B"/>
<stop offset="0.460068" stop-color="#FFEDC5"/>
<stop offset="1" stop-color="#8D7E57"/>
</linearGradient>
</defs>
</svg>
