<svg width="31" height="30" viewBox="0 0 31 30" fill="none" xmlns="http://www.w3.org/2000/svg">
<path fill-rule="evenodd" clip-rule="evenodd" d="M5.5 15C5.5 20.5228 9.97715 25 15.5 25H24.75C25.1642 25 25.5 24.6642 25.5 24.25C25.5 23.8358 25.1642 23.5 24.75 23.5H20.7704C23.6097 21.7358 25.5 18.5887 25.5 15C25.5 9.47715 21.0228 5 15.5 5C9.97715 5 5.5 9.47715 5.5 15ZM15.5 12C16.3284 12 17 11.3284 17 10.5C17 9.67157 16.3284 9 15.5 9C14.6716 9 14 9.67157 14 10.5C14 11.3284 14.6716 12 15.5 12ZM15.5 21C16.3284 21 17 20.3284 17 19.5C17 18.6716 16.3284 18 15.5 18C14.6716 18 14 18.6716 14 19.5C14 20.3284 14.6716 21 15.5 21ZM11 13.5C11.8284 13.5 12.5 14.1716 12.5 15C12.5 15.8284 11.8284 16.5 11 16.5C10.1716 16.5 9.5 15.8284 9.5 15C9.5 14.1716 10.1716 13.5 11 13.5ZM21.5 15C21.5 14.1716 20.8284 13.5 20 13.5C19.1716 13.5 18.5 14.1716 18.5 15C18.5 15.8284 19.1716 16.5 20 16.5C20.8284 16.5 21.5 15.8284 21.5 15Z" fill="url(#paint0_linear_210_88)"/>
<defs>
<linearGradient id="paint0_linear_210_88" x1="15.5" y1="5" x2="15.5" y2="25" gradientUnits="userSpaceOnUse">
<stop stop-color="#CBBA9B"/>
<stop offset="0.460068" stop-color="#FFEDC5"/>
<stop offset="1" stop-color="#8D7E57"/>
</linearGradient>
</defs>
</svg>
