<svg width="42" height="40" viewBox="0 0 42 40" fill="none" xmlns="http://www.w3.org/2000/svg">
<path fill-rule="evenodd" clip-rule="evenodd" d="M21.0693 6.16669H20.9306C19.7327 6.16665 18.7337 6.16662 17.9407 6.27324C17.1036 6.38578 16.3479 6.63334 15.7406 7.24063C15.1333 7.84793 14.8857 8.60366 14.7732 9.44072C14.6967 10.0092 14.6751 11.3687 14.669 12.5342C11.9727 12.6223 10.3538 12.9371 9.22872 14.0621C7.66663 15.6242 7.66663 18.1384 7.66663 23.1667C7.66663 28.195 7.66663 30.7092 9.22872 32.2713C10.7908 33.8334 13.305 33.8334 18.3333 33.8334H23.6666C28.6949 33.8334 31.2091 33.8334 32.7712 32.2713C34.3333 30.7092 34.3333 28.195 34.3333 23.1667C34.3333 18.1384 34.3333 15.6242 32.7712 14.0621C31.6461 12.9371 30.0272 12.6223 27.3309 12.5342C27.3248 11.3687 27.3032 10.0092 27.2267 9.44072C27.1142 8.60366 26.8666 7.84793 26.2594 7.24063C25.6521 6.63334 24.8963 6.38578 24.0593 6.27324C23.2662 6.16662 22.2672 6.16665 21.0693 6.16669ZM25.3305 12.5025C25.3245 11.3737 25.3053 10.1588 25.2446 9.70721C25.1619 9.09193 25.0189 8.8286 24.8451 8.65485C24.6714 8.48109 24.4081 8.33813 23.7928 8.25541C23.1487 8.16882 22.2853 8.16669 21 8.16669C19.7146 8.16669 18.8512 8.16882 18.2072 8.25541C17.5919 8.33813 17.3285 8.48109 17.1548 8.65485C16.981 8.8286 16.8381 9.09193 16.7553 9.70721C16.6946 10.1588 16.6754 11.3737 16.6694 12.5025C17.1913 12.5 17.7451 12.5 18.3333 12.5H23.6666C24.2548 12.5 24.8086 12.5 25.3305 12.5025ZM21 16.8334C21.5522 16.8334 22 17.2811 22 17.8334V17.847C23.4517 18.2127 24.6666 19.3574 24.6666 20.9445C24.6666 21.4968 24.2189 21.9445 23.6666 21.9445C23.1143 21.9445 22.6666 21.4968 22.6666 20.9445C22.6666 20.4324 22.0989 19.7222 21 19.7222C19.901 19.7222 19.3333 20.4324 19.3333 20.9445C19.3333 21.4565 19.901 22.1667 21 22.1667C22.8465 22.1667 24.6666 23.4464 24.6666 25.3889C24.6666 26.976 23.4517 28.1206 22 28.4864V28.5C22 29.0523 21.5522 29.5 21 29.5C20.4477 29.5 20 29.0523 20 28.5V28.4864C18.5482 28.1206 17.3333 26.976 17.3333 25.3889C17.3333 24.8366 17.781 24.3889 18.3333 24.3889C18.8856 24.3889 19.3333 24.8366 19.3333 25.3889C19.3333 25.901 19.901 26.6111 21 26.6111C22.0989 26.6111 22.6666 25.901 22.6666 25.3889C22.6666 24.8769 22.0989 24.1667 21 24.1667C19.1534 24.1667 17.3333 22.887 17.3333 20.9445C17.3333 19.3574 18.5482 18.2127 20 17.847V17.8334C20 17.2811 20.4477 16.8334 21 16.8334Z" fill="url(#paint0_linear_284_145)"/>
<defs>
<linearGradient id="paint0_linear_284_145" x1="9.73457" y1="34.9993" x2="31.3988" y2="23.1679" gradientUnits="userSpaceOnUse">
<stop stop-color="#F1F6FF"/>
<stop offset="0.282494" stop-color="#3E5C95"/>
<stop offset="1" stop-color="#A3BEF2"/>
</linearGradient>
</defs>
</svg>
