<svg width="25" height="24" viewBox="0 0 25 24" fill="none" xmlns="http://www.w3.org/2000/svg">
<path fill-rule="evenodd" clip-rule="evenodd" d="M8.66666 3C9.21894 3 9.66666 3.44772 9.66666 4V5C9.66666 5.55228 9.21894 6 8.66666 6C8.11437 6 7.66666 5.55228 7.66666 5V4C7.66666 3.44772 8.11437 3 8.66666 3ZM12.6667 3C13.2189 3 13.6667 3.44772 13.6667 4V5C13.6667 5.55228 13.2189 6 12.6667 6C12.1144 6 11.6667 5.55228 11.6667 5V4C11.6667 3.44772 12.1144 3 12.6667 3ZM16.6667 3C17.2189 3 17.6667 3.44772 17.6667 4V5C17.6667 5.55228 17.2189 6 16.6667 6C16.1144 6 15.6667 5.55228 15.6667 5V4C15.6667 3.44772 16.1144 3 16.6667 3ZM8.66666 6.5C9.21894 6.5 9.66666 6.94772 9.66666 7.5V11H11.6667V7.5C11.6667 6.94772 12.1144 6.5 12.6667 6.5C13.2189 6.5 13.6667 6.94772 13.6667 7.5V11H15.6667V7.5C15.6667 6.94772 16.1144 6.5 16.6667 6.5C17.2189 6.5 17.6667 6.94772 17.6667 7.5V11H20.6667C21.2189 11 21.6667 11.4477 21.6667 12V16.9799C21.6669 16.9938 21.6669 17.0077 21.6667 17.0217V19H22.6667C23.2189 19 23.6667 19.4477 23.6667 20C23.6667 20.5523 23.2189 21 22.6667 21H2.66666C2.11437 21 1.66666 20.5523 1.66666 20C1.66666 19.4477 2.11437 19 2.66666 19H3.66666V17.0217C3.66636 17.0077 3.66636 16.9938 3.66666 16.9799V12C3.66666 11.4477 4.11437 11 4.66666 11H7.66666V7.5C7.66666 6.94772 8.11437 6.5 8.66666 6.5ZM5.66666 13V15.382L6.21944 15.1056C6.50097 14.9648 6.83234 14.9648 7.11387 15.1056L8.66666 15.882L10.2194 15.1056C10.501 14.9648 10.8323 14.9648 11.1139 15.1056L12.6667 15.882L14.2194 15.1056C14.501 14.9648 14.8323 14.9648 15.1139 15.1056L16.6667 15.882L18.2194 15.1056C18.501 14.9648 18.8323 14.9648 19.1139 15.1056L19.6667 15.382V13H5.66666ZM19.6667 17.618L18.6667 17.118L17.1139 17.8944C16.8323 18.0352 16.501 18.0352 16.2194 17.8944L14.6667 17.118L13.1139 17.8944C12.8323 18.0352 12.501 18.0352 12.2194 17.8944L10.6667 17.118L9.11387 17.8944C8.83234 18.0352 8.50097 18.0352 8.21944 17.8944L6.66666 17.118L5.66666 17.618V19H19.6667V17.618Z" fill="black" fill-opacity="0.85"/>
<path d="M5.66666 15.382V13H19.6667V15.382L19.1139 15.1056C18.8323 14.9648 18.501 14.9648 18.2194 15.1056L16.6667 15.882L15.1139 15.1056C14.8323 14.9648 14.501 14.9648 14.2194 15.1056L12.6667 15.882L11.1139 15.1056C10.8323 14.9648 10.501 14.9648 10.2194 15.1056L8.66666 15.882L7.11387 15.1056C6.83234 14.9648 6.50097 14.9648 6.21944 15.1056L5.66666 15.382Z" fill="url(#paint0_linear_437_1202)"/>
<path d="M18.6667 17.118L19.6667 17.618V19H5.66666V17.618L6.66666 17.118L8.21944 17.8944C8.50097 18.0352 8.83234 18.0352 9.11387 17.8944L10.6667 17.118L12.2194 17.8944C12.501 18.0352 12.8323 18.0352 13.1139 17.8944L14.6667 17.118L16.2194 17.8944C16.501 18.0352 16.8323 18.0352 17.1139 17.8944L18.6667 17.118Z" fill="url(#paint1_linear_437_1202)"/>
<defs>
<linearGradient id="paint0_linear_437_1202" x1="6.75233" y1="19.2529" x2="12.1259" y2="12.1486" gradientUnits="userSpaceOnUse">
<stop stop-color="#FAEFDB"/>
<stop offset="0.282494" stop-color="#90846D"/>
<stop offset="1" stop-color="#FFF4DE"/>
</linearGradient>
<linearGradient id="paint1_linear_437_1202" x1="6.75233" y1="19.2529" x2="12.1259" y2="12.1486" gradientUnits="userSpaceOnUse">
<stop stop-color="#FAEFDB"/>
<stop offset="0.282494" stop-color="#90846D"/>
<stop offset="1" stop-color="#FFF4DE"/>
</linearGradient>
</defs>
</svg>
