<svg width="17" height="16" viewBox="0 0 17 16" fill="none" xmlns="http://www.w3.org/2000/svg">
<path fill-rule="evenodd" clip-rule="evenodd" d="M7.32144 2.68571C7.84526 1.77143 9.15482 1.77143 9.67864 2.68571L14.9823 11.9429C15.5062 12.8571 14.8514 14 13.8037 14H3.19634C2.14869 14 1.49391 12.8571 2.01773 11.9429L7.32144 2.68571ZM9.16671 11.3333C9.16671 11.7015 8.86823 12 8.50004 12C8.13185 12 7.83337 11.7015 7.83337 11.3333C7.83337 10.9651 8.13185 10.6667 8.50004 10.6667C8.86823 10.6667 9.16671 10.9651 9.16671 11.3333ZM9.25004 5.33333C9.25004 4.91912 8.91425 4.58333 8.50004 4.58333C8.08583 4.58333 7.75004 4.91912 7.75004 5.33333V9.33333C7.75004 9.74755 8.08583 10.0833 8.50004 10.0833C8.91425 10.0833 9.25004 9.74755 9.25004 9.33333V5.33333Z" fill="#E80000"/>
</svg>
