<?xml version="1.0" encoding="utf-8"?>
<!-- Generator: Adobe Illustrator 22.0.1, SVG Export Plug-In . SVG Version: 6.00 Build 0)  -->
<svg version="1.1" id="圖層_1" xmlns="http://www.w3.org/2000/svg" xmlns:xlink="http://www.w3.org/1999/xlink" x="0px" y="0px"
	 viewBox="0 0 24 24" style="enable-background:new 0 0 24 24;" xml:space="preserve">
<style type="text/css">
	.st0{fill:#FFFFFF;}
	.st1{fill:#DFDFE6;}
	.st2{fill:#23262F;}
</style>
<circle class="st0" cx="11.9" cy="12.3" r="10.3"/>
<path class="st1" d="M12,22.8C6.1,22.8,1.2,17.9,1.2,12S6.1,1.2,12,1.2S22.8,6.1,22.8,12S17.9,22.8,12,22.8z M12,2.8
	c-5.1,0-9.2,4.2-9.2,9.2s4.2,9.2,9.2,9.2s9.2-4.1,9.2-9.2S17.1,2.8,12,2.8z"/>
<path class="st2" d="M9.2,15.6c-0.2,0-0.4-0.1-0.5-0.2c-0.3-0.3-0.3-0.8,0-1.1l5.7-5.7c0.3-0.3,0.8-0.3,1.1,0s0.3,0.8,0,1.1
	l-5.7,5.7C9.6,15.5,9.4,15.6,9.2,15.6z"/>
<path class="st2" d="M14.8,15.6c-0.2,0-0.4-0.1-0.5-0.2L8.6,9.7c-0.3-0.3-0.3-0.8,0-1.1s0.8-0.3,1.1,0l5.7,5.7
	c0.3,0.3,0.3,0.8,0,1.1C15.2,15.5,15,15.6,14.8,15.6z"/>
</svg>
