<svg width="30" height="30" viewBox="0 0 30 30" fill="none" xmlns="http://www.w3.org/2000/svg">
<path fill-rule="evenodd" clip-rule="evenodd" d="M5.5192 10.8227C5 11.7713 5 12.9155 5 15.2039V16.725C5 20.6258 5 22.5763 6.17157 23.7881C7.34315 25 9.22876 25 13 25H17C20.7712 25 22.6569 25 23.8284 23.7881C25 22.5763 25 20.6258 25 16.725V15.2039C25 12.9155 25 11.7713 24.4808 10.8227C23.9616 9.87421 23.0131 9.28551 21.116 8.10812L19.116 6.86687C17.1106 5.62229 16.1079 5 15 5C13.8921 5 12.8894 5.62229 10.884 6.86687L8.88403 8.10813C6.98695 9.28551 6.0384 9.87421 5.5192 10.8227ZM12 20.25C11.5858 20.25 11.25 20.5858 11.25 21C11.25 21.4142 11.5858 21.75 12 21.75H18C18.4142 21.75 18.75 21.4142 18.75 21C18.75 20.5858 18.4142 20.25 18 20.25H12Z" fill="#0352D5"/>
</svg>
