<svg width="30" height="30" viewBox="0 0 30 30" fill="none" xmlns="http://www.w3.org/2000/svg">
<path fill-rule="evenodd" clip-rule="evenodd" d="M5.79575 8.04479C6.12955 5.79836 7.92351 4 10.1994 4C11.5618 4 12.7661 4.65634 13.5728 5.66024C13.8354 5.98696 13.7827 6.46417 13.4552 6.72612C13.1278 6.98806 12.6494 6.93555 12.3869 6.60882C11.8376 5.92524 11.0532 5.51648 10.1994 5.51648C8.85593 5.51648 7.6458 6.55861 7.33621 8.05001C7.48619 8.06901 7.63199 8.13273 7.75214 8.24214C8.06216 8.52445 8.0841 9.00404 7.80115 9.31334L7.06125 10.1221C6.91725 10.2795 6.71351 10.3692 6.4999 10.3692C6.2863 10.3692 6.08256 10.2795 5.93856 10.1221L5.19866 9.31334C4.9157 9.00404 4.93764 8.52445 5.24766 8.24214C5.40297 8.10073 5.6011 8.03565 5.79575 8.04479ZM14.1401 7.23516C14.3537 7.23516 14.5574 7.32484 14.7014 7.48224L15.4413 8.29103C15.7243 8.60034 15.7024 9.07993 15.3923 9.36223C15.237 9.50365 15.0389 9.56873 14.8443 9.55959C14.5105 11.806 12.7165 13.6044 10.4406 13.6044C9.17342 13.6044 8.04151 13.036 7.2407 12.1479C6.95998 11.8366 6.98538 11.3572 7.29743 11.0771C7.60948 10.797 8.09001 10.8224 8.37073 11.1337C8.91177 11.7337 9.64527 12.0879 10.4406 12.0879C11.7841 12.0879 12.9942 11.0458 13.3038 9.55437C13.1538 9.53536 13.008 9.47164 12.8879 9.36223C12.5778 9.07993 12.5559 8.60034 12.8389 8.29103L13.5788 7.48224C13.7228 7.32484 13.9265 7.23516 14.1401 7.23516Z" fill="#596898"/>
<path fill-rule="evenodd" clip-rule="evenodd" d="M24 14.8682V18.9121C24 22.7248 24 24.6311 22.8128 25.8156C21.6256 27 19.7149 27 15.8933 27C12.0718 27 10.1611 27 8.97386 25.8156C7.78667 24.6311 7.78667 22.7248 7.78667 18.9121V17.1799C7.78667 16.9114 7.78667 16.7772 7.81208 16.6661C7.89869 16.2875 8.19503 15.9918 8.57452 15.9054C8.68583 15.8801 8.82055 15.8801 9.09 15.8801C10.7036 15.8801 11.5104 15.8801 12.1771 15.7286C14.4561 15.2106 16.2357 13.4351 16.7548 11.1615C16.9067 10.4963 16.9067 9.69232 16.9067 8.08431C16.9067 7.81756 16.9067 7.68418 16.9326 7.57196C17.0204 7.19252 17.3301 6.88975 17.7121 6.80987C17.8251 6.78625 17.9546 6.78886 18.2135 6.7941C20.5447 6.84125 21.895 7.04902 22.8128 7.96471C24 9.14915 24 11.0555 24 14.8682ZM12.8533 23.2088C12.4336 23.2088 12.0933 23.5482 12.0933 23.967C12.0933 24.3858 12.4336 24.7252 12.8533 24.7252H18.9333C19.3531 24.7252 19.6933 24.3858 19.6933 23.967C19.6933 23.5482 19.3531 23.2088 18.9333 23.2088H12.8533Z" fill="#596898"/>
</svg>
