<svg width="30" height="30" viewBox="0 0 30 30" fill="none" xmlns="http://www.w3.org/2000/svg">
<path d="M5 15.124C5 9.53269 9.47713 5 14.9999 5C20.5228 5 24.9999 9.53269 24.9999 15.124L24.9999 20.3675C25.0002 21.1844 25.0004 21.7446 24.8568 22.2364C24.576 23.1982 23.9046 23.9937 23.01 24.4245C22.5525 24.6449 22.0059 24.732 21.2088 24.8591L21.0789 24.8799C20.7954 24.9252 20.5532 24.9639 20.3522 24.9839C20.1431 25.0047 19.9299 25.0111 19.7118 24.9676C18.9942 24.8245 18.4024 24.3126 18.1508 23.6172C18.0744 23.4059 18.0474 23.1916 18.035 22.9793C18.0232 22.7753 18.0232 22.527 18.0232 22.2365L18.0231 18.0641C18.0226 17.6386 18.0222 17.2725 18.1195 16.959C18.3422 16.2416 18.9238 15.6975 19.6477 15.5292C19.9641 15.4556 20.3246 15.4849 20.7435 15.5189L20.8367 15.5264L20.9465 15.5352C21.7302 15.5975 22.2664 15.6402 22.7216 15.8106C23.0415 15.9304 23.3381 16.0953 23.6046 16.2976V15.124C23.6046 10.3129 19.7521 6.41266 14.9999 6.41266C10.2478 6.41266 6.39534 10.3129 6.39534 15.124V16.2976C6.66176 16.0953 6.95843 15.9304 7.27829 15.8106C7.73345 15.6402 8.26965 15.5975 9.05335 15.5352L9.16318 15.5264L9.25641 15.5189C9.67534 15.4849 10.0358 15.4556 10.3522 15.5292C11.0761 15.6975 11.6577 16.2416 11.8804 16.959C11.9777 17.2725 11.9773 17.6386 11.9768 18.0641L11.9767 22.2365C11.9767 22.527 11.9767 22.7753 11.9649 22.9793C11.9525 23.1916 11.9255 23.4059 11.8491 23.6172C11.5975 24.3126 11.0057 24.8245 10.2881 24.9676C10.07 25.0111 9.85675 25.0047 9.64768 24.9839C9.44671 24.9639 9.20449 24.9252 8.92102 24.8799L8.79106 24.8591C7.99399 24.732 7.44737 24.6449 6.98991 24.4245C6.09534 23.9937 5.42388 23.1982 5.14308 22.2364C5.02467 21.8309 5.00404 21.3788 5.0006 20.7747L5 20.5803V15.124Z" fill="#596898"/>
<path fill-rule="evenodd" clip-rule="evenodd" d="M14.9999 8.75C15.4142 8.75 15.7499 9.08579 15.7499 9.5L15.7499 14.5C15.7499 14.9142 15.4142 15.25 14.9999 15.25C14.5857 15.25 14.2499 14.9142 14.2499 14.5L14.2499 9.5C14.2499 9.08579 14.5857 8.75 14.9999 8.75Z" fill="#596898"/>
<path fill-rule="evenodd" clip-rule="evenodd" d="M17.9999 10.25C18.4142 10.25 18.7499 10.5858 18.7499 11V13C18.7499 13.4142 18.4142 13.75 17.9999 13.75C17.5857 13.75 17.2499 13.4142 17.2499 13V11C17.2499 10.5858 17.5857 10.25 17.9999 10.25Z" fill="#596898"/>
<path fill-rule="evenodd" clip-rule="evenodd" d="M11.9999 10.25C12.4142 10.25 12.7499 10.5858 12.7499 11L12.7499 13C12.7499 13.4142 12.4142 13.75 11.9999 13.75C11.5857 13.75 11.2499 13.4142 11.2499 13L11.2499 11C11.2499 10.5858 11.5857 10.25 11.9999 10.25Z" fill="#596898"/>
</svg>
