<svg width="30" height="30" viewBox="0 0 30 30" fill="none" xmlns="http://www.w3.org/2000/svg">
<path d="M14.2498 5C10.0314 5.00411 7.84888 5.07958 6.46423 6.46423C5.07958 7.84888 5.00411 10.0314 5 14.2498H9.91352C9.56255 13.8114 9.30031 13.2943 9.15731 12.7223C8.61906 10.5693 10.5693 8.61906 12.7223 9.15731C13.2943 9.30031 13.8114 9.56255 14.2498 9.91352V5Z" fill="#596898"/>
<path d="M5 15.7498C5.00411 19.9681 5.07958 22.1506 6.46423 23.5353C7.84888 24.9199 10.0314 24.9954 14.2498 24.9995V17.1234C13.4701 18.6807 11.8598 19.7498 9.99976 19.7498C9.58555 19.7498 9.24976 19.414 9.24976 18.9998C9.24976 18.5856 9.58555 18.2498 9.99976 18.2498C11.5366 18.2498 12.8242 17.1831 13.1628 15.7498H5Z" fill="#596898"/>
<path d="M15.7498 24.9995C19.9681 24.9954 22.1506 24.9199 23.5353 23.5353C24.9199 22.1506 24.9954 19.9681 24.9995 15.7498H16.8367C17.1753 17.1831 18.463 18.2498 19.9998 18.2498C20.414 18.2498 20.7498 18.5856 20.7498 18.9998C20.7498 19.414 20.414 19.7498 19.9998 19.7498C18.1397 19.7498 16.5294 18.6807 15.7498 17.1234V24.9995Z" fill="#596898"/>
<path d="M24.9995 14.2498C24.9954 10.0314 24.9199 7.84888 23.5353 6.46423C22.1506 5.07958 19.9681 5.00411 15.7498 5V9.91352C16.1882 9.56255 16.7053 9.30031 17.2772 9.15731C19.4303 8.61906 21.3805 10.5693 20.8422 12.7223C20.6992 13.2943 20.437 13.8114 20.086 14.2498H24.9995Z" fill="#596898"/>
<path d="M12.3585 10.6125C13.47 10.8904 14.2498 11.8891 14.2498 13.0348V14.2498H13.0348C11.8891 14.2498 10.8904 13.47 10.6125 12.3585C10.3489 11.304 11.304 10.3489 12.3585 10.6125Z" fill="#596898"/>
<path d="M15.7498 13.0348V14.2498H16.9647C18.1104 14.2498 19.1091 13.47 19.387 12.3585C19.6506 11.304 18.6955 10.3489 17.6411 10.6125C16.5295 10.8904 15.7498 11.8891 15.7498 13.0348Z" fill="#596898"/>
</svg>
