<svg width="21" height="20" viewBox="0 0 21 20" fill="none" xmlns="http://www.w3.org/2000/svg">
<path d="M3.83337 11.6667C3.83337 10.2083 4.1806 8.90972 4.87504 7.77083C5.56949 6.63194 6.33337 5.67361 7.16671 4.89583C8.00004 4.11806 8.76393 3.52417 9.45837 3.11417L10.5 2.5V5.25C10.5 5.76389 10.6737 6.17 11.0209 6.46833C11.3681 6.76722 11.757 6.91667 12.1875 6.91667C12.4237 6.91667 12.6495 6.86806 12.865 6.77083C13.08 6.67361 13.2778 6.51389 13.4584 6.29167L13.8334 5.83333C14.8334 6.41667 15.6389 7.22556 16.25 8.26C16.8612 9.295 17.1667 10.4306 17.1667 11.6667C17.1667 12.8889 16.8681 14.0033 16.2709 15.01C15.6737 16.0172 14.8889 16.8125 13.9167 17.3958C14.1528 17.0625 14.337 16.6978 14.4692 16.3017C14.6009 15.9061 14.6667 15.4861 14.6667 15.0417C14.6667 14.4861 14.5625 13.9619 14.3542 13.4692C14.1459 12.9758 13.8473 12.5347 13.4584 12.1458L10.5 9.25L7.56254 12.1458C7.15976 12.5486 6.85421 12.9931 6.64587 13.4792C6.43754 13.9653 6.33337 14.4861 6.33337 15.0417C6.33337 15.4861 6.39949 15.9061 6.53171 16.3017C6.66337 16.6978 6.84726 17.0625 7.08337 17.3958C6.11115 16.8125 5.32643 16.0172 4.72921 15.01C4.13198 14.0033 3.83337 12.8889 3.83337 11.6667ZM10.5 11.5833L12.2709 13.3125C12.507 13.5486 12.6875 13.8125 12.8125 14.1042C12.9375 14.3958 13 14.7083 13 15.0417C13 15.7222 12.757 16.3019 12.2709 16.7808C11.7848 17.2603 11.1945 17.5 10.5 17.5C9.8056 17.5 9.21532 17.2603 8.72921 16.7808C8.2431 16.3019 8.00004 15.7222 8.00004 15.0417C8.00004 14.7222 8.06254 14.4133 8.18754 14.115C8.31254 13.8161 8.4931 13.5486 8.72921 13.3125L10.5 11.5833Z" fill="url(#paint0_linear_117_70)"/>
<defs>
<linearGradient id="paint0_linear_117_70" x1="10.5" y1="2.5" x2="10.5" y2="17.5" gradientUnits="userSpaceOnUse">
<stop stop-color="#596898"/>
<stop offset="1" stop-color="#535663"/>
</linearGradient>
</defs>
</svg>
