<svg width="19" height="20" viewBox="0 0 19 20" fill="none" xmlns="http://www.w3.org/2000/svg">
<g clip-path="url(#clip0_512_1592)">
<path d="M19 14.75C19 15.3099 18.7776 15.8469 18.3817 16.2428C17.9858 16.6387 17.4488 16.8611 16.8889 16.8611H2.11111C1.55121 16.8611 1.01424 16.6387 0.61833 16.2428C0.22242 15.8469 0 15.3099 0 14.75V5.25003C0 4.69013 0.22242 4.15316 0.61833 3.75725C1.01424 3.36134 1.55121 3.13892 2.11111 3.13892H16.8889C17.4488 3.13892 17.9858 3.36134 18.3817 3.75725C18.7776 4.15316 19 4.69013 19 5.25003V14.75Z" fill="#58658E"/>
<path d="M5.80561 13.1667C5.80561 14.3325 5.38814 14.75 4.22228 14.75H2.11117C0.945304 14.75 0.527832 14.3325 0.527832 13.1667V6.83333C0.527832 5.66747 0.945304 5.25 2.11117 5.25H4.22228C5.38814 5.25 5.80561 5.66747 5.80561 6.83333V13.1667ZM12.1389 13.1667C12.1389 14.3325 11.7215 14.75 10.5556 14.75H8.4445C7.27864 14.75 6.86117 14.3325 6.86117 13.1667V6.83333C6.86117 5.66747 7.27864 5.25 8.4445 5.25H10.5556C11.7215 5.25 12.1389 5.66747 12.1389 6.83333V13.1667ZM18.4723 13.1667C18.4723 14.3325 18.0548 14.75 16.8889 14.75H14.7778C13.612 14.75 13.1945 14.3325 13.1945 13.1667V6.83333C13.1945 5.66747 13.612 5.25 14.7778 5.25H16.8889C18.0548 5.25 18.4723 5.66747 18.4723 6.83333V13.1667Z" fill="white"/>
<path d="M0.527832 7.36108H5.80561V12.6389H0.527832V7.36108ZM6.86117 7.36108H12.1389V12.6389H6.86117V7.36108ZM13.1945 7.36108H18.4723V12.6389H13.1945V7.36108Z" fill="#F2F8FF"/>
<path d="M16.2529 8.77822H14.7667C14.4532 8.77822 14.3376 8.57502 14.3376 8.37763C14.3376 8.17444 14.4479 7.97705 14.7667 7.97705H16.8688C17.1649 7.97705 17.2868 8.24411 17.2868 8.39505C17.2868 8.51116 17.223 8.63308 17.1533 8.77822L15.713 11.7047C15.5504 12.0293 15.4866 12.146 15.2248 12.146C14.906 12.146 14.7435 11.9016 14.7435 11.7338C14.7435 11.6636 14.7609 11.6113 14.801 11.5306L16.2529 8.77822ZM9.91958 8.77822H8.43335C8.11985 8.77822 8.00374 8.57502 8.00374 8.37763C8.00374 8.17444 8.11405 7.97705 8.43335 7.97705H10.5355C10.8316 7.97705 10.9535 8.24411 10.9535 8.39505C10.9535 8.51116 10.8896 8.63308 10.82 8.77822L9.37966 11.7047C9.2171 12.0293 9.15324 12.146 8.89199 12.146C8.57269 12.146 8.41013 11.9016 8.41013 11.7338C8.41013 11.6636 8.42755 11.6113 8.46819 11.5306L9.91958 8.77822ZM3.58624 8.77822H2.10002C1.78652 8.77822 1.67041 8.57502 1.67041 8.37763C1.67041 8.17444 1.78072 7.97705 2.10002 7.97705H4.20216C4.49824 7.97705 4.62016 8.24411 4.62016 8.39505C4.62016 8.51116 4.5563 8.63308 4.48663 8.77822L3.04633 11.7047C2.88377 12.0293 2.81991 12.146 2.55866 12.146C2.23935 12.146 2.0768 11.9016 2.0768 11.7338C2.0768 11.6636 2.09422 11.6113 2.13485 11.5306L3.58624 8.77822Z" fill="#596898"/>
</g>
<defs>
<clipPath id="clip0_512_1592">
<rect width="19" height="19" fill="white" transform="translate(0 0.5)"/>
</clipPath>
</defs>
</svg>
