<svg width="21" height="20" viewBox="0 0 21 20" fill="none" xmlns="http://www.w3.org/2000/svg">
<path d="M10.5 2C8.37827 2 6.34344 2.84285 4.84315 4.34315C3.34285 5.84344 2.5 7.87827 2.5 10C2.5 12.1217 3.34285 14.1566 4.84315 15.6569C6.34344 17.1571 8.37827 18 10.5 18C12.6217 18 14.6566 17.1571 16.1569 15.6569C17.6571 14.1566 18.5 12.1217 18.5 10C18.5 7.87827 17.6571 5.84344 16.1569 4.34315C14.6566 2.84285 12.6217 2 10.5 2ZM7.592 3.63L10.002 5.036V6.736L7.233 8.688L5.673 8.121L5.047 5.609C5.73045 4.76096 6.60172 4.08346 7.592 3.63ZM3.534 10.692L5.361 9.072L6.907 9.633L7.952 12.923L7.235 13.996H4.752C4.0695 13.0173 3.65008 11.8795 3.534 10.692ZM8.873 16.81L8.058 14.564L8.768 13.501H12.235L12.946 14.564L12.131 16.809C11.06 17.0647 9.94395 17.0657 8.873 16.81ZM16.248 13.996H13.77L13.05 12.921L14.075 9.634L15.642 9.07L17.466 10.692C17.3499 11.8795 16.9305 13.0173 16.248 13.996ZM15.958 5.616L15.332 8.119L13.748 8.689L11.001 6.737V5.037L13.41 3.63C14.402 4.08475 15.2744 4.76439 15.958 5.615V5.616Z" fill="url(#paint0_linear_117_82)"/>
<defs>
<linearGradient id="paint0_linear_117_82" x1="10.5" y1="2" x2="10.5" y2="18" gradientUnits="userSpaceOnUse">
<stop stop-color="#FFF1DD"/>
<stop offset="1" stop-color="#FF9900"/>
</linearGradient>
</defs>
</svg>
