<svg width="21" height="20" viewBox="0 0 21 20" fill="none" xmlns="http://www.w3.org/2000/svg">
<path d="M8.12168 10.2442C7.80905 9.93157 7.63342 9.50756 7.63342 9.06544C7.63342 8.62332 7.80905 8.19932 8.12168 7.88669C8.4343 7.57407 8.85831 7.39844 9.30043 7.39844C9.74254 7.39844 10.1666 7.57407 10.4792 7.88669L10.5 7.90836L10.5208 7.88669C10.6756 7.7319 10.8594 7.60911 11.0617 7.52533C11.2639 7.44156 11.4807 7.39844 11.6996 7.39844C11.9185 7.39844 12.1353 7.44156 12.3375 7.52533C12.5398 7.60911 12.7235 7.7319 12.8783 7.88669C13.0331 8.04149 13.1559 8.22526 13.2397 8.42751C13.3235 8.62976 13.3666 8.84653 13.3666 9.06544C13.3666 9.28436 13.3235 9.50113 13.2397 9.70338C13.1559 9.90563 13.0331 10.0894 12.8783 10.2442L10.5208 12.6009L10.5 12.58L10.4792 12.6009L8.12168 10.2442Z" fill="url(#paint0_linear_117_75)"/>
<path fill-rule="evenodd" clip-rule="evenodd" d="M3 3.33325C3 2.67021 3.26339 2.03433 3.73223 1.56549C4.20107 1.09664 4.83696 0.833252 5.5 0.833252H15.5C16.163 0.833252 16.7989 1.09664 17.2678 1.56549C17.7366 2.03433 18 2.67021 18 3.33325V16.6666C18 17.3296 17.7366 17.9655 17.2678 18.4344C16.7989 18.9032 16.163 19.1666 15.5 19.1666H5.5C4.83696 19.1666 4.20107 18.9032 3.73223 18.4344C3.26339 17.9655 3 17.3296 3 16.6666V3.33325ZM5.5 2.49992H15.5C15.721 2.49992 15.933 2.58772 16.0893 2.744C16.2455 2.90028 16.3333 3.11224 16.3333 3.33325V16.6666C16.3333 16.8876 16.2455 17.0996 16.0893 17.2558C15.933 17.4121 15.721 17.4999 15.5 17.4999H5.5C5.27899 17.4999 5.06702 17.4121 4.91074 17.2558C4.75446 17.0996 4.66667 16.8876 4.66667 16.6666V3.33325C4.66667 3.11224 4.75446 2.90028 4.91074 2.744C5.06702 2.58772 5.27899 2.49992 5.5 2.49992Z" fill="url(#paint1_linear_117_75)"/>
<defs>
<linearGradient id="paint0_linear_117_75" x1="10.5" y1="7.39844" x2="10.5" y2="12.6009" gradientUnits="userSpaceOnUse">
<stop stop-color="#596898"/>
<stop offset="1" stop-color="#535663"/>
</linearGradient>
<linearGradient id="paint1_linear_117_75" x1="10.5" y1="0.833252" x2="10.5" y2="19.1666" gradientUnits="userSpaceOnUse">
<stop stop-color="#596898"/>
<stop offset="1" stop-color="#535663"/>
</linearGradient>
</defs>
</svg>
