<?xml version="1.0" encoding="utf-8"?>
<!-- Generator: Adobe Illustrator 24.3.0, SVG Export Plug-In . SVG Version: 6.00 Build 0)  -->
<svg version="1.1" id="圖層_1" xmlns="http://www.w3.org/2000/svg" xmlns:xlink="http://www.w3.org/1999/xlink" x="0px" y="0px"
	 viewBox="0 0 15 16" style="enable-background:new 0 0 15 16;" xml:space="preserve">
<style type="text/css">
	.st0{fill:url(#SVGID_1_);}
</style>
<linearGradient id="SVGID_1_" gradientUnits="userSpaceOnUse" x1="7.5" y1="13.6771" x2="7.5" y2="2.1024" gradientTransform="matrix(1 0 0 -1 0 15.8898)">
	<stop  offset="0" style="stop-color:#596898"/>
	<stop  offset="1" style="stop-color:#535663"/>
</linearGradient>
<path class="st0" d="M12,2.2H3c-0.7,0-1.3,0.6-1.3,1.3v9c0,0.7,0.6,1.3,1.3,1.3h9c0.7,0,1.3-0.6,1.3-1.3v-9
	C13.3,2.8,12.7,2.2,12,2.2z M4.6,11.9c-0.5,0-1-0.4-1-1c0-0.5,0.4-1,1-1s1,0.4,1,1C5.6,11.4,5.1,11.9,4.6,11.9z M4.6,6.1
	c-0.5,0-1-0.4-1-1s0.4-1,1-1s1,0.4,1,1S5.1,6.1,4.6,6.1z M7.5,9c-0.5,0-1-0.4-1-1s0.4-1,1-1s1,0.4,1,1S8,9,7.5,9z M10.4,11.9
	c-0.5,0-1-0.4-1-1c0-0.5,0.4-1,1-1c0.5,0,1,0.4,1,1C11.4,11.4,10.9,11.9,10.4,11.9z M10.4,6.1c-0.5,0-1-0.4-1-1s0.4-1,1-1
	c0.5,0,1,0.4,1,1S10.9,6.1,10.4,6.1z"/>
</svg>
