<svg width="16" height="16" viewBox="0 0 16 16" fill="none" xmlns="http://www.w3.org/2000/svg">
<path d="M5.33333 6V4.66667C5.33333 3.19391 6.52724 2 7.99999 2V2C9.47275 2 10.6667 3.19391 10.6667 4.66667V6" stroke="white" stroke-width="1.2" stroke-linecap="round"/>
<path fill-rule="evenodd" clip-rule="evenodd" d="M2 8C2 6.89543 2.89543 6 4 6H12C13.1046 6 14 6.89543 14 8V12C14 13.1046 13.1046 14 12 14H4C2.89543 14 2 13.1046 2 12V8ZM8.732 9.83592C8.8303 9.69302 8.88785 9.51989 8.88785 9.33333C8.88785 8.84298 8.49034 8.44548 7.99999 8.44548C7.50965 8.44548 7.11214 8.84298 7.11214 9.33333C7.11214 9.5199 7.16969 9.69303 7.268 9.83593C7.25622 9.88874 7.25 9.94364 7.25 10V11.3333C7.25 11.7475 7.58579 12.0833 8 12.0833C8.41421 12.0833 8.75 11.7475 8.75 11.3333V10C8.75 9.94364 8.74378 9.88873 8.732 9.83592Z" fill="white"/>
</svg>
