<svg width="24" height="24" viewBox="0 0 24 24" fill="none" xmlns="http://www.w3.org/2000/svg">
<path fill-rule="evenodd" clip-rule="evenodd" d="M1 12C1 5.92487 5.92487 1 12 1C18.0751 1 23 5.92487 23 12C23 18.0751 18.0751 23 12 23C5.92487 23 1 18.0751 1 12ZM14.1568 6.29289C13.7663 5.90237 13.1331 5.90237 12.7426 6.29289C12.3521 6.68342 12.3521 7.31658 12.7426 7.70711C13.8295 8.79399 14.5 10.2926 14.5 11.9497C14.5 13.6069 13.8295 15.1055 12.7426 16.1924C12.3521 16.5829 12.3521 17.2161 12.7426 17.6066C13.1331 17.9971 13.7663 17.9971 14.1568 17.6066C15.6034 16.16 16.5 14.1586 16.5 11.9497C16.5 9.74088 15.6034 7.73951 14.1568 6.29289ZM10.2677 8.76778C10.6583 8.37725 11.2914 8.37725 11.682 8.76778C12.4952 9.58102 13 10.7074 13 11.9498C13 13.1921 12.4952 14.3185 11.682 15.1317C11.2914 15.5223 10.6583 15.5223 10.2677 15.1317C9.87722 14.7412 9.87722 14.108 10.2677 13.7175C10.7213 13.264 11 12.6404 11 11.9498C11 11.2591 10.7213 10.6355 10.2677 10.182C9.87722 9.79147 9.87722 9.1583 10.2677 8.76778ZM9.5 11.9497C9.5 12.502 9.05228 12.9497 8.5 12.9497C7.94772 12.9497 7.5 12.502 7.5 11.9497C7.5 11.3975 7.94772 10.9497 8.5 10.9497C9.05228 10.9497 9.5 11.3975 9.5 11.9497Z" fill="url(#paint0_linear_401_434)"/>
<defs>
<linearGradient id="paint0_linear_401_434" x1="2.70605" y1="23.9272" x2="20.2707" y2="13.9749" gradientUnits="userSpaceOnUse">
<stop stop-color="#FAEFDB"/>
<stop offset="0.282494" stop-color="#90846D"/>
<stop offset="1" stop-color="#FFF4DE"/>
</linearGradient>
</defs>
</svg>
