<svg width="24" height="24" viewBox="0 0 24 24" fill="none" xmlns="http://www.w3.org/2000/svg">
<rect x="5.67798" y="5.49997" width="15.6102" height="10.8644" rx="1.5" stroke="url(#paint0_linear_377_454)"/>
<rect x="2.71191" y="7.63556" width="15.6102" height="10.8644" rx="1.5" fill="url(#paint1_linear_377_454)" stroke="url(#paint2_linear_377_454)"/>
<path d="M10.4234 16.8449C10.2826 16.8449 10.1636 16.7952 10.0665 16.6959C9.96935 16.5966 9.92079 16.4724 9.92079 16.3234V15.7722L10.1393 15.9733C9.81395 15.9584 9.53229 15.9162 9.29433 15.8467C9.05637 15.7772 8.86212 15.7076 8.71158 15.6381C8.58531 15.5785 8.49547 15.4941 8.44205 15.3848C8.39349 15.2756 8.37406 15.1638 8.38378 15.0496C8.39834 14.9354 8.43962 14.8311 8.50761 14.7367C8.5756 14.6424 8.66301 14.5803 8.76985 14.5505C8.88155 14.5157 9.01024 14.5306 9.15593 14.5952C9.25305 14.6498 9.39874 14.7069 9.59299 14.7665C9.7921 14.8212 10.0373 14.8485 10.3287 14.8485C10.5327 14.8485 10.6929 14.8286 10.8095 14.7889C10.9309 14.7492 11.0159 14.697 11.0644 14.6325C11.1179 14.5629 11.1446 14.4884 11.1446 14.409C11.1446 14.3345 11.1251 14.2724 11.0863 14.2227C11.0523 14.1681 10.994 14.1209 10.9115 14.0812C10.8289 14.0365 10.7148 13.9968 10.5691 13.962L9.74596 13.7832C9.29433 13.6789 8.95682 13.5051 8.73343 13.2618C8.5149 13.0135 8.40563 12.6932 8.40563 12.3008C8.40563 12.0029 8.47605 11.7372 8.61688 11.5038C8.76257 11.2654 8.9641 11.0717 9.22149 10.9227C9.48372 10.7737 9.78967 10.6794 10.1393 10.6396L9.92079 10.7663V10.2672C9.92079 10.1182 9.96935 9.99404 10.0665 9.89471C10.1636 9.79539 10.2826 9.74573 10.4234 9.74573C10.5691 9.74573 10.6905 9.79539 10.7876 9.89471C10.8848 9.99404 10.9333 10.1182 10.9333 10.2672V10.7663L10.7148 10.6247C10.8993 10.6297 11.0984 10.662 11.3121 10.7216C11.5258 10.7762 11.7128 10.8532 11.873 10.9525C11.9847 11.0121 12.0624 11.094 12.1061 11.1983C12.1547 11.3026 12.1717 11.4094 12.1571 11.5187C12.1474 11.6229 12.1085 11.7173 12.0406 11.8017C11.9774 11.8862 11.89 11.9433 11.7783 11.9731C11.6715 11.9979 11.5428 11.978 11.3922 11.9135C11.2806 11.8638 11.1543 11.8241 11.0135 11.7943C10.8775 11.7595 10.7027 11.7421 10.489 11.7421C10.2316 11.7421 10.0325 11.7893 9.89165 11.8837C9.75568 11.978 9.68769 12.0997 9.68769 12.2487C9.68769 12.348 9.72654 12.4324 9.80424 12.502C9.8868 12.5665 10.0349 12.6236 10.2486 12.6733L11.079 12.8595C11.5404 12.9638 11.8803 13.1376 12.0988 13.381C12.3222 13.6193 12.4339 13.9297 12.4339 14.3121C12.4339 14.6101 12.3635 14.8733 12.2227 15.1018C12.0818 15.3302 11.8852 15.5164 11.6326 15.6605C11.385 15.8045 11.096 15.8988 10.7658 15.9435L10.9333 15.7647V16.3234C10.9333 16.4724 10.8848 16.5966 10.7876 16.6959C10.6954 16.7952 10.574 16.8449 10.4234 16.8449Z" fill="#2E3252"/>
<defs>
<linearGradient id="paint0_linear_377_454" x1="6.46606" y1="17.3644" x2="17.2189" y2="8.83474" gradientUnits="userSpaceOnUse">
<stop stop-color="#FAEFDB"/>
<stop offset="0.282494" stop-color="#90846D"/>
<stop offset="1" stop-color="#FFF4DE"/>
</linearGradient>
<linearGradient id="paint1_linear_377_454" x1="3.5" y1="19.5" x2="14.2528" y2="10.9703" gradientUnits="userSpaceOnUse">
<stop stop-color="#FAEFDB"/>
<stop offset="0.282494" stop-color="#90846D"/>
<stop offset="1" stop-color="#FFF4DE"/>
</linearGradient>
<linearGradient id="paint2_linear_377_454" x1="3.5" y1="19.5" x2="14.2528" y2="10.9703" gradientUnits="userSpaceOnUse">
<stop stop-color="#FAEFDB"/>
<stop offset="0.282494" stop-color="#90846D"/>
<stop offset="1" stop-color="#FFF4DE"/>
</linearGradient>
</defs>
</svg>
