<svg width="24" height="25" viewBox="0 0 24 25" fill="none" xmlns="http://www.w3.org/2000/svg">
<path d="M11.5 6.90625C11.5 5.59216 10.3958 4.5 9 4.5H3.5C2.39543 4.5 1.5 5.39543 1.5 6.5V18.5C1.5 19.6046 2.39543 20.5 3.5 20.5H9C10.0164 20.5 10.8911 21.1065 11.282 21.9774C11.413 22.2694 11.68 22.5 12 22.5C12.32 22.5 12.587 22.2694 12.718 21.9774C13.1089 21.1065 13.9836 20.5 15 20.5H20.5C21.6046 20.5 22.5 19.6046 22.5 18.5V6.5C22.5 5.39543 21.6046 4.5 20.5 4.5H15C13.6042 4.5 12.5 5.59216 12.5 6.90625V18.5C12.5 18.7761 12.2761 19 12 19C11.7239 19 11.5 18.7761 11.5 18.5V6.90625Z" fill="url(#paint0_linear_498_1973)"/>
<defs>
<linearGradient id="paint0_linear_498_1973" x1="13.7927" y1="13.9286" x2="22.1692" y2="7.07897" gradientUnits="userSpaceOnUse">
<stop stop-color="#90846D"/>
<stop offset="1" stop-color="#ECDCBB"/>
</linearGradient>
</defs>
</svg>
