<svg width="102" height="101" viewBox="0 0 102 101" fill="none" xmlns="http://www.w3.org/2000/svg">
<path d="M54.7582 86.2495C77.9683 86.2495 96.7838 67.434 96.7838 44.2239C96.7838 21.0139 77.9683 2.19836 54.7582 2.19836C31.5482 2.19836 12.7327 21.0139 12.7327 44.2239C12.7327 67.434 31.5482 86.2495 54.7582 86.2495Z" fill="url(#paint0_linear_355_394)"/>
<path d="M77.4309 11.9775H30.8754C27.9735 11.9775 25.6211 14.33 25.6211 17.2318H82.6852C82.6852 14.33 80.3327 11.9775 77.4309 11.9775Z" fill="url(#paint1_linear_355_394)"/>
<path d="M25.6211 17.0883H82.6852V60.5492C82.6852 62.4815 81.9175 64.3347 80.5512 65.701C79.1849 67.0673 77.3317 67.8349 75.3994 67.8349H32.9068C30.9745 67.8349 29.1214 67.0673 27.755 65.701C26.3887 64.3347 25.6211 62.4815 25.6211 60.5492V17.0883Z" fill="url(#paint2_linear_355_394)"/>
<path d="M72.8761 22.5778H35.4484C34.669 22.5778 34.0371 23.2089 34.0371 23.9876C34.0371 24.7662 34.669 25.3974 35.4484 25.3974H72.8761C73.6556 25.3974 74.2874 24.7662 74.2874 23.9876C74.2874 23.2089 73.6556 22.5778 72.8761 22.5778Z" fill="url(#paint3_linear_355_394)"/>
<path d="M72.8761 34.5571H35.4484C34.669 34.5571 34.0371 35.1883 34.0371 35.9669C34.0371 36.7455 34.669 37.3767 35.4484 37.3767H72.8761C73.6556 37.3767 74.2874 36.7455 74.2874 35.9669C74.2874 35.1883 73.6556 34.5571 72.8761 34.5571Z" fill="url(#paint4_linear_355_394)"/>
<path d="M72.8761 46.5365H35.4484C34.669 46.5365 34.0371 47.1677 34.0371 47.9463C34.0371 48.7249 34.669 49.3561 35.4484 49.3561H72.8761C73.6556 49.3561 74.2874 48.7249 74.2874 47.9463C74.2874 47.1677 73.6556 46.5365 72.8761 46.5365Z" fill="url(#paint5_linear_355_394)"/>
<path d="M72.8761 58.5159H35.4484C34.669 58.5159 34.0371 59.1471 34.0371 59.9257C34.0371 60.7043 34.669 61.3355 35.4484 61.3355H72.8761C73.6556 61.3355 74.2874 60.7043 74.2874 59.9257C74.2874 59.1471 73.6556 58.5159 72.8761 58.5159Z" fill="url(#paint6_linear_355_394)"/>
<g filter="url(#filter0_d_355_394)">
<path d="M35.1949 43.967H15.2652C13.6641 43.967 12.3662 45.265 12.3662 46.8661V75.3523C12.3662 76.9534 13.6641 78.2513 15.2652 78.2513H35.1949C36.796 78.2513 38.0939 76.9534 38.0939 75.3523V46.8661C38.0939 45.265 36.796 43.967 35.1949 43.967Z" fill="url(#paint7_linear_355_394)"/>
</g>
<path d="M32.9712 58.2178H17.4894C16.968 58.2178 16.5454 58.6404 16.5454 59.1617V59.1648C16.5454 59.6861 16.968 60.1087 17.4894 60.1087H32.9712C33.4925 60.1087 33.9151 59.6861 33.9151 59.1648V59.1617C33.9151 58.6404 33.4925 58.2178 32.9712 58.2178Z" fill="white"/>
<path d="M32.9799 71.5233H17.6311C17.1143 71.5233 16.6953 71.9328 16.6953 72.4378V72.4408C16.6953 72.9458 17.1143 73.3553 17.6311 73.3553H32.9799C33.4968 73.3553 33.9158 72.9458 33.9158 72.4408V72.4378C33.9158 71.9328 33.4968 71.5233 32.9799 71.5233Z" fill="white"/>
<path d="M32.9799 64.5619H17.6311C17.1143 64.5619 16.6953 64.9713 16.6953 65.4764V65.4794C16.6953 65.9844 17.1143 66.3939 17.6311 66.3939H32.9799C33.4968 66.3939 33.9158 65.9844 33.9158 65.4794V65.4764C33.9158 64.9713 33.4968 64.5619 32.9799 64.5619Z" fill="white"/>
<path d="M23.15 48.366H18.6258C17.6237 48.366 16.8113 49.1784 16.8113 50.1805V51.4361C16.8113 52.4382 17.6237 53.2506 18.6258 53.2506H23.15C24.1522 53.2506 24.9646 52.4382 24.9646 51.4361V50.1805C24.9646 49.1784 24.1522 48.366 23.15 48.366Z" fill="#DFE6F3"/>
<path d="M82.9632 59.5655L77.5552 65.5276L92.7988 79.3545L98.2068 73.3924L82.9632 59.5655Z" fill="url(#paint8_linear_355_394)"/>
<path fill-rule="evenodd" clip-rule="evenodd" d="M88.6783 49.6973C88.6783 62.1703 78.567 72.2816 66.0941 72.2816C53.6211 72.2816 43.5098 62.1703 43.5098 49.6973C43.5098 37.2244 53.6211 27.113 66.0941 27.113C78.567 27.113 88.6783 37.2244 88.6783 49.6973ZM85.2141 49.6973C85.2141 60.2571 76.6538 68.8175 66.094 68.8175C55.5343 68.8175 46.9739 60.2571 46.9739 49.6973C46.9739 39.1376 55.5343 30.5772 66.094 30.5772C76.6538 30.5772 85.2141 39.1376 85.2141 49.6973Z" fill="url(#paint9_linear_355_394)"/>
<g filter="url(#filter1_b_355_394)">
<path d="M66.094 68.8175C76.6538 68.8175 85.2141 60.2572 85.2141 49.6974C85.2141 39.1376 76.6538 30.5773 66.094 30.5773C55.5342 30.5773 46.9739 39.1376 46.9739 49.6974C46.9739 60.2572 55.5342 68.8175 66.094 68.8175Z" fill="url(#paint10_linear_355_394)" fill-opacity="0.2"/>
</g>
<path d="M70.6884 49.6973L76.1566 44.217C76.6688 43.6748 76.9495 42.9542 76.939 42.2084C76.9284 41.4626 76.6274 40.7503 76.1 40.2229C75.5725 39.6954 74.8602 39.3944 74.1144 39.3839C73.3686 39.3733 72.648 39.654 72.1059 40.1663L66.6255 45.6466L61.1574 40.1663C60.8943 39.8878 60.578 39.6649 60.2272 39.5108C59.8764 39.3567 59.4983 39.2745 59.1152 39.2691C58.7322 39.2637 58.3519 39.3351 57.9969 39.4792C57.6419 39.6233 57.3194 39.8372 57.0485 40.1081C56.7776 40.379 56.5637 40.7015 56.4196 41.0564C56.2755 41.4114 56.2041 41.7917 56.2095 42.1748C56.2149 42.5579 56.2971 42.936 56.4512 43.2868C56.6053 43.6375 56.8282 43.9538 57.1067 44.217L62.584 49.6973L57.1067 55.1777C56.8282 55.4408 56.6053 55.7571 56.4512 56.1079C56.2971 56.4586 56.2149 56.8367 56.2095 57.2198C56.2041 57.6029 56.2755 57.9832 56.4196 58.3382C56.5637 58.6932 56.7776 59.0157 57.0485 59.2866C57.3194 59.5575 57.6419 59.7713 57.9969 59.9154C58.3519 60.0595 58.7322 60.131 59.1152 60.1255C59.4983 60.1201 59.8764 60.0379 60.2272 59.8838C60.578 59.7297 60.8943 59.5068 61.1574 59.2284L66.6377 53.748L72.1181 59.2284C72.6654 59.7104 73.3759 59.9656 74.1049 59.942C74.8338 59.9184 75.5263 59.6177 76.0413 59.1012C76.5562 58.5847 76.8548 57.8913 76.8762 57.1623C76.8976 56.4333 76.6403 55.7235 76.1566 55.1777L70.6884 49.6973Z" fill="url(#paint11_linear_355_394)"/>
<g filter="url(#filter2_f_355_394)">
<ellipse cx="66.7264" cy="60.2579" rx="13.4412" ry="1.98563" fill="#3F5C95"/>
</g>
<path fill-rule="evenodd" clip-rule="evenodd" d="M53.0827 3.52827C53.7912 3.52827 54.3657 2.95385 54.3657 2.24526C54.3657 1.53668 53.7912 0.962255 53.0827 0.962255C52.3741 0.962255 51.7997 1.53668 51.7997 2.24526C51.7997 2.95385 52.3741 3.52827 53.0827 3.52827ZM53.0827 4.49052C54.3227 4.49052 55.3279 3.48529 55.3279 2.24526C55.3279 1.00524 54.3227 0 53.0827 0C51.8426 0 50.8374 1.00524 50.8374 2.24526C50.8374 3.48529 51.8426 4.49052 53.0827 4.49052Z" fill="url(#paint12_linear_355_394)"/>
<path fill-rule="evenodd" clip-rule="evenodd" d="M95.9508 22.2143C96.6594 22.2143 97.2338 21.6399 97.2338 20.9313C97.2338 20.2227 96.6594 19.6483 95.9508 19.6483C95.2422 19.6483 94.6678 20.2227 94.6678 20.9313C94.6678 21.6399 95.2422 22.2143 95.9508 22.2143ZM95.9508 23.1766C97.1909 23.1766 98.1961 22.1713 98.1961 20.9313C98.1961 19.6913 97.1909 18.686 95.9508 18.686C94.7108 18.686 93.7056 19.6913 93.7056 20.9313C93.7056 22.1713 94.7108 23.1766 95.9508 23.1766Z" fill="url(#paint13_linear_355_394)"/>
<path fill-rule="evenodd" clip-rule="evenodd" d="M14.2453 31.9443C14.9538 31.9443 15.5283 31.3699 15.5283 30.6613C15.5283 29.9527 14.9538 29.3783 14.2453 29.3783C13.5367 29.3783 12.9623 29.9527 12.9623 30.6613C12.9623 31.3699 13.5367 31.9443 14.2453 31.9443ZM14.2453 32.9065C15.4853 32.9065 16.4905 31.9013 16.4905 30.6613C16.4905 29.4213 15.4853 28.416 14.2453 28.416C13.0052 28.416 12 29.4213 12 30.6613C12 31.9013 13.0052 32.9065 14.2453 32.9065Z" fill="url(#paint14_linear_355_394)"/>
<path d="M92.7974 79.3551L98.2054 73.393L99.0199 74.1318C99.8103 74.8487 100.283 75.8502 100.335 76.9159C100.387 77.9817 100.014 79.0244 99.2969 79.8147C98.58 80.6051 97.5786 81.0783 96.5128 81.1302C95.447 81.1821 94.4043 80.8086 93.614 80.0917L92.7994 79.3528L92.7974 79.3551Z" fill="#8F9BBA"/>
<defs>
<filter id="filter0_d_355_394" x="0.366211" y="35.967" width="55.7278" height="64.2843" filterUnits="userSpaceOnUse" color-interpolation-filters="sRGB">
<feFlood flood-opacity="0" result="BackgroundImageFix"/>
<feColorMatrix in="SourceAlpha" type="matrix" values="0 0 0 0 0 0 0 0 0 0 0 0 0 0 0 0 0 0 127 0" result="hardAlpha"/>
<feOffset dx="3" dy="7"/>
<feGaussianBlur stdDeviation="7.5"/>
<feComposite in2="hardAlpha" operator="out"/>
<feColorMatrix type="matrix" values="0 0 0 0 0.104618 0 0 0 0 0.465612 0 0 0 0 0.545833 0 0 0 0.15 0"/>
<feBlend mode="normal" in2="BackgroundImageFix" result="effect1_dropShadow_355_394"/>
<feBlend mode="normal" in="SourceGraphic" in2="effect1_dropShadow_355_394" result="shape"/>
</filter>
<filter id="filter1_b_355_394" x="30.2987" y="13.9021" width="71.5905" height="71.5905" filterUnits="userSpaceOnUse" color-interpolation-filters="sRGB">
<feFlood flood-opacity="0" result="BackgroundImageFix"/>
<feGaussianBlur in="BackgroundImageFix" stdDeviation="8.33757"/>
<feComposite in2="SourceAlpha" operator="in" result="effect1_backgroundBlur_355_394"/>
<feBlend mode="normal" in="SourceGraphic" in2="effect1_backgroundBlur_355_394" result="shape"/>
</filter>
<filter id="filter2_f_355_394" x="32.4412" y="37.4283" width="68.5702" height="45.6592" filterUnits="userSpaceOnUse" color-interpolation-filters="sRGB">
<feFlood flood-opacity="0" result="BackgroundImageFix"/>
<feBlend mode="normal" in="SourceGraphic" in2="BackgroundImageFix" result="shape"/>
<feGaussianBlur stdDeviation="10.422" result="effect1_foregroundBlur_355_394"/>
</filter>
<linearGradient id="paint0_linear_355_394" x1="54.4343" y1="-11.4862" x2="55.2952" y2="136.101" gradientUnits="userSpaceOnUse">
<stop stop-color="white" stop-opacity="0"/>
<stop offset="1" stop-color="#B3C2D9"/>
</linearGradient>
<linearGradient id="paint1_linear_355_394" x1="25.5565" y1="13.1902" x2="82.7137" y2="17.2205" gradientUnits="userSpaceOnUse">
<stop stop-color="#D1E5EE"/>
<stop offset="1" stop-color="#B3C2D9"/>
</linearGradient>
<linearGradient id="paint2_linear_355_394" x1="23.9077" y1="55.1421" x2="106.346" y2="56.6076" gradientUnits="userSpaceOnUse">
<stop stop-color="white"/>
<stop offset="1" stop-color="#D7E3FF"/>
</linearGradient>
<linearGradient id="paint3_linear_355_394" x1="32.3348" y1="25.2811" x2="76.6682" y2="25.2811" gradientUnits="userSpaceOnUse">
<stop stop-color="#C1D2E6"/>
<stop offset="1" stop-color="#E6F2FF"/>
</linearGradient>
<linearGradient id="paint4_linear_355_394" x1="32.3348" y1="37.2605" x2="76.6682" y2="37.2604" gradientUnits="userSpaceOnUse">
<stop stop-color="#C1D2E6"/>
<stop offset="1" stop-color="#E6F2FF"/>
</linearGradient>
<linearGradient id="paint5_linear_355_394" x1="32.3348" y1="49.2398" x2="76.6682" y2="49.2398" gradientUnits="userSpaceOnUse">
<stop stop-color="#C1D2E6"/>
<stop offset="1" stop-color="#E6F2FF"/>
</linearGradient>
<linearGradient id="paint6_linear_355_394" x1="32.3348" y1="61.2192" x2="76.6682" y2="61.2192" gradientUnits="userSpaceOnUse">
<stop stop-color="#C1D2E6"/>
<stop offset="1" stop-color="#E6F2FF"/>
</linearGradient>
<linearGradient id="paint7_linear_355_394" x1="11.5937" y1="69.676" x2="60.9052" y2="73.726" gradientUnits="userSpaceOnUse">
<stop stop-color="white"/>
<stop offset="1" stop-color="#B3C2D9"/>
</linearGradient>
<linearGradient id="paint8_linear_355_394" x1="81.0671" y1="68.7254" x2="86.526" y2="62.7377" gradientUnits="userSpaceOnUse">
<stop stop-color="#A5AFBE"/>
<stop offset="1" stop-color="#8D8E90"/>
</linearGradient>
<linearGradient id="paint9_linear_355_394" x1="43.4586" y1="37.5373" x2="88.9239" y2="37.8325" gradientUnits="userSpaceOnUse">
<stop stop-color="#B3C2D9"/>
<stop offset="1" stop-color="#898989"/>
</linearGradient>
<linearGradient id="paint10_linear_355_394" x1="66.094" y1="30.5773" x2="85.3608" y2="80.5725" gradientUnits="userSpaceOnUse">
<stop stop-color="white"/>
<stop offset="1" stop-color="#D2F7FF"/>
</linearGradient>
<linearGradient id="paint11_linear_355_394" x1="66.5742" y1="39.2688" x2="66.5742" y2="60.1258" gradientUnits="userSpaceOnUse">
<stop stop-color="#5390EF"/>
<stop offset="1" stop-color="#5390EF" stop-opacity="0"/>
</linearGradient>
<linearGradient id="paint12_linear_355_394" x1="50.8323" y1="1.03635" x2="55.3523" y2="1.0657" gradientUnits="userSpaceOnUse">
<stop stop-color="#F2F8FF"/>
<stop offset="1" stop-color="#B3C2D9"/>
</linearGradient>
<linearGradient id="paint13_linear_355_394" x1="93.7005" y1="19.7224" x2="98.2205" y2="19.7517" gradientUnits="userSpaceOnUse">
<stop stop-color="#F2F8FF"/>
<stop offset="1" stop-color="#B3C2D9"/>
</linearGradient>
<linearGradient id="paint14_linear_355_394" x1="11.9949" y1="29.4524" x2="16.5149" y2="29.4817" gradientUnits="userSpaceOnUse">
<stop stop-color="#F2F8FF"/>
<stop offset="1" stop-color="#B3C2D9"/>
</linearGradient>
</defs>
</svg>
