<svg width="30" height="30" viewBox="0 0 30 30" fill="none" xmlns="http://www.w3.org/2000/svg">
<path fill-rule="evenodd" clip-rule="evenodd" d="M25 15C25 20.5228 20.5228 25 15 25C9.47715 25 5 20.5228 5 15C5 9.47715 9.47715 5 15 5C20.5228 5 25 9.47715 25 15ZM19.0303 11.9697C19.3232 12.2626 19.3232 12.7374 19.0303 13.0303L14.0303 18.0303C13.7374 18.3232 13.2626 18.3232 12.9697 18.0303L10.9697 16.0303C10.6768 15.7374 10.6768 15.2626 10.9697 14.9697C11.2626 14.6768 11.7374 14.6768 12.0303 14.9697L13.5 16.4393L15.7348 14.2045L17.9697 11.9697C18.2626 11.6768 18.7374 11.6768 19.0303 11.9697Z" fill="#29BE5C"/>
</svg>
