<svg width="20" height="20" viewBox="0 0 20 20" fill="none" xmlns="http://www.w3.org/2000/svg">
<path fill-rule="evenodd" clip-rule="evenodd" d="M18.3334 12.3334C18.3334 15.6471 15.6471 18.3334 12.3334 18.3334H7.66675C4.35304 18.3334 1.66675 15.6471 1.66675 12.3334V7.66669C1.66675 4.35298 4.35304 1.66669 7.66675 1.66669H12.3334C15.6471 1.66669 18.3334 4.35298 18.3334 7.66669V12.3334ZM8.74944 10.2774C8.59626 10.5071 8.28583 10.5692 8.05606 10.4161L6.1801 9.16541C5.58637 8.76959 5.58637 7.89713 6.1801 7.50131L8.05606 6.25067C8.28583 6.09749 8.59626 6.15958 8.74944 6.38934C8.90262 6.61911 8.84053 6.92954 8.61076 7.08272L7.48479 7.83337L11.9339 7.83337C12.8349 7.83337 13.5358 8.21877 14.0001 8.80373C14.4543 9.37577 14.6667 10.116 14.6667 10.8334C14.6667 11.5507 14.4543 12.291 14.0001 12.863C13.5358 13.448 12.8349 13.8334 11.9339 13.8334L8.02301 13.8334C7.74687 13.8334 7.52301 13.6095 7.52301 13.3334C7.52301 13.0572 7.74687 12.8334 8.02301 12.8334L11.9339 12.8334C12.5215 12.8334 12.9371 12.5938 13.2169 12.2412C13.5071 11.8758 13.6667 11.366 13.6667 10.8334C13.6667 10.3007 13.5071 9.79097 13.2169 9.4255C12.9371 9.07296 12.5215 8.83337 11.9339 8.83337L7.48481 8.83337L8.61076 9.584C8.84053 9.73718 8.90262 10.0476 8.74944 10.2774Z" fill="#FFA02E"/>
</svg>
