<svg width="30" height="30" viewBox="0 0 30 30" fill="none" xmlns="http://www.w3.org/2000/svg">
<path fill-rule="evenodd" clip-rule="evenodd" d="M15 11.0347C12.3028 11.0347 10.1163 13.1864 10.1163 15.8406C10.1163 17.1679 10.6621 18.3684 11.5467 19.2388C11.8191 19.5069 11.8191 19.9417 11.5467 20.2098C11.2742 20.4779 10.8325 20.4779 10.56 20.2098C9.4245 19.0923 8.72093 17.5467 8.72093 15.8406C8.72093 12.428 11.5322 9.66161 15 9.66161C18.4678 9.66161 21.2791 12.428 21.2791 15.8406C21.2791 17.5467 20.5755 19.0923 19.44 20.2098C19.1675 20.4779 18.7258 20.4779 18.4533 20.2098C18.1809 19.9417 18.1809 19.5069 18.4533 19.2388C19.3379 18.3684 19.8837 17.1679 19.8837 15.8406C19.8837 13.1864 17.6972 11.0347 15 11.0347Z" fill="#3E5C95"/>
<path fill-rule="evenodd" clip-rule="evenodd" d="M15 7.3731C10.2478 7.3731 6.39535 11.1641 6.39535 15.8406C6.39535 18.179 7.35769 20.2949 8.91559 21.828C9.18805 22.0961 9.18805 22.5308 8.91559 22.7989C8.64313 23.067 8.20139 23.067 7.92893 22.7989C6.12005 21.0189 5 18.5578 5 15.8406C5 10.4058 9.47715 6 15 6C20.5228 6 25 10.4058 25 15.8406C25 18.5578 23.8799 21.0189 22.0711 22.7989C21.7986 23.067 21.3569 23.067 21.0844 22.7989C20.8119 22.5308 20.8119 22.0961 21.0844 21.828C22.6423 20.2949 23.6047 18.179 23.6047 15.8406C23.6047 11.1641 19.7522 7.3731 15 7.3731Z" fill="#3E5C95"/>
<path d="M13.3099 20.3441C14.0774 19.4683 14.4612 19.0304 14.935 19.002C14.9783 18.9993 15.0217 18.9993 15.065 19.002C15.5389 19.0304 15.9226 19.4683 16.6901 20.3441C18.3601 22.2497 19.1951 23.2025 18.9613 24.0245C18.9412 24.0952 18.9163 24.1639 18.8867 24.2301C18.5426 25 17.3617 25 15 25C12.6383 25 11.4574 25 11.1133 24.2301C11.0837 24.1639 11.0588 24.0952 11.0387 24.0245C10.8049 23.2025 11.6399 22.2497 13.3099 20.3441Z" fill="#3E5C95"/>
<path d="M17.5 15.5C17.5 16.8807 16.3807 18 15 18C13.6193 18 12.5 16.8807 12.5 15.5C12.5 14.1193 13.6193 13 15 13C16.3807 13 17.5 14.1193 17.5 15.5Z" fill="#3E5C95"/>
</svg>
