<svg width="30" height="30" viewBox="0 0 30 30" fill="none" xmlns="http://www.w3.org/2000/svg">
<path fill-rule="evenodd" clip-rule="evenodd" d="M15 25.0001C13.1144 25.0001 12.1716 25.0001 11.5858 24.4143C11 23.8285 11 22.8857 11 21.0001C11 19.1144 11 18.1716 11.5858 17.5858C12.1716 17.0001 13.1144 17.0001 15 17.0001C16.8856 17.0001 17.8284 17.0001 18.4142 17.5858C19 18.1716 19 19.1144 19 21.0001C19 22.8857 19 23.8285 18.4142 24.4143C17.8284 25.0001 16.8856 25.0001 15 25.0001ZM16.8047 21.9159L15.4714 23.2492C15.2111 23.5096 14.7889 23.5096 14.5286 23.2492L13.1953 21.9159C12.9349 21.6556 12.9349 21.2334 13.1953 20.9731C13.4556 20.7128 13.8777 20.7128 14.1381 20.9731L14.3333 21.1684V19.2223C14.3333 18.8541 14.6318 18.5556 15 18.5556C15.3682 18.5556 15.6667 18.8541 15.6667 19.2223V21.1684L15.8619 20.9731C16.1223 20.7128 16.5444 20.7128 16.8047 20.9731C17.0651 21.2334 17.0651 21.6556 16.8047 21.9159Z" fill="#3E5C95"/>
<path d="M9.50001 21.0001L9.50001 20.9106C9.49991 20.0449 9.49981 19.2513 9.58661 18.6057C9.6822 17.8947 9.90709 17.1432 10.5251 16.5252C11.1432 15.9072 11.8946 15.6823 12.6056 15.5867C13.2512 15.4999 14.0449 15.5 14.9105 15.5001H15.0895C15.9551 15.5 16.7488 15.4999 17.3944 15.5867C18.1054 15.6823 18.8568 15.9072 19.4749 16.5252C20.0929 17.1432 20.3178 17.8947 20.4134 18.6057C20.4989 19.2418 20.5001 20.0215 20.5 20.8723C23.0726 20.3221 25 18.06 25 15.353C25 12.8812 23.393 10.7803 21.1551 10.015C20.8371 7.19377 18.4159 5.00006 15.4762 5.00006C12.3203 5.00006 9.7619 7.52834 9.7619 10.6471C9.7619 11.3369 9.88706 11.9979 10.1162 12.6089C9.8475 12.5568 9.56983 12.5295 9.28571 12.5295C6.91878 12.5295 5 14.4257 5 16.7648C5 19.1039 6.91878 21.0001 9.28571 21.0001L9.50001 21.0001Z" fill="#3E5C95"/>
</svg>
