<?xml version="1.0" encoding="utf-8"?>
<!-- Generator: Adobe Illustrator 24.3.0, SVG Export Plug-In . SVG Version: 6.00 Build 0)  -->
<svg version="1.1" id="圖層_1" xmlns="http://www.w3.org/2000/svg" xmlns:xlink="http://www.w3.org/1999/xlink" x="0px" y="0px"
	 viewBox="0 0 40 40" style="enable-background:new 0 0 40 40;" xml:space="preserve">
<style type="text/css">
	.st0{fill:#596898;}
	.st1{fill-rule:evenodd;clip-rule:evenodd;fill:#596898;}
</style>
<path class="st0" d="M17.3,9.3h5.3c5,0,7.5,0,9.1,1.6c1.1,1.1,1.4,2.7,1.5,5.4H6.7c0.1-2.7,0.4-4.3,1.5-5.4
	C9.8,9.3,12.3,9.3,17.3,9.3z"/>
<path class="st1" d="M33.3,21.1l-0.5-0.5c-1.2-1.2-3.1-1.2-4.2,0l-1.1,1.1c-0.4-1.1-1.5-1.9-2.8-1.9c-1.7,0-3,1.3-3,3V25
	c-0.7,0.1-1.3,0.4-1.8,0.9c-1.2,1.2-1.2,3.1,0,4.2l0.5,0.5h-3.1c-5,0-7.5,0-9.1-1.6C6.7,27.5,6.7,25,6.7,20c0-0.6,0-1.1,0-1.7h26.7
	c0,0.5,0,1.1,0,1.7C33.3,20.4,33.3,20.7,33.3,21.1z M12,24.3c-0.6,0-1,0.4-1,1s0.4,1,1,1h5.3c0.6,0,1-0.4,1-1s-0.4-1-1-1H12z"/>
<path class="st1" d="M24.7,21.7c0.6,0,1,0.4,1,1v5.6l1-1c0.4-0.4,1-0.4,1.4,0c0.4,0.4,0.4,1,0,1.4l-2.7,2.7c-0.4,0.4-1,0.4-1.4,0
	l-2.7-2.7c-0.4-0.4-0.4-1,0-1.4c0.4-0.4,1-0.4,1.4,0l1,1v-5.6C23.7,22.1,24.1,21.7,24.7,21.7z M30,22c0.4-0.4,1-0.4,1.4,0l2.7,2.7
	c0.4,0.4,0.4,1,0,1.4c-0.4,0.4-1,0.4-1.4,0l-1-1v5.6c0,0.6-0.4,1-1,1c-0.6,0-1-0.4-1-1v-5.6l-1,1c-0.4,0.4-1,0.4-1.4,0
	c-0.4-0.4-0.4-1,0-1.4L30,22z"/>
</svg>
