<?xml version="1.0" encoding="utf-8"?>
<!-- Generator: Adobe Illustrator 24.3.0, SVG Export Plug-In . SVG Version: 6.00 Build 0)  -->
<svg version="1.1" id="圖層_1" xmlns="http://www.w3.org/2000/svg" xmlns:xlink="http://www.w3.org/1999/xlink" x="0px" y="0px"
	 viewBox="0 0 40 40" style="enable-background:new 0 0 40 40;" xml:space="preserve">
<style type="text/css">
	.st0{fill-rule:evenodd;clip-rule:evenodd;fill:#596898;}
	.st1{fill:#596898;}
</style>
<path class="st0" d="M12.4,6.8c-1.1,0.1-1.7,0.4-2.1,0.8c-0.4,0.4-0.7,1-0.8,2c-0.1,1.1-0.2,2.5-0.2,4.6v11.4
	c0.5-0.4,1.1-0.6,1.7-0.8c0.7-0.2,1.5-0.2,2.7-0.2h16.9V14.2c0-2.1,0-3.5-0.2-4.6c-0.1-1.1-0.4-1.6-0.8-2c-0.4-0.4-1-0.7-2.1-0.8
	c-1.1-0.1-2.6-0.1-4.7-0.1h-5.9C14.9,6.7,13.5,6.7,12.4,6.8z M13,12.8c0-0.6,0.5-1.1,1.1-1.1h11.8c0.6,0,1.1,0.5,1.1,1.1
	s-0.5,1.1-1.1,1.1H14.1C13.5,13.9,13,13.4,13,12.8z M14.1,16.8c-0.6,0-1.1,0.5-1.1,1.1c0,0.6,0.5,1.1,1.1,1.1h7.4
	c0.6,0,1.1-0.5,1.1-1.1c0-0.6-0.5-1.1-1.1-1.1H14.1z"/>
<path class="st1" d="M14,26.8h1.6h5.9h9.2c0,1.5,0,2.6-0.2,3.5c-0.1,1.1-0.4,1.6-0.8,2c-0.4,0.4-1,0.7-2.1,0.8
	c-1.1,0.1-2.6,0.1-4.7,0.1h-5.9c-2.1,0-3.6,0-4.7-0.1c-1.1-0.1-1.7-0.4-2.1-0.8c-0.4-0.4-0.7-1-0.8-2C9.4,30,9.4,29.5,9.4,29
	c0.4-1,1.2-1.8,2.3-2.1C12,26.9,12.5,26.8,14,26.8z"/>
</svg>
