<?xml version="1.0" encoding="utf-8"?>
<!-- Generator: Adobe Illustrator 24.3.0, SVG Export Plug-In . SVG Version: 6.00 Build 0)  -->
<svg version="1.1" id="圖層_1" xmlns="http://www.w3.org/2000/svg" xmlns:xlink="http://www.w3.org/1999/xlink" x="0px" y="0px"
	 viewBox="0 0 40 40" style="enable-background:new 0 0 40 40;" xml:space="preserve">
<style type="text/css">
	.st0{fill:#596898;}
	.st1{fill-rule:evenodd;clip-rule:evenodd;fill:#596898;}
</style>
<path class="st0" d="M21,8c0-0.6-0.4-1-1-1s-1,0.4-1,1v2.7c0,0.6,0.4,1,1,1s1-0.4,1-1V8z"/>
<path class="st1" d="M34.3,20.1c0,2.5,0,4.4-0.2,5.9c-0.2,1.6-0.7,2.8-1.7,3.8c-1,1-2.3,1.4-3.8,1.7c-1.5,0.2-3.5,0.2-5.9,0.2h-5.5
	c-2.5,0-4.4,0-5.9-0.2c-1.6-0.2-2.8-0.7-3.8-1.7S6.1,27.5,5.9,26c-0.2-1.5-0.2-3.5-0.2-5.9v-0.4c0-0.3,0-0.6,0-0.9c0-0.5,0-1,0-1.5
	c0-1.3,0.1-2.4,0.2-3.4c0.2-1.6,0.7-2.8,1.7-3.8c1-1,2.3-1.4,3.8-1.7c1-0.1,2.1-0.2,3.4-0.2c0.2,0,0.6,0,0.9,0
	c0.7,0,1.3,0.6,1.3,1.3v1c0,1.7,1.3,3,3,3c1.7,0,3-1.3,3-3v-1c0-0.7,0.6-1.3,1.3-1.3c1.7,0,3.1,0,4.3,0.2c1.6,0.2,2.8,0.7,3.8,1.7
	c1,1,1.4,2.3,1.7,3.8c0.2,1.5,0.2,3.5,0.2,5.9V20.1z M14.7,17c-0.6,0-1,0.4-1,1c0,0.6,0.4,1,1,1h10.7c0.6,0,1-0.4,1-1
	c0-0.6-0.4-1-1-1H14.7z M14.7,21.7c-0.6,0-1,0.4-1,1c0,0.6,0.4,1,1,1H22c0.6,0,1-0.4,1-1c0-0.6-0.4-1-1-1H14.7z"/>
</svg>
