<?xml version="1.0" encoding="utf-8"?>
<!-- Generator: Adobe Illustrator 24.3.0, SVG Export Plug-In . SVG Version: 6.00 Build 0)  -->
<svg version="1.1" id="圖層_1" xmlns="http://www.w3.org/2000/svg" xmlns:xlink="http://www.w3.org/1999/xlink" x="0px" y="0px"
	 viewBox="0 0 42 40" style="enable-background:new 0 0 42 40;" xml:space="preserve">
<style type="text/css">
	.st0{fill-rule:evenodd;clip-rule:evenodd;fill:#596898;}
</style>
<path class="st0" d="M21.1,6.2h-0.1c-1.2,0-2.2,0-3,0.1c-0.8,0.1-1.6,0.4-2.2,1c-0.6,0.6-0.9,1.4-1,2.2c-0.1,0.6-0.1,1.9-0.1,3.1
	c-2.7,0.1-4.3,0.4-5.4,1.5c-1.6,1.6-1.6,4.1-1.6,9.1s0,7.5,1.6,9.1c1.6,1.6,4.1,1.6,9.1,1.6h5.3c5,0,7.5,0,9.1-1.6
	c1.6-1.6,1.6-4.1,1.6-9.1s0-7.5-1.6-9.1c-1.1-1.1-2.7-1.4-5.4-1.5c0-1.2,0-2.5-0.1-3.1c-0.1-0.8-0.4-1.6-1-2.2
	c-0.6-0.6-1.4-0.9-2.2-1C23.3,6.2,22.3,6.2,21.1,6.2z M25.3,12.5c0-1.1,0-2.3-0.1-2.8c-0.1-0.6-0.2-0.9-0.4-1.1
	c-0.2-0.2-0.4-0.3-1.1-0.4c-0.6-0.1-1.5-0.1-2.8-0.1c-1.3,0-2.1,0-2.8,0.1c-0.6,0.1-0.9,0.2-1.1,0.4c-0.2,0.2-0.3,0.4-0.4,1.1
	c-0.1,0.5-0.1,1.7-0.1,2.8c0.5,0,1.1,0,1.7,0h5.3C24.3,12.5,24.8,12.5,25.3,12.5z M21,16.8c0.6,0,1,0.4,1,1v0
	c1.5,0.4,2.7,1.5,2.7,3.1c0,0.6-0.4,1-1,1c-0.6,0-1-0.4-1-1c0-0.5-0.6-1.2-1.7-1.2c-1.1,0-1.7,0.7-1.7,1.2c0,0.5,0.6,1.2,1.7,1.2
	c1.8,0,3.7,1.3,3.7,3.2c0,1.6-1.2,2.7-2.7,3.1v0c0,0.6-0.4,1-1,1c-0.6,0-1-0.4-1-1v0c-1.5-0.4-2.7-1.5-2.7-3.1c0-0.6,0.4-1,1-1
	s1,0.4,1,1c0,0.5,0.6,1.2,1.7,1.2c1.1,0,1.7-0.7,1.7-1.2c0-0.5-0.6-1.2-1.7-1.2c-1.8,0-3.7-1.3-3.7-3.2c0-1.6,1.2-2.7,2.7-3.1v0
	C20,17.3,20.4,16.8,21,16.8z"/>
</svg>
