<svg width="31" height="30" viewBox="0 0 31 30" fill="none" xmlns="http://www.w3.org/2000/svg">
<path fill-rule="evenodd" clip-rule="evenodd" d="M16.936 8.78311C16.0407 8.29495 14.9588 8.29495 14.0636 8.78311L9.26937 11.3973C8.30539 11.9229 7.70557 12.9332 7.70557 14.0312V18.9688C7.70557 20.0668 8.30539 21.0771 9.26937 21.6027L14.0636 24.2169C14.9588 24.705 16.0407 24.705 16.936 24.2169L21.7302 21.6027C22.6942 21.0771 23.294 20.0668 23.294 18.9688V14.0312C23.294 12.9332 22.6942 11.9229 21.7302 11.3973L16.936 8.78311ZM15.5 13.5C15.2159 13.5 15.0259 13.8408 14.6459 14.5225L14.5476 14.6989C14.4397 14.8926 14.3857 14.9894 14.3015 15.0533C14.2173 15.1172 14.1125 15.141 13.9028 15.1884L13.7119 15.2316C12.974 15.3986 12.605 15.482 12.5172 15.7643C12.4294 16.0466 12.681 16.3407 13.184 16.929L13.3142 17.0812C13.4571 17.2483 13.5286 17.3319 13.5608 17.4353C13.5929 17.5387 13.5821 17.6502 13.5605 17.8733L13.5408 18.0763C13.4648 18.8612 13.4267 19.2536 13.6565 19.4281C13.8864 19.6025 14.2318 19.4435 14.9227 19.1254L15.1014 19.0431C15.2978 18.9527 15.3959 18.9075 15.5 18.9075C15.6041 18.9075 15.7022 18.9527 15.8986 19.0431L16.0773 19.1254C16.7682 19.4435 17.1136 19.6025 17.3435 19.4281C17.5733 19.2536 17.5352 18.8612 17.4592 18.0763L17.4395 17.8733C17.4179 17.6502 17.4071 17.5387 17.4392 17.4353C17.4714 17.3319 17.5429 17.2483 17.6858 17.0812L17.816 16.929C18.319 16.3407 18.5706 16.0466 18.4828 15.7643C18.395 15.482 18.026 15.3986 17.2881 15.2316L17.0972 15.1884C16.8875 15.141 16.7827 15.1172 16.6985 15.0533C16.6143 14.9894 16.5603 14.8926 16.4524 14.6989L16.3541 14.5225C15.9741 13.8408 15.7841 13.5 15.5 13.5Z" fill="url(#paint0_linear_210_90)"/>
<path d="M14.5 5H16.5C18.3856 5 19.3284 5 19.9142 5.58579C20.5 6.17157 20.5 7.11438 20.5 9V9.01797L17.6541 7.46616C16.3112 6.73394 14.6884 6.73393 13.3455 7.46616L10.5 9.01775V9C10.5 7.11438 10.5 6.17157 11.0858 5.58579C11.6716 5 12.6144 5 14.5 5Z" fill="url(#paint1_linear_210_90)"/>
<defs>
<linearGradient id="paint0_linear_210_90" x1="15.4998" y1="8.41699" x2="15.4998" y2="24.583" gradientUnits="userSpaceOnUse">
<stop stop-color="#CBBA9B"/>
<stop offset="0.460068" stop-color="#FFEDC5"/>
<stop offset="1" stop-color="#8D7E57"/>
</linearGradient>
<linearGradient id="paint1_linear_210_90" x1="15.5" y1="5" x2="15.5" y2="9.01797" gradientUnits="userSpaceOnUse">
<stop stop-color="#CBBA9B"/>
<stop offset="0.460068" stop-color="#FFEDC5"/>
<stop offset="1" stop-color="#8D7E57"/>
</linearGradient>
</defs>
</svg>
