<?xml version="1.0" encoding="utf-8"?>
<!-- Generator: Adobe Illustrator 24.3.0, SVG Export Plug-In . SVG Version: 6.00 Build 0)  -->
<svg version="1.1" id="圖層_1" xmlns="http://www.w3.org/2000/svg" xmlns:xlink="http://www.w3.org/1999/xlink" x="0px" y="0px"
	 viewBox="0 0 31 30" style="enable-background:new 0 0 31 30;" xml:space="preserve">
<style type="text/css">
	.st0{fill:#596898;}
	.st1{fill-rule:evenodd;clip-rule:evenodd;fill:#596898;}
</style>
<path class="st0" d="M5.2,13v4c0,2.8,0,4.2,0.9,5.1c0.2,0.2,0.5,0.4,0.8,0.5c0,0,0-0.1,0-0.1c-0.1-0.9-0.1-2.1-0.1-3.4V11v-0.1v0
	c0-1.3,0-2.5,0.1-3.4c0,0,0-0.1,0-0.1C6.6,7.5,6.3,7.7,6.1,7.9C5.2,8.8,5.2,10.2,5.2,13z"/>
<path class="st0" d="M25.2,13v4c0,2.8,0,4.2-0.9,5.1c-0.2,0.2-0.5,0.4-0.8,0.5c0,0,0-0.1,0-0.1c0.1-0.9,0.1-2.1,0.1-3.4v-8.2
	c0-1.3,0-2.5-0.1-3.4c0,0,0-0.1,0-0.1c0.3,0.1,0.5,0.3,0.8,0.5C25.2,8.8,25.2,10.2,25.2,13z"/>
<path class="st1" d="M9.1,5.9C8.2,6.8,8.2,8.2,8.2,11v8c0,2.8,0,4.2,0.9,5.1C10,25,11.4,25,14.2,25h2c2.8,0,4.2,0,5.1-0.9
	s0.9-2.3,0.9-5.1v-8c0-2.8,0-4.2-0.9-5.1S19.1,5,16.2,5h-2C11.4,5,10,5,9.1,5.9z M11.5,20c0-0.4,0.3-0.8,0.8-0.8h3
	c0.4,0,0.8,0.3,0.8,0.8s-0.3,0.8-0.8,0.8h-3C11.8,20.7,11.5,20.4,11.5,20z M12.2,15.2c-0.4,0-0.8,0.3-0.8,0.8c0,0.4,0.3,0.7,0.8,0.7
	h6c0.4,0,0.8-0.3,0.8-0.7c0-0.4-0.3-0.8-0.8-0.8H12.2z M11.5,12c0-0.4,0.3-0.8,0.8-0.8h6c0.4,0,0.8,0.3,0.8,0.8s-0.3,0.8-0.8,0.8h-6
	C11.8,12.7,11.5,12.4,11.5,12z"/>
</svg>
