<svg width="31" height="30" viewBox="0 0 31 30" fill="none" xmlns="http://www.w3.org/2000/svg">
<path fill-rule="evenodd" clip-rule="evenodd" d="M15.5 14C17.433 14 19 12.433 19 10.5C19 8.567 17.433 7 15.5 7C13.567 7 12 8.567 12 10.5C12 12.433 13.567 14 15.5 14ZM15.5 23C18.8137 23 21.5 21.433 21.5 19.5C21.5 17.567 18.8137 16 15.5 16C12.1863 16 9.5 17.567 9.5 19.5C9.5 21.433 12.1863 23 15.5 23ZM10.622 8C10.7995 8 10.9728 8.01741 11.1401 8.05056C10.7325 8.77446 10.5 9.61008 10.5 10.5C10.5 11.3683 10.7213 12.1848 11.1106 12.8964C10.9524 12.9258 10.7891 12.9413 10.622 12.9413C9.20763 12.9413 8.06102 11.8351 8.06102 10.4706C8.06102 9.10614 9.20763 8 10.622 8ZM8.94734 21.986C8.37942 21.3071 8 20.474 8 19.5C8 18.5558 8.35657 17.744 8.89578 17.0767C6.9911 17.2245 5.5 18.2662 5.5 19.5294C5.5 20.8044 7.0173 21.8538 8.94734 21.986ZM19.8893 12.8964C20.2786 12.1848 20.4999 11.3683 20.4999 10.5C20.4999 9.61008 20.2674 8.77446 19.8599 8.05056C20.0272 8.01741 20.2004 8 20.3779 8C21.7923 8 22.9389 9.10614 22.9389 10.4706C22.9389 11.8351 21.7923 12.9413 20.3779 12.9413C20.2108 12.9413 20.0475 12.9258 19.8893 12.8964ZM25.4999 19.5294C25.4999 20.8044 23.9826 21.8538 22.0526 21.986C22.6205 21.3071 22.9999 20.474 22.9999 19.5C22.9999 18.5558 22.6433 17.744 22.1041 17.0767C24.0088 17.2245 25.4999 18.2662 25.4999 19.5294Z" fill="url(#paint0_linear_210_78)"/>
<defs>
<linearGradient id="paint0_linear_210_78" x1="22.6799" y1="8" x2="23" y2="25.5" gradientUnits="userSpaceOnUse">
<stop stop-color="#CBBA9B"/>
<stop offset="0.460068" stop-color="#FFEDC5"/>
<stop offset="1" stop-color="#8D7E57"/>
</linearGradient>
</defs>
</svg>
