<svg width="40" height="40" viewBox="0 0 40 40" fill="none" xmlns="http://www.w3.org/2000/svg">
<path fill-rule="evenodd" clip-rule="evenodd" d="M12.3614 6.81537C11.2818 6.95757 10.7101 7.21767 10.3029 7.61661C9.8957 8.01555 9.63022 8.57565 9.48507 9.63335C9.33566 10.7221 9.33331 12.1652 9.33331 14.2343V25.659C9.85155 25.3042 10.4356 25.0342 11.0653 24.8689C11.7695 24.684 12.5907 24.6843 13.7942 24.6847L30.6666 24.6847V14.2343C30.6666 12.1652 30.6643 10.7221 30.5149 9.63335C30.3697 8.57565 30.1043 8.01555 29.6971 7.61661C29.2899 7.21767 28.7182 6.95757 27.6386 6.81537C26.5273 6.66898 25.0544 6.66669 22.9425 6.66669H17.0575C14.9456 6.66669 13.4727 6.66898 12.3614 6.81537ZM13.0115 12.7928C13.0115 12.1957 13.5055 11.7117 14.1149 11.7117H25.885C26.4945 11.7117 26.9885 12.1957 26.9885 12.7928C26.9885 13.3899 26.4945 13.8739 25.885 13.8739H14.1149C13.5055 13.8739 13.0115 13.3899 13.0115 12.7928ZM14.1149 16.7568C13.5055 16.7568 13.0115 17.2408 13.0115 17.8379C13.0115 18.4349 13.5055 18.9189 14.1149 18.9189H21.4712C22.0807 18.9189 22.5747 18.4349 22.5747 17.8379C22.5747 17.2408 22.0807 16.7568 21.4712 16.7568H14.1149Z" fill="url(#paint0_linear_285_60)"/>
<path d="M13.9645 26.8469H15.5862H21.4712H30.6655C30.6608 28.3543 30.6368 29.4784 30.5149 30.3667C30.3697 31.4244 30.1043 31.9845 29.6971 32.3834C29.2899 32.7824 28.7182 33.0425 27.6386 33.1847C26.5273 33.3311 25.0544 33.3334 22.9425 33.3334H17.0575C14.9456 33.3334 13.4727 33.3311 12.3614 33.1847C11.2818 33.0425 10.7101 32.7824 10.3029 32.3834C9.8957 31.9845 9.63022 31.4244 9.48507 30.3667C9.43011 29.9662 9.39504 29.5177 9.37268 29.0077C9.73449 28.0059 10.5782 27.2352 11.6365 26.9574C12.0221 26.8562 12.5252 26.8469 13.9645 26.8469Z" fill="url(#paint1_linear_285_60)"/>
<defs>
<linearGradient id="paint0_linear_285_60" x1="10.9877" y1="34.4572" x2="29.6531" y2="25.9964" gradientUnits="userSpaceOnUse">
<stop stop-color="#F1F6FF"/>
<stop offset="0.282494" stop-color="#3E5C95"/>
<stop offset="1" stop-color="#A3BEF2"/>
</linearGradient>
<linearGradient id="paint1_linear_285_60" x1="10.9877" y1="34.4572" x2="29.6531" y2="25.9964" gradientUnits="userSpaceOnUse">
<stop stop-color="#F1F6FF"/>
<stop offset="0.282494" stop-color="#3E5C95"/>
<stop offset="1" stop-color="#A3BEF2"/>
</linearGradient>
</defs>
</svg>
