<svg width="40" height="40" viewBox="0 0 40 40" fill="none" xmlns="http://www.w3.org/2000/svg">
<path d="M21 8C21 7.44772 20.5523 7 20 7C19.4477 7 19 7.44772 19 8V10.6667C19 11.219 19.4477 11.6667 20 11.6667C20.5523 11.6667 21 11.219 21 10.6667V8Z" fill="url(#paint0_linear_285_57)"/>
<path fill-rule="evenodd" clip-rule="evenodd" d="M34.3334 20.0754C34.3334 22.5257 34.3334 24.4665 34.1292 25.9855C33.919 27.5487 33.4762 28.814 32.4784 29.8118C31.4805 30.8096 30.2153 31.2524 28.6521 31.4626C27.1331 31.6668 25.1923 31.6668 22.742 31.6668H17.258C14.8077 31.6668 12.8669 31.6668 11.348 31.4626C9.78476 31.2524 8.5195 30.8096 7.52168 29.8118C6.52386 28.814 6.08104 27.5487 5.87087 25.9855C5.66665 24.4665 5.66667 22.5257 5.66669 20.0753L5.66669 19.6966C5.66671 19.4038 5.66683 19.1185 5.6674 18.8403C5.66845 18.3288 5.67104 17.8419 5.67744 17.3786C5.69538 16.0783 5.74323 14.9642 5.87087 14.0149C6.08104 12.4516 6.52386 11.1864 7.52168 10.1886C8.5195 9.19074 9.78476 8.74792 11.348 8.53775C12.3032 8.40932 13.4253 8.36167 14.7361 8.34399C14.9564 8.34102 15.2996 8.33882 15.6648 8.33722C16.4019 8.334 17 8.93164 17 9.66874V10.6668C17 12.3236 18.3432 13.6668 20 13.6668C21.6569 13.6668 23 12.3236 23 10.6668V9.66704C23 8.93061 23.5974 8.33247 24.3338 8.33595C26.0522 8.34408 27.4781 8.37992 28.6521 8.53775C30.2153 8.74792 31.4805 9.19075 32.4784 10.1886C33.4762 11.1864 33.919 12.4516 34.1292 14.0149C34.3334 15.5338 34.3334 17.4746 34.3334 19.9249V20.0754ZM14.6667 17.0001C14.1144 17.0001 13.6667 17.4478 13.6667 18.0001C13.6667 18.5524 14.1144 19.0001 14.6667 19.0001H25.3334C25.8856 19.0001 26.3334 18.5524 26.3334 18.0001C26.3334 17.4478 25.8856 17.0001 25.3334 17.0001H14.6667ZM14.6667 21.6668C14.1144 21.6668 13.6667 22.1145 13.6667 22.6668C13.6667 23.2191 14.1144 23.6668 14.6667 23.6668H22C22.5523 23.6668 23 23.2191 23 22.6668C23 22.1145 22.5523 21.6668 22 21.6668H14.6667Z" fill="url(#paint1_linear_285_57)"/>
<defs>
<linearGradient id="paint0_linear_285_57" x1="7.88972" y1="32.7063" x2="28.98" y2="18.8187" gradientUnits="userSpaceOnUse">
<stop stop-color="#F1F6FF"/>
<stop offset="0.282494" stop-color="#3E5C95"/>
<stop offset="1" stop-color="#A3BEF2"/>
</linearGradient>
<linearGradient id="paint1_linear_285_57" x1="7.88972" y1="32.7063" x2="28.98" y2="18.8187" gradientUnits="userSpaceOnUse">
<stop stop-color="#F1F6FF"/>
<stop offset="0.282494" stop-color="#3E5C95"/>
<stop offset="1" stop-color="#A3BEF2"/>
</linearGradient>
</defs>
</svg>
