<svg width="31" height="30" viewBox="0 0 31 30" fill="none" xmlns="http://www.w3.org/2000/svg">
<path d="M25.4999 11.1623L25.4999 11.2349C25.4999 12.0956 25.4999 12.526 25.2927 12.8781C25.0855 13.2302 24.7093 13.4392 23.9569 13.8572L23.1636 14.298C23.7102 12.4498 23.8926 10.4641 23.9601 8.76597C23.9629 8.69316 23.9662 8.61945 23.9695 8.54497L23.9718 8.49279C24.6231 8.71896 24.9887 8.88758 25.2168 9.20408C25.5 9.59692 25.5 10.1187 25.4999 11.1623Z" fill="url(#paint0_linear_210_86)"/>
<path d="M5.5 11.1623L5.5 11.2349C5.50003 12.0956 5.50004 12.526 5.70723 12.8781C5.91442 13.2302 6.29063 13.4392 7.04305 13.8572L7.83681 14.2982C7.29007 12.45 7.10767 10.4642 7.04025 8.76597C7.03736 8.69316 7.0341 8.61945 7.03081 8.54497L7.0285 8.49266C6.37701 8.7189 6.01126 8.88752 5.7831 9.20408C5.49996 9.59692 5.49997 10.1187 5.5 11.1623Z" fill="url(#paint1_linear_210_86)"/>
<path fill-rule="evenodd" clip-rule="evenodd" d="M19.8771 5.34674C18.7531 5.15709 17.2837 5 15.5002 5C13.7166 5 12.2472 5.15709 11.1232 5.34674C9.98445 5.53887 9.41508 5.63494 8.93937 6.22083C8.46365 6.80673 8.48879 7.43998 8.53907 8.70647C8.71169 13.0544 9.64996 18.4851 14.75 18.9657V22.5H13.3198C12.8431 22.5 12.4327 22.8365 12.3392 23.3039L12.15 24.25H9.5C9.08579 24.25 8.75 24.5858 8.75 25C8.75 25.4142 9.08579 25.75 9.5 25.75H21.5C21.9142 25.75 22.25 25.4142 22.25 25C22.25 24.5858 21.9142 24.25 21.5 24.25H18.85L18.6608 23.3039C18.5673 22.8365 18.1569 22.5 17.6802 22.5H16.25V18.9657C21.3503 18.4853 22.2886 13.0545 22.4612 8.70647C22.5115 7.43998 22.5367 6.80673 22.0609 6.22083C21.5852 5.63494 21.0159 5.53887 19.8771 5.34674ZM16.287 8.80711C16.5673 8.9232 16.75 9.19668 16.75 9.50002V13.5C16.75 13.9142 16.4142 14.25 16 14.25C15.5858 14.25 15.25 13.9142 15.25 13.5V11.3107L15.0303 11.5304C14.7374 11.8232 14.2626 11.8232 13.9697 11.5304C13.6768 11.2375 13.6768 10.7626 13.9697 10.4697L15.4697 8.96969C15.6842 8.75519 16.0068 8.69103 16.287 8.80711Z" fill="url(#paint2_linear_210_86)"/>
<defs>
<linearGradient id="paint0_linear_210_86" x1="15.5" y1="5" x2="15.5" y2="25.75" gradientUnits="userSpaceOnUse">
<stop stop-color="#CBBA9B"/>
<stop offset="0.460068" stop-color="#FFEDC5"/>
<stop offset="1" stop-color="#8D7E57"/>
</linearGradient>
<linearGradient id="paint1_linear_210_86" x1="15.5" y1="5" x2="15.5" y2="25.75" gradientUnits="userSpaceOnUse">
<stop stop-color="#CBBA9B"/>
<stop offset="0.460068" stop-color="#FFEDC5"/>
<stop offset="1" stop-color="#8D7E57"/>
</linearGradient>
<linearGradient id="paint2_linear_210_86" x1="15.5" y1="5" x2="15.5" y2="25.75" gradientUnits="userSpaceOnUse">
<stop stop-color="#CBBA9B"/>
<stop offset="0.460068" stop-color="#FFEDC5"/>
<stop offset="1" stop-color="#8D7E57"/>
</linearGradient>
</defs>
</svg>
