<svg width="16" height="16" viewBox="0 0 16 16" fill="none" xmlns="http://www.w3.org/2000/svg">
<path fill-rule="evenodd" clip-rule="evenodd" d="M2.8 0.203705C1.2536 0.203705 0 1.45856 0 3.00651V13.4169C0 14.3015 0.716344 15.0185 1.6 15.0185H14.4C15.2837 15.0185 16 14.3015 16 13.4169V5.40891C16 4.52437 15.2837 3.80731 14.4 3.80731V1.80531C14.4 0.920766 13.6837 0.203705 12.8 0.203705H2.8ZM2 3.00651C2 2.56424 2.35818 2.20571 2.8 2.20571H12.4V3.80731H2.8C2.35818 3.80731 2 3.44878 2 3.00651ZM12.2 10.8143C12.9732 10.8143 13.6 10.1869 13.6 9.41291C13.6 8.63894 12.9732 8.01151 12.2 8.01151C11.4268 8.01151 10.8 8.63894 10.8 9.41291C10.8 10.1869 11.4268 10.8143 12.2 10.8143Z" fill="url(#paint0_linear_381_209)"/>
<defs>
<linearGradient id="paint0_linear_381_209" x1="5" y1="15" x2="17.3517" y2="6.88206" gradientUnits="userSpaceOnUse">
<stop stop-color="#EDE6D7"/>
<stop offset="0.261573" stop-color="#CAB997"/>
<stop offset="1" stop-color="#FEF4DF"/>
</linearGradient>
</defs>
</svg>
