<svg width="24" height="24" viewBox="0 0 24 24" fill="none" xmlns="http://www.w3.org/2000/svg">
<path d="M8.74739 8.33565C8.38048 7.92286 7.7484 7.88568 7.33562 8.2526C6.92284 8.61952 6.88566 9.25159 7.25257 9.66437L11.2526 14.1644C11.4423 14.3779 11.7143 14.5 12 14.5C12.2856 14.5 12.5576 14.3779 12.7474 14.1644L16.7474 9.66437C17.1143 9.25159 17.0771 8.61952 16.6643 8.2526C16.2516 7.88568 15.6195 7.92286 15.2526 8.33565L12 11.9948L8.74739 8.33565Z" fill="black" fill-opacity="0.85"/>
<path fill-rule="evenodd" clip-rule="evenodd" d="M4.84742 2C4.45559 2 4.09986 2.22884 3.93742 2.58541L1.08998 8.83541C0.929131 9.18845 0.987001 9.60267 1.23844 9.89812L11.2384 21.6481C11.4284 21.8714 11.7068 22 12 22C12.2931 22 12.5715 21.8714 12.7615 21.6481L22.7615 9.89812C23.013 9.60267 23.0708 9.18845 22.91 8.83541L20.0625 2.58541C19.9001 2.22884 19.5444 2 19.1525 2H4.84742ZM3.17357 9.08604L5.49072 4H18.5092L20.8264 9.08604L12 19.4571L3.17357 9.08604Z" fill="black" fill-opacity="0.85"/>
<path fill-rule="evenodd" clip-rule="evenodd" d="M5.49072 4L3.17357 9.08604L12 19.4571L20.8264 9.08604L18.5092 4H5.49072ZM8.74739 8.33565C8.38047 7.92286 7.7484 7.88568 7.33562 8.2526C6.92283 8.61952 6.88565 9.25159 7.25257 9.66437L11.2526 14.1644C11.4423 14.3779 11.7143 14.5 12 14.5C12.2856 14.5 12.5576 14.3779 12.7474 14.1644L16.7474 9.66437C17.1143 9.25159 17.0771 8.61952 16.6643 8.2526C16.2516 7.88568 15.6195 7.92286 15.2526 8.33565L12 11.9948L8.74739 8.33565Z" fill="url(#paint0_linear_438_1181)"/>
<defs>
<linearGradient id="paint0_linear_438_1181" x1="4.54251" y1="20.1085" x2="17.6659" y2="11.6164" gradientUnits="userSpaceOnUse">
<stop stop-color="#FAEFDB"/>
<stop offset="0.282494" stop-color="#90846D"/>
<stop offset="1" stop-color="#FFF4DE"/>
</linearGradient>
</defs>
</svg>
