<?xml version="1.0" encoding="utf-8"?>
<!-- Generator: Adobe Illustrator 24.3.0, SVG Export Plug-In . SVG Version: 6.00 Build 0)  -->
<svg version="1.1" id="圖層_1" xmlns="http://www.w3.org/2000/svg" xmlns:xlink="http://www.w3.org/1999/xlink" x="0px" y="0px"
	 viewBox="0 0 40 43.6" style="enable-background:new 0 0 40 43.6;" xml:space="preserve">
<style type="text/css">
	.st0{fill:#408CFF;}
	.st1{fill:#0066FF;}
	.st2{fill:url(#SVGID_1_);}
	.st3{fill:url(#SVGID_2_);}
	.st4{fill:#FFFFFF;}
	.st5{fill:none;stroke:#3E74FF;stroke-width:0.2;}
	.st6{fill:url(#SVGID_3_);}
	.st7{fill:url(#SVGID_4_);}
	.st8{fill:url(#SVGID_5_);}
	.st9{fill:url(#SVGID_6_);}
	.st10{fill:url(#SVGID_7_);stroke:url(#SVGID_8_);}
	.st11{fill:url(#SVGID_9_);}
	.st12{fill:url(#SVGID_10_);}
	.st13{fill:url(#SVGID_11_);}
	.st14{fill:url(#SVGID_12_);}
	.st15{fill:url(#SVGID_13_);}
	.st16{fill:url(#SVGID_14_);filter:url(#Adobe_OpacityMaskFilter);}
	.st17{mask:url(#mask0_296_114_1_);}
	.st18{fill:#7BB0FF;}
	.st19{fill:url(#SVGID_15_);}
	.st20{fill:url(#SVGID_16_);}
	.st21{fill:url(#SVGID_17_);}
	.st22{fill:url(#SVGID_18_);}
	.st23{fill:url(#SVGID_19_);}
</style>
<path class="st0" d="M5.7,34c0.3-1,2.4-2.1,3.6-2.5l1.8,3.2l4.9,1.1c-0.6,0-5.8,2.4-8,3.6v-3.6C6.9,34.9,5.7,34,5.7,34z"/>
<path class="st0" d="M33.8,34c-0.3-1-2.4-2.1-3.6-2.5l-1.8,3.2l-5.2,1.1c0.6,0,6.1,2.4,8.3,3.6v-3.6C32.6,34.9,33.8,34,33.8,34z"/>
<path class="st1" d="M13.8,33.3l2.2,2.5l-4.9-1.1L13.8,33.3z"/>
<path class="st1" d="M25.5,33.3l-2.3,2.5l5.2-1.1L25.5,33.3z"/>
<linearGradient id="SVGID_1_" gradientUnits="userSpaceOnUse" x1="17.2101" y1="62.7181" x2="22.0029" y2="62.7181" gradientTransform="matrix(1 0 0 -1 0 67.8898)">
	<stop  offset="0.4888" style="stop-color:#E3EBFF"/>
	<stop  offset="0.4889" style="stop-color:#D1E5EE"/>
	<stop  offset="0.489" style="stop-color:#B3C2D9"/>
</linearGradient>
<path class="st2" d="M19.6,1.8l5.8,6.7H13.8L19.6,1.8z"/>
<linearGradient id="SVGID_2_" gradientUnits="userSpaceOnUse" x1="22.0034" y1="31.2002" x2="17.2105" y2="31.2002" gradientTransform="matrix(1 0 0 -1 0 67.8898)">
	<stop  offset="0.4888" style="stop-color:#E3EBFF"/>
	<stop  offset="0.4889" style="stop-color:#D1E5EE"/>
	<stop  offset="0.489" style="stop-color:#B3C2D9"/>
</linearGradient>
<path class="st3" d="M19.6,40l-5.8-6.7h11.5L19.6,40z"/>
<g>
	<path class="st4" d="M19.4,3.5l0.7,2l2,0.7l-2,0.7l-0.7,2l-0.7-2l-2-0.7l2-0.7L19.4,3.5z"/>
	<path class="st5" d="M19.4,3.9L20,5.6l0,0l0,0l1.7,0.6l-1.7,0.6l0,0l0,0l-0.6,1.7l-0.6-1.7l0,0l0,0l-1.7-0.6l1.7-0.6l0,0l0,0
		L19.4,3.9z"/>
</g>
<linearGradient id="SVGID_3_" gradientUnits="userSpaceOnUse" x1="34.5256" y1="41.1566" x2="32.156" y2="37.0215" gradientTransform="matrix(1 0 0 -1 0 67.8898)">
	<stop  offset="0.4888" style="stop-color:#E3EBFF"/>
	<stop  offset="0.4889" style="stop-color:#D1E5EE"/>
	<stop  offset="0.489" style="stop-color:#B3C2D9"/>
</linearGradient>
<path class="st6" d="M36.3,30.5l-8.7,1.6l5.8-9.9L36.3,30.5z"/>
<linearGradient id="SVGID_4_" gradientUnits="userSpaceOnUse" x1="4.6878" y1="52.7619" x2="7.0574" y2="56.897" gradientTransform="matrix(1 0 0 -1 0 67.8898)">
	<stop  offset="0.4888" style="stop-color:#E3EBFF"/>
	<stop  offset="0.4889" style="stop-color:#D1E5EE"/>
	<stop  offset="0.489" style="stop-color:#B3C2D9"/>
</linearGradient>
<path class="st7" d="M2.9,11.4l8.7-1.6l-5.8,9.9L2.9,11.4z"/>
<linearGradient id="SVGID_5_" gradientUnits="userSpaceOnUse" x1="32.1557" y1="56.8969" x2="34.5254" y2="52.7619" gradientTransform="matrix(1 0 0 -1 0 67.8898)">
	<stop  offset="0.4888" style="stop-color:#E3EBFF"/>
	<stop  offset="0.4889" style="stop-color:#D1E5EE"/>
	<stop  offset="0.489" style="stop-color:#B3C2D9"/>
</linearGradient>
<path class="st8" d="M36.3,11.4l-3,8.3l-5.8-9.9L36.3,11.4z"/>
<linearGradient id="SVGID_6_" gradientUnits="userSpaceOnUse" x1="7.0576" y1="37.0212" x2="4.6879" y2="41.1564" gradientTransform="matrix(1 0 0 -1 0 67.8898)">
	<stop  offset="0.4888" style="stop-color:#E3EBFF"/>
	<stop  offset="0.4889" style="stop-color:#D1E5EE"/>
	<stop  offset="0.489" style="stop-color:#B3C2D9"/>
</linearGradient>
<path class="st9" d="M2.9,30.5l3-8.3l5.8,9.9L2.9,30.5z"/>
<linearGradient id="SVGID_7_" gradientUnits="userSpaceOnUse" x1="10.2001" y1="57.9106" x2="29.7075" y2="35.989" gradientTransform="matrix(1 0 0 -1 0 67.8898)">
	<stop  offset="0" style="stop-color:#D5E3FF"/>
	<stop  offset="0.5208" style="stop-color:#F0F5FF"/>
	<stop  offset="1" style="stop-color:#D0DFFE"/>
</linearGradient>
<linearGradient id="SVGID_8_" gradientUnits="userSpaceOnUse" x1="19.7866" y1="61.7805" x2="19.7866" y2="32.4948" gradientTransform="matrix(1 0 0 -1 0 67.8898)">
	<stop  offset="0" style="stop-color:#FFFFFF;stop-opacity:0.5"/>
	<stop  offset="1" style="stop-color:#FFFFFF;stop-opacity:0"/>
</linearGradient>
<path class="st10" d="M34,20.8c0,7.8-6.4,14.1-14.3,14.1c-7.9,0-14.3-6.3-14.3-14.1c0-7.8,6.4-14.1,14.3-14.1
	C27.7,6.6,34,12.9,34,20.8z"/>
<g>
	
		<linearGradient id="SVGID_9_" gradientUnits="userSpaceOnUse" x1="11.6277" y1="57.0555" x2="28.0331" y2="37.1136" gradientTransform="matrix(1 0 0 -1 0 67.8898)">
		<stop  offset="0" style="stop-color:#B1CCFF"/>
		<stop  offset="1" style="stop-color:#D5E3FF"/>
	</linearGradient>
	<ellipse class="st11" cx="19.8" cy="20.8" rx="13" ry="12.9"/>
</g>
<g>
	
		<linearGradient id="SVGID_10_" gradientUnits="userSpaceOnUse" x1="15.298" y1="57.1513" x2="24.0762" y2="37.5678" gradientTransform="matrix(1 0 0 -1 0 67.8898)">
		<stop  offset="0" style="stop-color:#78A6FF"/>
		<stop  offset="0.4844" style="stop-color:#376EC1"/>
		<stop  offset="1" style="stop-color:#1352B0"/>
	</linearGradient>
	<ellipse class="st12" cx="19.8" cy="20.8" rx="10.8" ry="10.7"/>
</g>
<g>
	
		<linearGradient id="SVGID_11_" gradientUnits="userSpaceOnUse" x1="13.2356" y1="48.04" x2="17.5941" y2="44.8463" gradientTransform="matrix(1 0 0 -1 0 67.8898)">
		<stop  offset="0" style="stop-color:#90BDFF"/>
		<stop  offset="1" style="stop-color:#408CFF"/>
	</linearGradient>
	<path class="st13" d="M15.1,23.5c-0.7-2,1.5-3.7,3.2-2.6c1.8,1.2,1,4-1.2,4C16.2,24.9,15.4,24.3,15.1,23.5z"/>
	
		<linearGradient id="SVGID_12_" gradientUnits="userSpaceOnUse" x1="24.8953" y1="49.7387" x2="22.2702" y2="44.9781" gradientTransform="matrix(1 0 0 -1 0 67.8898)">
		<stop  offset="0" style="stop-color:#90BDFF"/>
		<stop  offset="1" style="stop-color:#408CFF"/>
	</linearGradient>
	<path class="st14" d="M24.4,23.5c0.7-2-1.5-3.8-3.2-2.6c-1.8,1.2-1,4,1.2,4C23.3,24.9,24.1,24.3,24.4,23.5z"/>
	
		<linearGradient id="SVGID_13_" gradientUnits="userSpaceOnUse" x1="17.4941" y1="45.7132" x2="22.1476" y2="45.7132" gradientTransform="matrix(1 0 0 -1 0 67.8898)">
		<stop  offset="0.4973" style="stop-color:#90BDFF"/>
		<stop  offset="0.4974" style="stop-color:#408CFF"/>
	</linearGradient>
	<path class="st15" d="M17.3,20.9c1-2.1,4-2.1,5,0c0.9,1.9-0.4,4-2.5,4S16.4,22.8,17.3,20.9z"/>
	<defs>
		<filter id="Adobe_OpacityMaskFilter" filterUnits="userSpaceOnUse" x="20.8" y="17.2" width="3.1" height="9.2">
			<feColorMatrix  type="matrix" values="1 0 0 0 0  0 1 0 0 0  0 0 1 0 0  0 0 0 1 0"/>
		</filter>
	</defs>
	<mask maskUnits="userSpaceOnUse" x="20.8" y="17.2" width="3.1" height="9.2" id="mask0_296_114_1_">
		
			<linearGradient id="SVGID_14_" gradientUnits="userSpaceOnUse" x1="17.4941" y1="45.7132" x2="22.1476" y2="45.7132" gradientTransform="matrix(1 0 0 -1 0 67.8898)">
			<stop  offset="0.4167" style="stop-color:#B1B0D8"/>
			<stop  offset="0.4974" style="stop-color:#FFCC1D"/>
		</linearGradient>
		<path class="st16" d="M17.3,20.9c1-2.1,4-2.1,5,0c0.9,1.9-0.4,4-2.5,4S16.4,22.8,17.3,20.9z"/>
	</mask>
	<g class="st17">
		<g>
			<ellipse transform="matrix(0.9789 -0.2044 0.2044 0.9789 -3.9866 5.0411)" class="st18" cx="22.4" cy="21.8" rx="1.3" ry="4.7"/>
		</g>
	</g>
	
		<linearGradient id="SVGID_15_" gradientUnits="userSpaceOnUse" x1="19.7882" y1="53.5663" x2="19.7882" y2="51.9277" gradientTransform="matrix(1 0 0 -1 0 67.8898)">
		<stop  offset="0" style="stop-color:#B0C6FF"/>
		<stop  offset="1" style="stop-color:#408CFF"/>
	</linearGradient>
	<ellipse class="st19" cx="19.8" cy="15.1" rx="0.8" ry="0.8"/>
	
		<linearGradient id="SVGID_16_" gradientUnits="userSpaceOnUse" x1="13.2653" y1="51.034" x2="13.2653" y2="49.6934" gradientTransform="matrix(1 0 0 -1 0 67.8898)">
		<stop  offset="0" style="stop-color:#B0C6FF"/>
		<stop  offset="1" style="stop-color:#408CFF"/>
	</linearGradient>
	<ellipse class="st20" cx="13.3" cy="17.5" rx="0.7" ry="0.7"/>
	
		<linearGradient id="SVGID_17_" gradientUnits="userSpaceOnUse" x1="26.2765" y1="51.034" x2="26.2765" y2="49.6934" gradientTransform="matrix(1 0 0 -1 0 67.8898)">
		<stop  offset="0" style="stop-color:#B0C6FF"/>
		<stop  offset="1" style="stop-color:#408CFF"/>
	</linearGradient>
	<ellipse class="st21" cx="26.3" cy="17.5" rx="0.7" ry="0.7"/>
	
		<linearGradient id="SVGID_18_" gradientUnits="userSpaceOnUse" x1="15.6973" y1="41.7137" x2="23.9072" y2="41.7137" gradientTransform="matrix(1 0 0 -1 0 67.8898)">
		<stop  offset="0" style="stop-color:#90BDFF"/>
		<stop  offset="1" style="stop-color:#458FFF"/>
	</linearGradient>
	<path class="st22" d="M16.2,25.6h7.1c0.3,0,0.6,0.2,0.6,0.6v0c0,0.3-0.2,0.6-0.6,0.6h-7.1c-0.3,0-0.6-0.2-0.6-0.6v0
		C15.6,25.9,15.9,25.6,16.2,25.6z"/>
</g>
<path class="st4" d="M14,11.5l0.3,0.8l0.8,0.3l-0.8,0.3L14,13.6l-0.3-0.8l-0.8-0.3l0.8-0.3L14,11.5z"/>
<path class="st4" d="M10.8,7.9l0.6,1.9l1.9,0.6L11.4,11l-0.6,1.9L10.2,11l-1.9-0.6l1.9-0.6L10.8,7.9z"/>
<g>
	
		<linearGradient id="SVGID_19_" gradientUnits="userSpaceOnUse" x1="9.4697" y1="36.7998" x2="30.2037" y2="37.0308" gradientTransform="matrix(1 0 0 -1 0 67.8898)">
		<stop  offset="0" style="stop-color:#8FBCFF"/>
		<stop  offset="1" style="stop-color:#408CFF"/>
	</linearGradient>
	<path class="st23" d="M8.2,30.1l2.9,4.6c7.7-4.1,15.1-1.1,17.3,0l2.9-4.6c-0.8-0.9-4.3-2.9-11.5-2.9C12.6,27.1,9.1,29.1,8.2,30.1z"
		/>
</g>
</svg>
