<?xml version="1.0" standalone="no"?>
<!DOCTYPE svg PUBLIC "-//W3C//DTD SVG 1.1//EN" "http://www.w3.org/Graphics/SVG/1.1/DTD/svg11.dtd" >
<svg xmlns="http://www.w3.org/2000/svg">
<metadata>Generated by IcoMoon</metadata>
<defs>
<font id="icomoon" horiz-adv-x="1024">
<font-face units-per-em="1024" ascent="960" descent="-64" />
<missing-glyph horiz-adv-x="1024" />
<glyph unicode="&#x20;" horiz-adv-x="512" d="" />
<glyph unicode="&#xe900;" glyph-name="appdownload" d="M204.917 175.020v-102.748c0-37.878 30.477-68.353 68.353-68.353h477.605c37.878 0 68.353 30.477 68.353 67.918 0 0 0 0 0 0.435v102.748h-614.312zM204.917 243.375h614.312v580.353c0 37.878-30.477 68.353-68.353 68.353h-477.605c-37.878 0-68.353-30.477-68.353-68.353v-580.353zM238.877-64c-56.598 0-102.313 45.713-102.313 102.313 0 0 0 0 0 0v819.373c0 56.598 45.713 102.313 102.313 102.313v0h545.958c56.598 0 102.313-45.713 102.313-102.313 0 0 0 0 0 0v-819.373c0-56.598-45.713-102.313-102.313-102.313v0h-545.958zM563.23 89.688c0-28.299-23.075-51.374-51.374-51.374s-51.374 23.075-51.374 51.374c0 28.299 23.075 51.374 51.374 51.374 28.299-0.435 51.374-23.075 51.374-51.374v0z" />
<glyph unicode="&#xe901;" glyph-name="bet" d="M200.944 813.843h438.651v-73.168h-438.651v73.168zM200.944 667.506h438.651v-73.168h-438.651v73.168zM200.944 521.168h219.506v-73.168h-219.506v73.168zM200.944 155.325h146.337v-73.168h-146.337v73.168zM994.624 327.614l-109.933 109.933c-14.417 14.417-37.485 14.417-51.543 0l-339.531-339.891v-161.475h161.475l339.891 339.891c13.696 14.417 13.696 37.485-0.36 51.543zM624.456 9.349h-58.031v58.031l182.741 182.741 58.031-58.031-182.741-182.741zM859.1 243.993l-58.031 57.669 58.031 58.031 58.031-58.031-58.031-57.669zM346.92-63.819h-219.145c-40.369 0-73.168 32.8-73.168 73.168v877.662c0 40.369 32.8 73.168 73.168 73.168h585.349c40.369 0 73.168-32.8 73.168-73.168v-365.843h-73.168v365.843h-585.349v-877.662h219.506l-0.36-73.168z" />
<glyph unicode="&#xe902;" glyph-name="fav" d="M512 777.367l69.818-135.296 149.497-21.695-109.657-99.007 36.684-146.342-146.342 82.441-146.342-82.441 36.684 146.342-109.657 98.613 153.443 21.695 65.873 135.692zM575.507-27.315l-63.507 36.684 146.342 256h219.316c40.234 0 72.973 32.739 72.973 72.973 0 0 0 0 0 0.394v438.632c0 40.234-32.739 72.973-72.973 72.973 0 0 0 0-0.394 0h-730.921c-40.234 0-72.973-32.739-72.973-72.973 0 0 0 0 0-0.394v-438.632c0-40.234 32.739-72.973 72.973-72.973 0 0 0 0 0.394 0h328.973v-72.973h-328.973c-80.862 0-146.342 65.479-146.342 146.342 0 0 0 0 0 0v438.632c0 80.862 65.479 146.342 146.342 146.342h731.315c80.862 0 146.342-65.479 146.342-146.342v-438.632c0-80.862-65.479-146.342-146.342-146.342h-176.715l-125.83-219.71z" />
<glyph unicode="&#xe903;" glyph-name="news" d="M73.143 338.286v-73.143h130.992l-204.135-204.135 51.533-51.533 204.135 204.135v-130.992h73.143v256h-255.668zM621.714 704h256v-73.143h-256v73.143zM621.714 521.143h256v-73.143h-256v73.143zM621.714 338.286h256v-73.143h-256v73.143zM950.525 886.857h-877.382c-40.228 0-73.143-32.915-73.143-73.143v-365.714h73.143v365.714h402.286v-731.096h475.429c40.228 0 73.143 32.915 73.143 73.143v657.953c-0.332 40.228-32.915 73.143-73.475 73.143zM548.571 155.429v658.286h402.286v-657.953h-402.286z" />
<glyph unicode="&#xe904;" glyph-name="results" d="M592.903 66.352c-16.593-3.239-33.187-6.072-50.185-7.286v184.549c-32.377 48.566-49.779 106.44-49.779 165.934 0 60.707 18.618 117.368 49.779 164.719v311.631c78.92-6.476 154.602-36.020 217.333-84.182-25.901-33.997-47.755-71.23-65.16-109.679 27.115 9.308 55.851 14.569 85.799 15.782 9.308 16.189 19.425 31.973 30.758 47.352 15.379-16.593 29.544-34.401 42.090-53.422 36.83-7.689 70.824-22.258 101.178-42.090-73.253 174.837-245.661 297.466-446.806 297.466 0 0 0 0 0 0-267.516 0-484.041-216.929-484.041-484.041 0-267.516 216.929-484.041 484.041-484.041 28.734 0 57.065 2.429 84.585 7.286v70.017zM204.779 754.371c53.422-72.446 86.203-157.838 94.704-247.28h-204.381c7.689 92.275 46.136 179.287 109.679 247.28zM95.103 437.881v0h204.381c-8.5-89.442-41.28-174.837-94.704-247.28-63.541 67.587-101.99 154.602-109.679 247.28zM473.917 59.070c-78.92 6.476-154.602 36.020-217.333 84.182 64.755 85.395 103.607 187.385 112.107 294.227h105.224v-378.408zM368.691 507.088c-8.5 106.846-47.755 208.831-112.107 294.227 62.731 48.566 138.411 77.706 217.333 84.182l0.404-378.812h-105.633zM999.532 403.077c0.404 114.536-92.68 207.618-207.214 208.024s-207.618-92.68-208.024-207.214c0-59.088 25.094-115.749 69.206-155.005v-260.636l138.818 65.563 138.411-65.563v260.636c43.709 39.259 68.803 95.514 68.803 154.198zM861.525 97.517l-69.206 32.783-69.206-32.783v110.083c44.519-16.189 93.488-16.189 138.411 0v-110.083zM792.318 264.664c-76.492 0-138.411 61.921-138.411 138.411s61.921 138.411 138.411 138.411 138.411-61.921 138.411-138.411v0c-0.404-76.088-62.327-138.411-138.411-138.411z" />
<glyph unicode="&#xe905;" glyph-name="service" d="M950.966 813.932h-877.932c-40.322 0-73.034-32.713-73.034-73.034v-585.034c0-40.322 32.713-73.034 73.034-73.034h877.932c40.322 0 73.034 32.713 73.034 73.034v584.654c0 40.702-32.713 73.414-73.034 73.414zM658.068 155.483h-292.517v73.034c0 20.161 16.357 36.516 36.516 36.516h219.483c20.161 0 36.516-16.357 36.516-36.516v-73.034zM950.966 155.483h-219.483v73.034c0 60.481-49.070 109.551-109.551 109.551h-219.483c-60.481 0-109.551-49.070-109.551-109.551v0-73.034h-219.863v585.034h877.932v-585.034zM512 374.966c80.642 0 146.449 65.427 146.449 146.449s-65.427 146.449-146.449 146.449c-80.642 0-146.068-65.427-146.449-146.068 0-81.402 65.427-146.829 146.449-146.829v0zM512 594.449c40.322 0 73.034-32.713 73.034-73.034s-32.713-73.034-73.034-73.034c-40.322 0-73.034 32.713-73.034 73.034s32.713 73.034 73.034 73.034z" />
<glyph unicode="&#xe906;" glyph-name="volleyball" d="M277.334 819.451c-23.843-40.994-42.666-84.915-56.053-130.51-10.458-36.393-17.15-74.039-19.242-112.104 5.857 0 11.294-0.418 17.15-0.418 44.759 0 89.516 6.693 132.602 19.66 7.529 49.778 21.334 98.719 41.412 145.15 23.006 53.542 54.379 102.902 93.698 145.568-74.457-4.183-146.405-27.189-209.569-67.347zM209.987 767.162c-51.032-48.105-89.935-107.921-112.942-174.432 22.588-6.275 45.177-10.458 68.601-13.385 4.183 64.837 19.242 128.419 44.341 187.817v0zM537.517 886.379c-22.588-22.17-43.503-46.431-61.908-72.366-43.085-61.072-71.948-130.51-84.915-204.13 116.287 47.267 208.313 140.131 254.326 256.836-34.719 10.876-70.692 17.569-107.503 19.66v0zM80.314 366.432c8.784-46.849 25.517-92.026 48.941-133.856 47.267-9.202 94.954-14.641 143.058-15.477 69.438-2.092 138.457 9.622 203.294 35.137 56.889 22.588 110.013 53.542 157.281 92.444-7.529 41.83-20.496 82.824-39.32 120.889-153.516-92.862-335.477-127.999-513.254-99.137v0zM74.877 404.079c42.666-4.601 81.15-7.529 135.111-8.366 76.131-2.092 151.425 10.040 222.954 35.973 49.36 17.987 97.463 40.576 143.476 66.509-25.935 43.503-58.562 82.824-97.463 115.451-117.125-72.366-259.347-92.444-392.366-55.635-9.202-35.555-13.805-72.366-13.805-109.595 0-15.059 0.836-29.7 2.092-44.341v0zM156.445 190.746c35.137-48.523 79.896-89.516 131.346-120.052 25.517-4.183 51.87-6.693 77.803-6.693 40.576 0.418 81.15 5.857 120.47 15.895 49.36 12.967 95.791 34.301 137.203 63.582 10.876 39.738 16.313 80.314 16.313 121.308 0 12.549-0.418 25.099-1.672 37.229-136.366-104.575-312.471-145.15-481.464-111.268v0zM384.837 28.026c57.725-17.569 118.797-22.588 178.615-15.477 16.313 24.261 30.118 50.196 41.412 76.967-67.765-37.647-143.058-58.562-220.025-61.49v0zM623.686 750.013l-52.288-63.164-61.072-52.288c32.208-28.863 60.236-61.49 84.497-97.463 28.026-40.576 48.941-85.751 62.326-133.020 12.967-45.177 19.66-92.026 19.242-138.875-0.418-47.267-7.111-94.118-20.078-139.293-10.458-36.811-25.517-72.366-44.759-105.412 35.555 8.784 70.274 21.334 102.902 38.065 31.79 16.313 61.072 36.393 87.425 60.236 13.805 53.124 20.496 107.921 20.496 162.72-0.418 69.856-11.712 138.875-33.883 204.968-19.242 57.307-46.013 111.686-79.477 161.882-24.679 37.229-53.124 71.112-85.333 101.648v0zM644.184 781.385c51.87-50.196 96.209-107.503 131.346-170.667 25.099-44.341 44.759-91.19 58.143-140.131 17.569-61.49 25.935-125.072 25.517-188.653 0-38.065-3.347-76.131-9.202-113.36 65.255 78.641 100.81 177.777 100.81 279.843-0.418 62.744-14.223 124.654-40.156 181.542-23.843 51.45-56.889 97.883-97.463 137.621-38.484 37.229-84.078 66.509-133.856 86.589-9.622-25.099-21.334-49.36-35.137-72.784v0zM512-64c-282.771 0-512 229.229-512 512s229.229 512 512 512 512-229.229 512-512c-0.418-282.771-229.647-511.582-512-512v0z" />
<glyph unicode="&#xe907;" glyph-name="tennis" d="M772.999 477.48l86.865 86.865-86.865 86.865-86.865-86.865 86.865-86.865zM799.756 450.709l60.108-60.108c28.306 32.576 49.646 70.198 62.831 111.301l-36.073 36.073-86.865-87.253zM936.655 641.136c-4.657 45.375-22.1 88.428-50.033 124.1l-86.865-86.865 86.865-86.865 50.033 49.646zM938.589 589.556l-24.823-24.823 19.779-19.779c2.709 14.733 4.271 29.48 5.044 44.601v0zM745.854 450.709l-86.865 86.865-86.865-86.865 86.865-86.865 86.865 86.865zM772.999 423.951l-86.865-86.865 36.847-36.847c40.717 13.573 78.338 35.285 110.528 63.605l-60.495 60.108zM580.649 285.504l51.193 51.193-86.865 86.865-86.865-86.865c35.285-28.306 77.564-46.149 122.553-51.193v0zM632.216 282.795c16.296 0.774 32.189 2.322 48.084 5.432l-21.326 21.326-26.758-26.758zM571.721 678.744l86.865-86.865 86.865 86.865-86.865 86.865-86.865-86.865zM544.963 705.502l86.865 86.865-36.073 36.073c-41.105-13.186-79.112-34.512-111.301-62.831l60.495-60.108zM735.764 842.401l-50.033-50.033 86.865-86.865 86.865 86.865c-35.672 27.919-78.725 45.375-123.713 50.033v0zM683.796 844.35c-15.12-0.774-29.867-2.322-44.988-5.044l19.779-19.779 25.21 24.823zM544.963 651.599l-86.865-86.865 86.865-86.865 86.865 86.865-86.865 86.865zM518.206 678.357l-60.108 60.108c-28.306-32.189-50.033-69.811-63.605-110.528l36.847-36.847 86.865 87.253zM379.76 486.395c5.432-44.988 23.275-87.253 51.581-122.553l86.865 86.865-86.865 86.865-51.581-51.193zM377.423 537.588l26.758 26.758-21.326 21.326c-3.096-15.507-5.044-31.803-5.432-48.084v0zM331.274 381.686c-29.48-95.794-72.132-186.545-126.422-270.701l-1.547-1.547c35.285 27.145 74.068 48.858 115.185 65.152 23.662 10.477 49.646 21.326 77.951 32.576 25.21 10.090 51.581 20.165 78.338 29.867-63.605 29.079-114.798 80.274-143.491 144.652v0zM301.035 524.404c0 105.483 41.491 207.096 115.96 281.937 142.717 142.717 385.486 151.632 510.36 26.758s115.96-367.643-26.758-510.36c-74.841-74.454-176.455-116.347-281.937-115.96l-1.547-0.387-16.296-5.432c-13.186-4.271-27.919-9.302-43.44-15.12-44.988-15.894-89.975-32.576-132.24-48.858-27.145-10.863-52.742-21.326-74.841-31.416-33.35-13.186-64.766-30.255-93.845-51.193l-107.418-107.418c-14.733-14.733-38.782-14.733-53.902 0l-53.902 53.902c-14.733 14.733-14.733 38.782 0 53.902l105.87 105.87c34.125 43.053 86.478 165.592 153.58 362.998l0.387 0.774zM114.49 736.143c13.959 58.948 59.335 105.87 117.894 121.391-10.090 29.867-34.512 52.742-65.152 60.882-15.894-56.239-60.108-100.051-116.734-114.798 7.753-32.189 32.189-57.786 63.992-67.475v0zM152.498 732.273c45.375 5.044 81.047 41.491 84.544 86.865-41.105-12.411-72.907-45.375-84.544-86.865zM48.563 842.801c36.847 12.411 65.927 41.105 79.112 77.951-40.33-6.206-72.132-37.622-79.112-77.951v0zM142.409 693.878c-73.294 0-133.014 59.335-133.014 133.014 0 73.294 59.335 133.014 133.014 133.014 73.294 0 133.014-59.335 133.014-133.014 0-73.294-59.721-133.014-133.014-133.014v0z" />
<glyph unicode="&#xe908;" glyph-name="soccer" d="M300.467 236.052c57.35-28.259 119.687-43.22 183.688-44.883l108.051 123.845c1.246 72.727-15.377 145.039-49.039 209.87l-213.61 49.87c-44.468-44.468-78.961-98.494-100.988-157.506l71.896-181.195zM289.246 201.143l-72.312-60.26c39.48-35.324 84.779-63.585 133.818-83.532 51.116-20.778 105.559-31.168 160.831-30.338 21.611 0 42.805 1.662 64 4.571l-92.675 123.428c-66.91 1.246-132.987 17.038-193.662 46.13v0zM73.975 438.025h123.428c24.519 62.754 62.337 119.687 110.545 166.649v132.987c-42.805 10.39-86.857 14.13-130.908 11.221-33.663-40.728-60.26-86.442-78.546-136.312-17.455-46.96-25.767-97.247-25.351-147.117 0-9.142 0.415-18.286 0.831-27.428v0zM807.065 322.909c38.234 38.649 68.571 84.363 90.182 133.818l-58.181 198.649c-49.87 25.351-103.895 40.728-159.169 45.714l-98.909-169.974c29.507-61.091 46.13-127.585 47.793-195.324l178.286-12.882zM828.259 292.156v-130.908c34.078 36.157 62.337 77.713 83.532 122.597 22.026 47.376 35.324 98.909 38.234 151.273l-20.778 3.74c-24.519-54.856-58.597-104.728-100.988-146.702v0zM853.195 741.402c-32.416 39.064-70.65 72.312-113.455 98.909-45.299 28.259-95.169 47.376-147.533 56.52-14.546-17.455-28.259-35.74-39.895-54.856l119.687-103.48c58.597-3.74 115.947-18.701 169.142-43.636l12.052 46.545zM515.74 852.778c10.39 17.455 21.611 34.078 34.078 50.285-12.467 0.831-24.936 1.662-37.403 1.662-55.273-0.415-110.13-10.805-161.663-30.753-51.116-19.948-98.078-49.454-137.558-87.273 34.493-0.415 68.571-4.987 102.234-12.882 1.246 1.246 2.909 2.079 4.571 2.909l195.739 76.052zM512-46.545c-282.597 0-512 229.402-512 512s229.402 512 512 512 512-229.402 512-512c0-282.597-228.986-512-512-512 0 0 0 0 0 0v0z" />
<glyph unicode="&#xe909;" glyph-name="icehockey" d="M702.039 599.366l111.445-66.951 36.179 69.445-111.445 66.534-36.179-69.029zM684.573 566.099l-160.514-306.058c-16.217-31.188-52.812-46.158-86.080-35.346l-227.465 71.525c-54.475 17.049-112.693-12.89-129.742-67.367-2.911-9.981-4.574-19.96-4.99-30.356l-0.416-77.761v-0.831c0-56.97 46.158-103.544 103.544-103.128v0h313.127c32.019 0 61.128 17.882 75.683 46.158l227.881 436.217-111.029 66.951zM755.682 701.663l111.029-66.534 75.267 144.297c17.049 32.852 5.405 73.188-26.614 91.485l-2.080 1.247c-29.525 15.386-66.118 4.158-81.504-25.367l-76.099-145.128zM120.694 680.039v-75.267c0-53.228 78.594-97.723 187.128-97.723 108.118 0 187.128 44.495 187.128 97.723v81.504c-56.139-35.762-121.841-52.396-187.959-48.238-64.871-4.158-129.742 9.981-186.297 42v0zM120.694 750.315c0-45.742 69.029-74.852 185.881-74.852 106.455 0 180.058 31.188 187.959 74.852-4.158 51.148-81.504 93.147-186.712 93.147-104.793 0-182.97-42-187.128-93.147v0zM307.406 470.040c-125.999 0-224.554 55.308-224.554 135.149v141.385c0 79.426 98.139 135.149 224.554 135.149s224.554-55.308 224.554-135.149v-141.385c0.831-79.010-97.307-134.732-223.722-134.732l-0.831-0.416zM765.247 881.306c34.515 66.118 116.436 91.485 182.554 56.97l4.574-2.496c66.534-38.673 91.069-122.673 55.308-190.87l-374.256-716.492c-27.861-52.812-82.337-86.080-142.217-86.080h-312.712c-98.554 0-178.396 79.426-178.396 177.98v1.247l0.416 77.761c0.831 98.554 81.088 177.564 179.227 176.731 17.882 0 35.346-2.911 52.396-8.317l225.385-71.109 307.722 584.672z" />
<glyph unicode="&#xe90a;" glyph-name="handball" d="M875.736 365.482c28.738 29.559 52.959 63.633 71.023 100.582 0.41 8.21 0.821 16.421 0.821 24.633 0 57.475-13.136 114.129-38.59 165.446-45.159 23.811-94.423 38.18-144.92 43.106l-84.571-144.92c28.328-55.013 44.338-115.772 47.212-177.762l149.026-11.085zM898.726 334.282v-28.738c10.674 18.474 19.295 37.769 26.685 57.475-8.621-9.853-17.243-19.705-26.685-28.738v0zM860.546 250.943v77.592l-144.098 10.674-97.297-111.256 69.38-92.782c67.328 21.759 126.446 61.992 172.015 115.772v0zM649.12 124.907l-63.223 84.571c-73.487 1.641-145.741 22.169-208.964 59.939-9.031 5.336-11.905 17.243-6.569 26.274s17.243 11.905 26.274 6.569c57.475-34.485 123.162-52.959 190.079-54.602l103.044 118.234c-1.231 60.759-16.421 120.698-44.749 174.478l-217.585 50.495v176.531l193.774 75.539c3.284 5.748 6.979 11.495 10.674 17.243-18.885 2.874-38.18 4.516-57.475 4.516-59.939 0-119.467-14.369-172.836-41.875-18.474-10.264-41.875-3.284-52.138 15.19s-3.284 41.875 15.19 52.138c0.41 0.41 0.821 0.41 1.231 0.821 220.459 114.539 492.234 29.149 607.185-191.721 114.951-220.459 29.149-492.234-191.721-607.185-129.731-67.328-284.092-67.739-413.821-0.821-19.295 9.031-27.505 32.023-18.474 50.907 9.031 19.295 32.023 27.505 50.907 18.474 0.821-0.41 1.641-0.821 2.464-1.231 76.359-39.411 162.983-51.318 246.733-34.485v0zM756.68 738.66c39.823-2.874 79.234-11.085 117.003-24.633-50.085 67.328-121.108 115.772-201.985 137.531-5.748-8.21-11.495-16.421-16.831-25.043l101.813-87.854zM0.061-44.644v458.98l76.359 344.441 76.359 153.131c7.39 15.6 20.938 34.074 39.823 23.811 12.726-6.979 11.905-27.505-1.231-61.992l-38.18-114.951v-306.262l38.18-153.131 114.951 229.49c13.136 19.705 39.411 25.864 59.939 13.959 17.243-11.085 24.633-32.843 16.421-52.138l-76.359-306.262-114.951-114.951v-114.951l-191.31 0.821zM623.667 803.115l-158.877-61.992v-119.877l184.331-43.106 78.413 135.067-103.866 89.908z" />
<glyph unicode="&#xe90b;" glyph-name="basketball" d="M77.576 510.469c-18.781-131.878 23.272-265.391 114.323-362.565 55.12 204.147 183.324 380.53 360.524 496.077-18.781 18.781-38.379 36.747-59.203 53.894-44.096-25.315-93.091-41.238-143.719-46.545-12.248-1.224-24.498-2.042-37.155-2.042-94.724-10.208-180.465-60.835-234.769-138.82zM95.541 587.228c67.776 64.102 157.193 100.032 250.284 100.44 40.421 4.491 79.617 16.331 115.955 35.113-55.528 41.238-115.955 74.31-180.465 99.216-87.374-54.304-153.11-137.187-185.774-234.769v0zM609.174 875.892c-31.848 7.349-64.51 11.024-97.174 11.024-65.326 0-129.838-14.699-189.040-42.87 61.653-26.539 119.63-60.427 172.708-101.665 49.403 33.48 88.6 79.617 113.505 133.512v0zM645.104 866.093c-26.131-58.795-67.368-109.83-119.63-147.393 20.414-17.149 40.013-35.522 58.795-54.712 72.676 43.688 151.068 77.168 233.135 99.216-48.995 47.363-107.79 82.475-172.3 102.891v0zM490.768 9.902c30.214 81.659 43.28 168.625 39.605 255.591v40.013c0.816 90.233 41.238 175.566 110.24 233.953-19.19 26.947-40.013 53.078-62.469 77.576-178.016-114.323-305.404-292.746-355.623-498.526 74.31-65.736 169.033-104.115 268.249-108.606v0zM530.781 9.902c99.216 4.083 193.94 41.646 268.657 106.973-14.699 139.636-62.061 273.964-138.003 392.37-60.019-51.853-94.315-127.387-94.315-207.004v-36.747c2.45-86.966-9.8-173.116-36.339-255.591v0zM936.626 559.056c-81.659 30.214-173.116 20.006-246.201-27.763 74.718-115.547 123.305-246.201 142.086-382.98 102.481 110.24 141.678 264.983 104.115 410.743zM923.151 601.926c-17.965 47.771-44.096 92.275-77.576 131.47-82.883-20.414-162.502-52.67-235.993-96.358 21.64-24.089 41.646-48.995 60.019-75.534 50.629 33.48 110.24 51.445 171.075 51.445 28.173-0.408 55.528-4.083 82.475-11.024v0zM512-64c-282.54 0-512 229.052-512 512s229.052 512 512 512 512-229.052 512-512-229.46-512-512-512v0z" />
<glyph unicode="&#xe90c;" glyph-name="home" d="M1008.741 582.043h-120.868c72.186-206.484-36.513-432.274-242.577-504.459-141.433-49.523-298.815-15.109-406.673 89.392l447.803-0.42c29.378 0.839 54.558 20.564 62.532 48.684l78.061 304.689 1.259 2.938v2.519c2.938 13.429-0.42 27.699-8.813 38.611-9.232 11.332-23.502 18.047-38.191 17.627h-384.010l-28.538-110.377h331.549l-2.519-10.073-47.424-184.241h-617.354c96.107-265.659 389.046-403.315 654.707-307.208 202.707 73.444 337.845 265.659 337.845 481.376 0.42 44.487-5.455 88.134-16.787 130.941zM118.173 451.102c0 218.655 177.106 395.761 395.761 395.761 102.823 0 201.868-39.869 275.732-111.636l-447.803 0.42c-29.378-0.839-54.558-20.564-62.532-48.684l-78.061-304.689-1.259-2.938v-2.519c-2.938-13.429 0.42-27.279 8.813-38.191 9.232-11.751 23.502-18.047 38.191-18.047h384.010l28.538 110.377-331.549 0.42 2.519 9.654 47.424 184.241h617.774c-96.107 265.659-389.465 403.315-655.126 307.208-202.707-73.444-337.425-265.659-337.425-480.956 0-44.066 5.455-88.134 16.787-130.941h120.868c-15.109 41.968-22.663 86.034-22.663 130.521zM545.411 277.353v0 0z" />
<glyph unicode="&#xe90d;" glyph-name="starf" d="M453.236 892.975c11.984 32.474 48.325 48.712 80.413 36.726 17.011-6.186 30.542-19.717 36.726-36.726l99.356-262.5 293.815-8.892c34.021-0.386 61.082-28.608 60.696-62.629-0.386-19.329-9.665-37.113-24.742-48.712l-230.412-170.876 81.186-266.752c7.732-25.515-1.934-53.35-23.969-68.041-20.876-14.691-49.098-15.077-70.361-1.159l-243.557 157.733-243.557-157.733c-21.649-13.918-49.485-13.531-70.361 1.159-22.036 15.077-31.701 42.526-23.969 68.041l81.186 266.752-230.412 170.876c-27.449 20.104-33.247 58.764-12.758 86.211 11.598 15.463 29.381 24.742 48.712 24.742l293.815 8.892 98.196 262.886zM948.857 578.67v0z" />
<glyph unicode="&#xe90e;" glyph-name="star" d="M453.236 892.975c11.984 32.474 48.325 48.712 80.413 36.726 17.011-6.186 30.542-19.717 36.726-36.726l99.356-262.5 293.815-8.892c34.021-0.386 61.082-28.608 60.696-62.629-0.386-19.329-9.665-37.113-24.742-48.712l-230.412-170.876 81.186-266.752c7.732-25.515-1.934-53.35-23.969-68.041-20.876-14.691-49.098-15.077-70.361-1.159l-243.557 157.733-243.557-157.733c-21.649-13.918-49.485-13.531-70.361 1.159-22.036 15.077-31.701 42.526-23.969 68.041l81.186 266.752-230.412 170.876c-27.449 20.104-33.247 58.764-12.758 86.211 11.598 15.463 29.381 24.742 48.712 24.742l293.815 8.892 98.196 262.886zM512 857.794l-101.289-257.088c-8.892-23.583-31.315-39.433-56.83-40.206h-264.82l213.402-177.835c20.876-15.463 29.767-42.139 22.422-67.268l-69.975-242.784 219.201 153.093c20.876 13.531 47.939 13.531 68.814 0l226.16-153.093-66.109 242.784c-7.345 24.742 1.546 51.805 22.422 67.268l223.454 177.835h-279.124c-25.129 0.773-47.551 16.624-56.83 40.206l-100.903 257.088zM948.857 578.67v0z" />
<glyph unicode="&#xe90f;" glyph-name="info" d="M298.668-3.787h-298.414v419.598h298.414v-419.598zM56.679 53.017h185.563v306.366h-185.563v-306.366zM661.461-3.787h-298.793v903.575h298.414v-903.575zM419.473 53.017h185.563v789.965h-185.563v-789.965zM1024.254-3.787h-298.414v661.586h298.414v-661.586zM782.266 53.017h185.563v547.977h-185.563v-547.977z" />
<glyph unicode="&#xe910;" glyph-name="live" d="M204.118 809.656c15.147-15.147 15.147-39.384 0-54.154-170.035-170.035-170.035-445.35 0-615.385 0 0 0 0 0 0v0c14.769-15.526 14.012-39.763-1.136-54.154-14.769-14.012-38.248-14.012-53.017 0-199.953 199.953-199.953 524.118 0 724.071 14.769 14.769 39.384 14.769 54.154-0.379v0zM874.036 809.656c199.953-199.953 199.953-524.118 0-724.071 0 0 0 0 0 0-15.526-14.39-40.143-13.255-54.154 2.651-13.255 14.769-13.255 37.113 0 51.882 170.035 170.035 170.035 445.35 0 615.385v0c-14.769 15.147-14.769 39.384 0.379 54.533 14.39 14.012 36.734 14.769 51.882 1.894l1.894-2.273zM349.16 664.995c14.769-15.147 14.769-39.384 0-54.154-90.13-90.13-90.13-235.929 0-325.68v0c14.39-15.526 13.255-40.143-2.651-54.154-14.769-13.255-37.113-13.255-51.882 0-120.048 120.048-120.048 314.32 0 434.366 0 0 0 0 0 0 15.147 14.769 39.384 14.769 54.533-0.379v0zM729.373 664.995c120.048-120.048 120.048-314.32 0-434.366 0 0 0 0 0 0-15.147-15.147-39.384-15.147-54.533 0-14.769 14.769-15.147 38.248-0.757 53.396l1.136 0.757c89.752 90.13 89.752 235.929 0 325.68v0c-15.147 15.147-15.147 39.384 0 54.154 14.769 15.147 39.006 15.147 54.154 0.379v0zM512 524.497c42.414 0 76.875-34.462 76.875-76.875s-34.462-76.875-76.875-76.875-76.875 34.462-76.875 76.875v0c0 42.414 34.462 76.875 76.875 76.875 0 0 0 0 0 0v0z" />
<glyph unicode="&#xe911;" d="M1024 447.555c0-282.769-229.229-512-512-512s-512 229.229-512 512c0 282.769 229.229 512 512 512s512-229.229 512-512z" />
<glyph unicode="&#xe912;" d="M629.092 473.822c16.918-12.466 20.48-36.508 8.014-53.871-2.227-3.117-4.897-5.787-8.014-8.014l-155.38-122.435c-19.145-16.028-47.639-13.356-63.667 5.787-5.787 7.124-9.349 15.583-10.241 24.932v244.424c2.227 24.932 24.487 43.187 49.419 40.96 8.904-0.89 17.808-4.452 24.932-10.241l154.935-121.544z" />
<glyph unicode="&#xe913;" d="M1024 447.555c0-282.769-229.229-512-512-512s-512 229.229-512 512c0 282.769 229.229 512 512 512s512-229.229 512-512z" />
<glyph unicode="&#xe914;" d="M394.908 421.286c-16.918 12.466-20.48 36.508-8.014 53.871 2.227 3.117 4.897 5.787 8.014 8.014l155.38 122.435c19.145 16.028 47.639 13.356 63.667-5.787 5.787-7.124 9.349-15.583 10.241-24.932v-244.424c-2.227-24.932-24.487-43.187-49.419-40.96-8.904 0.89-17.808 4.452-24.932 10.241l-154.935 121.544z" />
<glyph unicode="&#xe915;" glyph-name="delet" d="M570.708 448.809l440.918 441.322c16.195 16.195 16.195 42.512 0 58.708-16.599 15.79-42.512 15.79-58.708 0l-440.918-441.322-440.918 441.727c-16.599 15.385-42.107 15.385-58.708 0-16.195-16.195-16.195-42.512 0-58.708l440.918-441.727-441.322-441.322c-16.195-16.195-16.195-42.107-0.405-58.304 7.693-8.097 18.625-12.551 29.557-12.146v0c10.932 0 21.459 4.453 29.152 12.146l440.918 441.727 441.322-441.727c16.195-16.195 42.512-16.195 58.708 0.405 7.693 7.693 11.741 18.22 12.146 28.747v0c0 10.932-4.453 21.459-12.146 29.152l-440.513 441.322z" />
<glyph unicode="&#xe916;" glyph-name="biathlon" d="M487.313 683.379h-221.76c-32.774 0-59.589 26.816-59.589 59.589 0 33.201 26.816 59.589 59.589 59.589v0h398.4c32.774 0 59.589-26.39 60.015-59.164 0-14.047-4.682-27.241-13.194-37.883-2.129-2.98-4.256-5.96-6.811-8.513l-531.628-555.038c-22.134-23.41-59.164-24.261-82.574-1.702 0 0 0 0 0 0l-1.702 1.702c-22.985 22.985-23.41 60.015-0.851 83.425l265.6 277.944c-6.811 21.281-0.851 44.266 14.898 60.015l119.606 120.031zM748.232 824.694c-31.072 31.072-30.646 81.298 0.425 112.37s81.298 30.646 112.37-0.425c30.646-31.072 30.646-80.872 0-111.944-31.072-31.072-81.298-31.497-112.795 0 0.425-0.425 0 0 0 0zM136.584-58.514c-19.154-11.067-43.415-4.256-54.482 14.472-11.067 19.154-4.256 43.415 14.472 54.482v0l759.345 438.412c16.174 12.769 21.708 34.903 14.472 53.631-11.067 19.154-4.682 43.415 14.047 54.482 19.154 11.067 43.415 4.682 54.482-14.047v0c30.221-57.462 11.067-128.544-43.415-163.447l-758.92-437.985z" />
<glyph unicode="&#xe917;" glyph-name="back" d="M630.154 133.7l-309.117 297.976c-12.437 11.919-12.955 31.611-1.036 44.308 0.259 0.518 0.777 0.777 1.036 1.036l309.117 298.235c19.174 18.138 49.231 18.138 68.146 0 18.138-17.36 18.915-46.121 1.555-64.259-0.518-0.518-1.036-1.036-1.555-1.555l-264.291-254.964 264.551-254.964c18.138-17.36 18.915-46.121 1.555-64.259-0.518-0.518-1.036-1.036-1.555-1.555-19.174-18.397-48.972-18.397-68.405 0z" />
<glyph unicode="&#xe918;" glyph-name="earth" d="M513.575-67.151c-282.781 0-512 229.219-512 512s229.219 512 512 512 512-229.219 512-512-229.219-512-512-512zM928.69 487.778c0.787 0.394 1.181 1.181 1.575 2.364 0.787-3.545 2.364-6.696 4.726-9.059 0-0.394 0-0.394 0-0.787 0.394 0 0.394 0.394 0.787 0.394 2.757-2.364 5.908-3.545 9.847-3.545 5.908 0 10.634 3.151 13.391 7.877 0.394-0.394 0.394-0.394 0.787-0.787 0 0.394 0 1.181-0.394 1.575 1.181 2.364 1.97 4.726 1.97 7.483 0 9.059-7.089 16.147-16.147 16.147-5.515 0-10.24-3.151-12.998-7.483 0 0 0 0.394-0.394 0.394 0.394 1.181-0.787 4.332-2.364 7.483v-16.542c0-2.364-0.394-3.938-0.787-5.515v0zM193.379 492.504c0 4.726-11.028 12.998-13.785 12.998 0 0.787-4.332 10.634-6.302 10.634 0 3.151-11.815 18.117-13.391 11.815-1.181-4.332 9.059-9.847 9.059-14.966 1.97 0 9.847-14.966 11.421-17.723 17.33-29.538-12.998-9.453-12.998 3.151-3.938 1.97-9.847 16.542-9.847 20.874-2.364 1.97-9.059 16.147-8.27 16.147 0 9.453-5.119 13.785-15.36 13.785-0.394 0.787-9.059 12.998-9.453 12.998 0 3.938-7.089 15.753-10.634 17.723 0 7.877-3.938 17.723-2.364 25.994 0 8.664-0.394 18.511-3.151 27.57-26.387-57.502-41.748-120.911-41.748-188.652 0-193.379 122.486-357.612 294.204-420.234 0.394 15.753 1.181 35.053 5.119 35.053 0 2.364 1.97 12.209 3.938 12.209 0 5.908 0.787 13.391 0 20.874-2.364 4.726 3.151 10.634 4.726 17.723 9.059 4.332 2.757 48.838 9.453 48.838 0 22.449 5.119 35.446 1.575 55.927 1.575 0-9.847 12.602-9.847 12.209-11.421 0-19.298 18.117-19.298 25.994-1.181 3.545-3.938 8.664-3.938 12.998 2.757 0-16.147 27.57-16.147 26.781-9.847 5.515 0.394 12.998 1.575 22.449-8.664 2.757 0 25.994 3.938 25.994 0.394 2.757 1.97 4.726 4.726 5.908 1.97-7.483 11.028 3.938 3.938 3.938 0 5.119-0.787 15.753 0 18.511 0 7.877-7.089 23.236-12.209 7.089-5.908 2.757-20.087 2.364-21.662 11.421 0.787 4.332-8.27 13.785-11.421 15.36 3.151 7.877-15.753 18.511-22.449 18.511 0 1.575-3.545 0.787-4.726 3.151-7.089 0-8.27 9.059-16.147 9.059-9.059 0-17.723 5.908-25.994 5.908-2.757 5.515-15.753 3.151-18.511 9.059-6.696 0-9.453 12.602-9.453 17.33-1.97 5.908-6.696 25.6-14.572 25.6v0zM841.649 749.293c0-0.394 0 0-0.394-0.787 0.394 0 1.181-0.394 1.575-0.787-0.394 0.787-0.787 1.181-1.181 1.575zM851.101 738.659c1.181-2.364 1.97-4.332 1.575-5.515 1.181 0 1.575 0.787 2.757 0.787-1.575 1.97-2.757 3.151-4.332 4.726zM879.065 592.935c0.394 13.785-11.421 11.421-15.36 19.298-3.938 0-5.515 3.151-10.634 3.151-3.545 1.181-6.302 0.394-8.27-2.364-8.27-3.151-3.151 3.938-9.453 3.938 0.394 7.877-2.757 9.847-11.421 9.059-5.119-11.421-12.602-18.117-11.421-30.721 3.545-0.787 3.151-1.575 2.364-5.515 4.726-0.394 34.659 1.575 34.659 4.726 1.181 0 6.302-10.634 6.302-1.575 4.332 0 6.302-9.847 16.147-7.089-0.787-1.575 15.753 7.089 7.089 7.089zM880.64 429.883c0.787 2.757-1.181 3.938-3.151 7.089 4.332 0-13.785 33.87-13.785 38.991-2.757 1.181-6.302 11.028-7.089 14.572-3.938 2.364-7.483 10.634-9.059 15.36-3.938 2.364-12.998 13.785-14.572 19.298 5.515-0.787 13.785-1.97 13.785 5.515-3.938 0-4.332 4.726-0.787 4.726-1.181 4.726 2.364 7.877 3.151 11.815 0.787 4.332 2.757 11.421 2.757 16.542-5.515 0-6.696-0.787-10.634-2.364 0-3.151-9.453 0.787-10.634 0.787-1.97 3.938-16.542-5.119-20.874 3.151-6.696 5.908-4.726 10.634-7.089 18.904-1.181 4.332-7.089 4.332-10.634 5.119-9.847 1.97-2.757-11.815-3.151-14.966 6.302 0-3.938-7.483-3.938-11.421-10.24 2.364-7.089 13.785-12.998 16.936-1.97 3.151-0.394 5.515-4.726 5.515 0 3.938 2.364 11.421-2.364 12.998 0 1.97-8.664 2.757-9.847 5.515-5.515 0-18.117 20.874-22.449 13.785-2.364-4.332 1.97-5.515 3.151-9.059 7.877 1.575 7.089-12.998 16.936-11.421 0-1.97 0.394-4.332 0.787-6.302 7.089 1.575 6.302-5.515 9.847-5.515-2.757-3.545-11.028 5.515-8.664-1.97 1.181-4.332 0.787-8.27-5.119-12.602 0 4.726-0.394 17.723-5.515 17.723-3.151 6.696-13.391 5.119-17.723 11.421-3.545 0-4.726 10.634-10.634 11.421-1.181-1.575-5.515-3.151-7.089-3.151-3.151-6.302-21.662-0.787-21.662-1.575-0.394 0-10.24-24.419-11.028-27.57-1.181-7.089-6.696-7.089-8.27-13.391-0.787-3.151-20.874-1.97-20.874-4.332-8.664 2.757-16.147 9.059-16.147 18.511-0.787 0 1.575 24.025 3.151 27.57 1.97-0.394 1.97-1.181 3.151-3.151 5.515 1.97 17.723-1.181 17.723 4.726 5.119 0 6.696-2.364 4.726-6.302 4.726-0.787 12.998-1.97 12.998 4.726-2.757 0-3.151 0.394-3.151 3.151 9.059 9.453-7.089 18.117-7.089 22.843-3.151 1.181-9.847 8.27-5.119 5.515 3.938-2.364 18.511-6.696 12.998 2.757 0.394 0 0.787 0.394 0.787 0.787 1.575-1.181 8.27-8.27 8.27-1.575 1.97 0 9.059 4.726 3.151 4.726 0.787 3.545 0.394 6.302 0.787 8.27 9.847-5.119 4.332 3.545 9.453 7.089 0-6.302 5.119 3.151 8.27 3.151 3.938 5.515 12.602 1.181 14.572 7.877-4.726 1.575-3.938 13.391-3.938 17.723 5.515-0.787 12.209 7.483 12.998 1.97 0.394-2.364 0.787-8.664 1.97-9.453 8.27-4.332 6.302 2.364 6.302 7.089-2.757 0-6.696 9.847-7.089 14.572-2.364-0.394-5.908-1.181-7.089-3.151-8.27 0-14.179 3.151-20.874 3.151-0.394 1.181-8.27 9.847-7.483 9.847-4.726 7.877 4.726 5.908 6.302 5.908 0 7.483 31.508 6.302 33.083 18.511-10.634 0 10.634 17.723 10.634 17.723 7.089 5.908 11.028 11.421 19.692 11.815 3.938 0.394 44.898 11.421 44.898 6.302 1.575 0 7.089 0 12.998-0.394-79.95 74.831-186.683 120.516-304.442 120.516-113.822 0-217.796-42.929-296.959-113.033 0.787-1.575 1.181-3.151 1.181-4.332 4.332 0.394 10.24 2.757 11.421-2.364-1.97 0-4.332 0.394-6.302 0.787 1.575-11.815-5.119-4.726-10.634-4.726 0 0.394-2.364 1.181-5.119 1.97-1.575-1.575-3.545-3.151-5.119-4.726 0.394-0.394 0-0.394 0.394-1.181 1.97 0 0.787-2.757 5.908-4.332 5.908-1.97 12.602-3.151 18.511-4.332 5.119-0.787 7.877 0.787 12.209 0.787 0 0.787 10.634 5.515 3.151 5.515 1.181 4.332-0.787 5.515-5.515 5.515 0.394 4.332 11.028 1.575 15.36 1.575 3.151 5.515 0 4.726 3.151 9.847 3.545 6.302 7.877 0.787 9.847 6.696 3.545-1.181 6.696-3.151 7.877-7.483 2.757-2.364 16.936-23.236 16.936-8.27 5.119-1.575 7.483-11.028 7.877-16.147 9.059 1.181 9.847 8.27 9.847 15.36 1.97 0-0.787 3.545-0.787 4.726 3.545 1.181 7.877-3.151 7.877 1.575 1.575 0 1.575-1.575 1.575-3.151 4.726-0.787 7.877 0.394 10.634-0.394 1.97-0.787 0.787-11.028 0-14.966-1.181-4.726-9.847-4.726-9.847-7.089-10.24-7.483 11.815-11.421 15.36-16.147-1.97 0-9.847 1.181-9.847 1.575-5.119 0-17.33-5.515-21.662-1.575 6.302 0 8.27 7.483 9.453 14.572-5.908 2.364-12.602-1.181-14.179-7.089-2.757-9.453-9.059 0.394-12.209-5.908-1.181-0.394-12.209-5.515-12.209-3.938-12.602-1.97-9.059-12.209-9.059-23.631 4.726-2.757 14.966-11.421 14.572-16.147 11.028-1.97 15.36-3.151 25.206-4.726 0.787-1.575 4.332-3.151 6.302-3.938 0-6.696 5.908-5.515 11.421-5.515 0 8.27 9.847-7.089 10.634-9.847-1.181 0 2.364-8.664 3.151-11.421-1.575 0.394-1.97 0-1.575-1.575 4.726-1.97 12.602-1.181 13.785 3.938-4.726 0-3.151 5.515-3.151 8.27-4.726 3.151-3.938 9.453 0.787 10.634 0-4.332 15.753 2.757 7.089 5.908 2.364 4.726 3.545 12.602 0 16.542-2.364 2.757-5.119 0-6.302 3.938 5.908 1.575 1.575 12.998 1.575 18.511 1.97 0.787 7.089-1.181 7.089 0 5.908 0 15.753-7.483 19.298 1.575 9.847-4.332 1.97-8.664 12.209-5.515 0-2.364 11.421-13.785 12.998-13.785 0-0.394-0.394-3.938 2.364-3.938 0-2.364-1.575 1.181-1.575-3.151 1.575-0.394 9.453-1.575 9.453 1.575 4.726 0 8.27 5.908 8.27 10.634 3.151 1.97 8.664-16.936 12.209-16.936 2.757-4.332 11.421-10.634 11.421-14.572 1.97-1.97 3.938-1.181 3.938-7.089 2.364 0 7.089 9.059 7.089 0.787 2.364 0 8.27-4.726 9.453-8.27-5.515 0-0.394-5.515-3.151-5.515 0-5.515-11.815-1.181-14.572-0.787-3.545-16.542-25.994-4.726-39.385-9.059-7.089-2.364-20.874-17.723-21.268-25.6 8.664 0 12.209 7.483 20.087 9.847 6.302 0 7.483 3.938 12.998 5.515 0-1.575 1.575-0.787 1.575-2.364-11.028 0-4.332-7.089-1.181-12.209 1.97-3.151 4.332-4.726 6.696-5.908-1.181-1.97-1.97-3.938-2.757-5.908v0c-1.97-0.787-6.302-2.364-7.089-3.938-12.602-1.181-6.302-0.394-5.515 2.364 0.394-1.181 4.726 0 4.726 0-0.787 3.938-1.97 3.151-0.787 5.515-6.696 0-9.847-3.151-15.36-3.151-0.787-1.97-5.515-6.302-7.877-6.302-1.575-4.726-5.119-13.391-9.453-16.147 0 1.181-11.028-7.089-9.847-7.089-2.364-3.938-5.119-3.938-6.302-9.847-0.787-0.394-3.938-10.634-3.938-12.209-4.726-3.151-6.302-16.147-14.572-16.147-4.726-9.847-13.785-8.664-13.785-21.268 3.151-3.151 4.332-16.542 5.119-20.874 1.181-5.515 2.757-11.028-4.332-11.028-0.394 0.787-5.515 8.27-4.726 8.27 0 3.151-3.938 13.391-6.302 16.542-3.151 4.332-8.664-0.787-12.998 1.181-1.97 3.938-14.572 4.726-19.298 4.726 0.787-2.757 2.757-3.938 3.151-7.089-3.938-1.575-5.908-3.151-9.847-2.757-6.696 0.787-5.908 6.302-13.391 5.515-11.815-1.181-20.087-11.028-20.087-22.843-1.181 0-1.181-22.843 0-22.843 0-6.302 5.515-11.028 5.515-16.147 5.119 0 11.028-11.421 16.147-11.421 0.787-3.938-2.757-4.726 6.302-4.726 0 0.394 4.726 2.757 5.515 6.302-5.908 1.575 0 9.059 3.938 10.634 0-5.515 7.483 1.97 7.483 2.364 0.787 0.394 8.27 3.151 8.27 3.151 0 6.302 5.908-0.787 1.575-3.151-4.332 0-3.938-7.089-6.302-7.089-0.787-4.726-2.757-9.059-3.938-14.179-1.575-5.908 3.151-6.302 1.97-12.209 5.908-1.181 12.209 0 18.511 0 0 1.181-0.394 2.364-0.787 3.151 9.059 0 0.787-16.936 6.302-16.936 0-6.302 3.151-11.421 3.151-15.36 4.332-2.757 6.696-6.302 5.515-11.421 5.119-0.787 16.147-1.97 16.147 4.726 7.877 0 8.27-5.515 7.877-10.634 15.36 0 5.908 15.36 12.209 15.36 0.787 2.364 1.575 2.757 3.151 1.181 3.151-1.575 5.515 3.151 7.877 4.726 0.787 0.394 3.545 2.364 4.332 2.364 2.364-1.181 2.364-0.787 3.151-2.364 4.332 0 8.27 2.364 12.209 4.726 5.515-0.787 3.938-12.602 14.179-13.391 4.332-0.394 13.785-1.575 17.33 1.181 0.787 0.787 4.332-1.97 4.332-3.151 3.545 0 3.151-3.151 4.726-2.757 0.394-0.787 0.787-0.787 1.575-0.787 0.394-1.181 3.151-1.575 4.726-5.515 0-3.151 7.089-3.938 7.089-5.908 4.726-2.364-1.575-3.151 5.908-5.515 4.332-1.181 7.877-3.545 12.602-3.938 1.575 5.515 5.908-0.787 8.27-0.787 1.181-2.364 1.97-0.787 3.151-3.151 7.089-5.908 2.364-3.545 5.515-9.847 3.545-2.364 4.332-9.847 5.515-14.572-2.757 0-0.787-10.634-0.787-11.421-3.151 0 8.27-6.302 8.27 1.575 4.726-0.787 7.877-5.908 11.421-5.908-1.97-4.726 5.515-8.27 5.515-0.787 7.483-0.787 5.515-11.421 4.726-15.36 5.515 0 7.089 3.151 11.421 3.545 5.119 3.151 10.634 5.515 16.936 5.515 17.723 0 31.902-14.179 31.902-31.902 0-16.147-11.815-28.357-27.176-31.114-1.97-2.364-3.938-4.332-3.938-4.332 0-1.575-0.394-16.936-0.787-16.936 0-3.151-2.364-20.087-4.726-20.087 0-8.664-5.515-10.24-7.877-18.511-4.726-3.545-17.33-9.059-19.298-12.998-3.545 0-6.302-3.151-9.847-3.151-0.394-1.181-8.27-8.27-7.089-8.27-0.787-5.515 0.394-18.117-2.364-21.662-1.97-2.364-4.726-1.97-3.545-5.908-4.332 0 0.394-3.151-6.696-3.151-4.332 0-11.815-5.908-12.209-11.421-0.394-6.302-1.97-11.028-7.483-14.572 0-2.364-9.847-2.757-9.847-8.27 0.787 0 0-10.634 0-11.421-2.757 0-10.24-2.757-11.421-5.515-9.847 0-9.059-1.181-15.36-5.515 0-1.181-0.787-5.908-2.364-5.908 0-7.877-5.515-0.787-9.847-4.726 1.97 0 3.938-7.483 3.151-7.483 0-6.696-4.332-7.483-8.27-12.209-1.97-1.181-3.938-7.089-5.515-7.089 0-4.332-2.364-8.664-2.364-12.998 0.787 0 0-1.97 0.787-3.938 2.364 0.787 2.364 3.151 3.151 3.151 0 3.938 5.908-2.364 2.364-2.364-3.151-4.726-6.696-4.726-8.27-11.421-1.97 0-3.545-1.97-5.119-3.938 37.808-10.24 77.193-16.147 118.154-16.147 157.539 0 295.778 81.527 375.729 204.407 0.394 11.421 2.364 22.055 3.545 25.994 3.151-2.364 5.515-6.696 7.877 0-5.515 1.181-4.332 3.151-2.364 7.483 1.97-1.181 6.302-2.757 9.847-2.757 1.181 1.97 1.97 3.938 2.757 5.908-3.151 2.364 1.181 8.664 2.757 5.515 0.787 1.575 1.575 3.151 2.364 4.726-0.394 0-0.394 0-0.787 0 0 2.757 0.394 2.364 2.364 3.938 0-0.394 0-0.394 0-0.394 27.963 58.683 44.11 123.667 44.11 192.59 0 2.364-0.394 4.332-0.394 6.696-0.787-3.151-2.364-6.302-4.726-7.483 0-1.97-22.843-12.209-21.662-16.147-3.938 0-18.117-3.938-20.874-9.059-2.757 0-14.179-3.938-15.36-6.302-13.785 1.181-11.028 18.117-17.723 18.117v0zM945.624 604.752h-16.936c0 0.394-0.394 0.394-0.394 0.394-0.787 0-4.332 8.27-3.151 9.847 1.181 0 1.97 0 2.757-0.394-1.575 3.545-3.151 7.089-4.726 10.634-3.545-2.364-6.302-5.515-11.421-5.515 0-1.181-6.696-14.572 0-14.572 0-0.394 0-0.394 0.394-0.787-8.27-0.787-14.572-7.483-14.572-15.753 0-9.059 7.089-16.147 16.147-16.147h6.302c0.394-2.757 1.97-5.515 7.483-6.696 1.97-7.483 14.966-9.847 16.936-2.364-5.515 0-3.938 5.515-3.151 9.059h4.332c8.664 0 16.147 7.089 16.147 16.147-0.394 9.059-7.483 16.147-16.147 16.147zM898.756 396.8c1.181 0 8.27 0 8.27 1.575 6.696 0 15.753 0.787 22.449 3.151 0-9.847-8.27-15.36-7.089-25.206-5.515 0-3.151-5.908-3.151-7.483-3.545-2.364-4.332-6.302-8.27-8.27 0-4.332-9.847-11.815-12.998-15.753-3.151-4.332-13.391-11.421-14.572-16.936 0.394 1.181-18.117-19.298-14.179-19.298 0-3.938-5.119-34.659 1.575-34.659 0-2.757 5.908-28.357 2.364-28.357 0-8.27-5.515-13.391-5.515-19.692-2.757-1.97-6.302-2.757-7.483-5.515-4.726 0-7.089-9.847-9.059-9.847 0-10.634-3.151-18.511-3.151-30.721 0.787 0-6.302-17.33-6.302-18.511-5.515-3.938-20.087-17.33-20.087-24.419 0 0-9.847-14.179-11.421-16.147-3.151 0-26.387-4.332-26.387-6.302-4.726 0-17.723-3.938-20.874 0.787 0 4.726-2.757 11.028-3.151 17.723-2.364 0-2.757 9.847-5.515 9.847 0 1.97-14.572 31.508-12.209 31.508 0 3.151-2.757 12.998-3.151 12.998 0 10.634-7.877 19.298-7.877 29.144-2.364 0-7.089 21.268-4.726 21.268 0 11.421 3.938 18.511 5.515 31.114 1.97 13.785-0.787 22.055-3.151 31.902-1.181 0-5.908 7.483-6.302 9.059-6.302 3.938-8.27 12.209-8.27 19.692 3.938 4.726 5.515 22.055 4.726 27.57-7.877 3.545-11.028 2.364-19.298 2.364-4.726 9.847-38.204 3.938-47.655 3.938 0-5.515-23.236 1.181-25.206 5.515-5.515 0-16.936 12.209-16.936 17.723-6.302 4.332-16.147 24.812-16.147 31.508-5.515 2.757-3.938 12.998-0.787 12.998 0.787 2.757-1.97 12.209-3.151 16.147-0.787 3.151 3.151 6.696 3.151 10.634 0 10.634 0.394 15.753 6.302 27.176 1.97 3.545 4.332 7.089 5.908 11.421 3.151 7.877 4.332 0.394 8.27 7.483 4.332 1.97 6.302 9.059 10.634 12.209 1.97 2.364 1.97 3.545 0 5.515 0.787 0 5.515 11.815 5.515 14.572 5.908 8.27 1.97 4.332 7.877 3.938 2.364 2.364 5.908 8.27 9.059 8.27 1.575 2.757 5.515 4.726 8.27 4.726 0-4.726 12.602 1.575 13.785 1.575 2.364 4.332 16.147 9.059 19.298 9.059 0 5.119 27.176-1.575 31.508-0.787 0 0.787 0 1.575 0 2.364 5.908-1.181 16.542-24.812 15.36-29.932 4.332 0 8.664 0.787 11.421 0 0-4.726 9.453-6.302 13.391-6.302 5.908-0.394 23.236 0.787 23.236 8.664 4.726 0 8.664-3.151 7.877-8.27 5.119-0.787 36.234-1.181 33.87-7.483 4.332 0 5.515-7.877 9.847-7.877-0.787-5.515 5.515-19.298 9.847-19.298 0-4.726 2.757-12.998 7.089-16.147 2.364-6.696 9.453-20.48 16.147-24.419-2.757-5.515 4.332-9.847 6.302-15.36-0.394 0 1.575-7.877 3.938-9.059 0-5.515 11.421-27.57 17.723-27.57 1.97-3.545-4.332-4.726 3.545-5.515zM732.947 568.516c1.181 4.726 3.938 1.181 6.302 0.394 5.908-1.97 3.938 0 8.27 1.97 0-12.602-7.089-3.151-14.572-2.364v0zM716.407 591.36c3.151 0 3.938-14.179-4.726-11.421 0 3.545-2.364 9.847 2.364 9.847 1.575-5.119 2.364-3.151 2.364 1.575zM712.862 600.812c3.545-1.575 5.119-1.181 4.726 1.575 4.726-1.575-0.787-4.726-1.575-8.27-2.364 1.97-1.97 2.757-3.151 6.696v0zM630.548 668.947c-7.483 1.97 7.877 4.332 8.27 5.908-2.364 0-4.332 2.757-3.151 4.726 1.181 2.757 3.151-3.151 5.515-1.97 3.151 0.394 9.059 4.726 5.908-3.938-3.151-9.059-5.908-15.753-17.723-15.753-3.938 4.332 0 6.696 1.181 11.028zM658.905 700.455c6.302 0 0.787-4.726-0.787-4.726 1.181-0.394-0.394-4.332-0.394-5.515 5.908 0 5.908 3.545 9.847 4.726-0.787-5.119-6.696-6.302-0.787-10.634 2.757-2.364 5.908-5.119 4.726-8.664 7.483 0 8.27-7.089 7.089-15.36 3.938 0 3.938-0.394 3.938 3.938 3.938-1.181 3.545-4.726 0-4.726-3.545-7.089-12.998-7.089-20.087-7.089 0 5.515-1.181 5.908-6.302 4.332-7.089-2.364-1.575 5.515-1.181 9.453 0.787 0 16.147-0.787 7.089 2.364-0.394 8.27-2.364 10.634-9.847 10.634 0 5.515-1.97 5.119-2.757 11.421-1.575 9.453 6.696 0 9.453 9.847zM656.541 650.437c0-1.97-3.938-3.151-4.726-0.787 0.787-0.394 1.181 0 0.787 0.787 1.575 0 2.757 0 3.938 0v0zM593.527 732.751h-31.902c-9.059 0-16.147 7.089-16.147 16.147 0 8.664 7.089 16.147 16.147 16.147h31.902c9.059 0 16.147-7.089 16.147-16.147 0-8.664-7.089-16.147-16.147-16.147zM407.237 449.575c1.97 0 3.938-0.787 3.938-2.364-2.364 0-5.515-1.97-3.938 2.364zM378.093 448c-1.181-2.364-11.421-1.97-12.998 0.787 3.938 0 6.696-1.575 10.634 0 0 1.97-1.97 3.938-3.151 5.908 4.332 0 9.059-3.151 14.572-3.151 0 3.545-1.575-0.787 0 3.938 2.364-0.787 8.27-5.908 8.27-8.27-8.27 1.181-8.664 0.787-17.33 0.787v0zM344.221 466.511c-3.938 0-11.421 3.545-13.785 7.089 3.938-0.394 7.483-1.97 9.847 2.364 9.847-0.787 10.634-7.877 18.511-7.877 1.575-2.757 9.847-8.664 1.97-9.453-6.302-0.394-14.179 2.757-16.542 7.877v0zM350.129 445.243c-2.757 0-7.483-1.181-5.515 4.726 3.938-0.787 5.908-2.364 5.515-4.726zM355.644 445.636c-1.575-0.394-3.151-0.394-4.726-0.787 0.787 3.938 3.938 7.877 4.726 0.787zM383.999 412.16c-0.787-2.364-0.394-2.364-3.151-2.364 0.394 0.787 0.394 1.97 0.787 3.151 0.787-0.394 1.575-0.394 2.364-0.787zM314.683 475.57c0.787-0.394 1.575-0.394 2.364-0.787 0.787-3.938 3.151-1.97 5.515-0.787 0-4.332-10.24-5.515-7.877 1.575z" />
<glyph unicode="&#xe919;" glyph-name="afootball" d="M326.684 449.336l-33.856 35.193c-8.019 7.573-8.464 20.046-0.891 28.065s20.046 8.464 28.065 0.891c0.445-0.445 0.891-0.891 1.336-1.336l30.739-32.074c15.592 18.264 32.074 36.529 48.112 53.902l-28.51 29.846c-7.573 8.019-6.683 20.492 1.336 28.065 8.019 7.128 19.601 6.683 27.175-0.445l27.62-28.51 1.336 1.336c16.482 16.482 33.41 32.52 50.783 48.557l-28.956 30.292c-8.019 7.573-8.464 20.046-0.891 28.065s20.046 8.464 28.065 0.891c0.445-0.445 0.891-0.891 1.336-1.336l30.292-31.629c60.585 51.676 125.179 98.45 193.335 139.878-39.648 30.292-84.641 53.011-132.752 67.267-210.71-66.82-377.317-228.973-449.928-437.9 10.247-55.685 33.856-108.251 68.158-153.244 41.874 67.267 87.759 132.305 138.097 194.227zM354.302 420.38c-51.23-63.258-97.559-130.524-139.433-200.463 11.583-13.809 24.056-27.62 37.42-41.429 56.13-59.249 126.069-102.904 204.027-126.96 105.132 36.084 200.908 94.886 280.649 171.953 73.948 76.622 130.969 167.943 166.608 268.621-20.046 86.867-65.93 165.717-131.414 225.855-11.583 11.583-23.61 22.72-35.638 32.965-70.384-41.429-136.761-89.095-199.127-142.107l43.212-44.993c8.019-7.573 8.019-20.492 0.445-28.065-7.573-8.019-20.492-8.019-28.065-0.445-0.445 0.445-0.445 0.445-0.891 0.891l-44.102 46.329c-17.373-15.592-33.856-31.629-50.338-47.666l-1.781-1.781 46.329-48.112c8.019-7.573 8.464-20.046 0.891-28.065s-20.046-8.464-28.065-0.891c-0.445 0.445-0.891 0.891-1.336 1.336l-44.993 46.774c-16.482-17.373-32.52-35.193-48.112-53.902l42.765-44.548c7.128-8.464 6.237-20.937-2.228-28.065-7.573-6.683-19.156-6.237-26.729 0.445l-40.093 42.319zM97.708 87.165c22.273 44.993 45.438 88.205 69.494 129.633-28.51 36.529-51.23 77.067-68.603 120.279-27.175-81.076-27.62-168.834-0.891-249.911v0zM124.438 50.636c48.557-42.319 152.352-47.221 267.731-18.264-62.366 28.956-119.387 69.049-167.498 118.496-10.692 10.692-20.937 21.828-30.739 32.965-24.056-42.319-47.666-86.867-69.494-133.197v0zM869.716 865.409c-76.622 22.72-158.144 22.273-234.319-1.336 37.42-16.928 73.058-38.757 105.132-64.149 41.429 23.61 84.195 45.438 129.188 65.485v0zM908.472 839.126c-46.774-20.492-91.769-42.765-135.424-67.267 9.354-8.019 18.264-16.928 27.62-25.837 53.902-52.121 96.668-114.932 125.179-183.981 31.184 121.615 26.282 230.311-17.373 277.085v0zM62.962-1.038c-128.743 128.743-54.793 507.396 168.389 730.577 221.845 221.845 604.063 294.903 730.577 168.389s53.457-508.732-168.389-730.577c-223.183-222.738-602.282-296.686-730.577-168.389v0z" />
<glyph unicode="&#xe91a;" glyph-name="allgame" d="M634.364 214.005c-6.798-48.302 8.588-97.32 41.862-133.099 20.394 74.779 67.266 139.897 132.382 182.117-6.798 6.798-14.311 13.596-21.826 19.679-16.101-9.303-34.347-15.028-52.595-17.174-4.651-0.358-8.945-0.715-13.596-0.715-34.706-3.578-66.191-22.183-86.227-50.807zM640.805 242.269c24.688 23.614 57.605 36.852 91.952 36.852 14.669 1.431 29.339 6.083 42.577 12.881-20.394 15.028-42.577 27.192-66.191 36.495-31.844-20.036-56.173-50.448-68.338-86.227v0zM829.362 348.177c-35.422 7.871-72.274 3.935-105.191-11.808 22.541-9.66 44.008-22.183 63.329-37.21 18.248 12.165 32.917 29.339 41.862 49.018v0zM842.6 344.598c-9.66-21.468-24.688-40.43-44.008-54.385 7.513-6.44 14.669-12.881 21.468-20.036 26.834 16.101 55.458 28.266 85.512 36.495-17.531 17.531-39.357 30.412-62.971 37.927v0zM786.069 30.098c11.091 30.054 16.101 61.898 14.311 93.742v14.669c0.358 33.274 15.028 64.403 40.43 85.87-7.156 10.018-14.669 19.679-22.899 28.624-65.476-41.862-112.346-107.696-130.594-183.19 27.549-23.972 62.256-37.927 98.75-39.715v0zM800.738 30.098c36.495 1.431 71.201 15.385 98.75 39.357-5.367 51.165-22.899 100.54-50.807 144.19-22.183-18.963-34.706-46.87-34.706-75.852v-13.596c1.073-32.202-3.578-63.686-13.238-94.1v0zM949.58 231.894c-30.054 11.091-63.686 7.156-90.522-10.376 27.549-42.577 45.44-90.522 52.238-140.612 37.927 40.43 52.238 97.32 38.284 150.988zM944.928 247.637c-6.44 17.531-16.101 33.99-28.266 48.302-30.412-7.513-59.751-19.321-86.585-35.422 7.871-8.945 15.385-17.889 22.183-27.549 18.606 12.165 40.43 18.963 62.971 18.963 9.66-0.358 19.679-1.79 29.697-4.293v0zM793.582 3.264c-103.76 0-187.84 84.082-187.84 187.84s84.082 187.84 187.84 187.84c103.76 0 187.84-84.082 187.84-187.84 0 0 0 0 0 0 0.358-103.76-83.724-187.84-187.84-187.84 0.358-0.358 0.358-0.358 0 0v0zM207.877 380.019c39.715-19.679 82.65-30.054 127.016-31.129l74.779 85.512c0.715 50.448-10.733 100.182-33.99 145.263l-147.768 34.347c-30.77-30.77-54.743-67.981-69.769-109.126l49.733-124.869zM200.006 356.048l-50.090-41.862c27.192-24.329 58.678-44.008 92.668-57.605 35.422-14.311 72.989-21.468 111.273-21.109 15.028 0 29.697 1.073 44.367 3.22l-64.045 85.512c-46.513 0.715-92.31 11.808-134.172 31.844v0zM51.163 519.916h85.512c16.816 43.293 43.293 82.65 76.567 115.209v91.952c-29.697 7.156-60.109 9.66-90.522 7.871-23.256-28.266-41.862-59.751-54.385-94.457-12.165-32.559-17.889-67.266-17.531-101.613-0.358-6.44 0-12.881 0.358-18.963v0zM558.155 440.129c26.476 26.834 47.587 58.32 62.256 92.668l-40.072 137.392c-34.347 17.531-71.916 28.266-110.2 31.486l-68.338-117.714c20.394-42.22 31.844-88.375 32.917-135.245l123.439-8.588zM572.825 419.019v-90.522c23.614 25.046 43.293 53.668 57.605 84.797 15.385 32.917 24.329 68.338 26.476 104.475l-14.311 2.505c-16.816-37.927-40.43-72.274-69.769-101.255v0zM589.999 729.582c-22.541 27.192-49.018 50.090-78.357 68.338-31.486 19.679-65.834 32.917-101.971 38.999-10.018-12.165-19.679-24.688-27.549-37.927l82.65-71.559c40.43-2.505 80.145-12.881 116.998-30.054l8.23 32.202zM356.719 806.866c7.156 12.165 15.028 23.614 23.614 34.706-8.588 0.715-17.174 1.073-25.761 1.073-38.284-0.358-76.209-7.513-111.989-21.109-35.422-13.954-67.981-34.347-95.173-60.466 23.972-0.358 47.587-3.578 70.843-8.945 0.715 0.715 2.147 1.431 3.22 2.147l135.245 52.595zM354.214 184.666c-195.355 0-354.214 158.86-354.214 354.214s158.86 354.214 354.214 354.214 354.214-158.86 354.214-354.214-158.501-354.214-354.214-354.214v0 0zM811.471 641.923c-6.798-11.808-12.165-24.329-16.101-37.21-2.863-10.376-5.010-21.109-5.367-31.844 1.79 0 3.22 0 5.010 0 12.881 0 25.404 1.79 37.927 5.725 2.147 14.311 6.083 28.266 11.808 41.504 6.44 15.385 15.385 29.339 26.834 41.504-21.468-1.79-42.22-8.23-60.109-19.679zM792.152 626.897c-14.669-13.596-25.761-30.77-32.202-49.733 6.44-1.79 12.881-2.863 19.679-3.935 1.431 18.606 5.725 36.852 12.523 53.668v0zM885.535 660.886c-6.44-6.44-12.523-13.238-17.531-20.751-12.165-17.531-20.394-37.21-24.329-57.963 33.274 13.596 59.393 40.072 72.274 72.989-9.66 3.22-20.036 5.010-30.412 5.725v0zM755.298 512.761c2.505-13.238 7.156-26.119 13.954-38.284 13.596-2.505 27.192-4.293 40.788-4.293 19.679-0.715 39.357 2.863 57.963 10.018 16.101 6.44 31.486 15.385 44.724 26.476-2.147 11.808-5.725 23.614-11.091 34.347-43.65-26.476-95.53-36.495-146.337-28.266v0zM753.868 523.494c12.165-1.431 23.256-2.147 38.642-2.505 21.826-0.715 43.293 2.863 63.329 10.376 13.954 5.010 27.908 11.449 40.788 18.963-7.513 12.523-16.816 23.614-27.908 32.917-33.274-20.751-73.706-26.476-111.631-15.743-2.505-10.018-3.935-20.751-3.935-31.129 0-4.651 0.358-8.588 0.715-12.881v0zM777.124 462.669c10.018-13.954 22.899-25.404 37.568-34.347 7.156-1.073 14.669-1.79 22.183-1.79 11.449 0 23.256 1.79 34.347 4.651 13.954 3.578 27.192 9.66 38.999 18.248 3.22 11.449 4.651 22.899 4.651 34.706 0 3.578 0 7.156-0.358 10.733-38.999-30.054-89.448-41.862-137.392-32.202v0zM842.242 416.514c16.458-5.010 33.99-6.44 50.807-4.293 4.651 6.798 8.588 14.311 11.808 21.826-19.321-10.733-40.788-16.816-62.613-17.531v0zM910.223 621.887l-15.028-17.889-17.531-15.028c9.303-8.23 17.174-17.531 23.972-27.908 7.871-11.449 13.954-24.329 17.889-37.927 3.578-12.881 5.725-26.119 5.367-39.715 0-13.596-2.147-26.834-5.725-39.715-2.863-10.376-7.156-20.751-12.881-30.054 10.018 2.505 20.036 6.083 29.339 10.733 8.945 4.651 17.531 10.376 25.046 17.174 3.935 15.028 5.725 30.77 5.725 46.155 0 20.036-3.22 39.715-9.66 58.32-5.367 16.458-13.238 31.844-22.541 46.155-6.798 11.449-15.028 21.109-23.972 29.697v0zM915.947 630.832c14.669-14.311 27.549-30.77 37.568-48.66 7.156-12.523 12.881-26.119 16.458-40.072 5.010-17.531 7.513-35.779 7.156-53.668 0-10.733-1.073-21.826-2.505-32.202 18.606 22.541 28.624 50.448 28.624 79.787 0 17.889-3.935 35.422-11.449 51.522-6.798 14.669-16.101 27.908-27.908 39.357-11.091 10.733-23.972 18.963-38.284 24.688-2.505-7.156-5.725-13.954-9.66-20.751v0zM878.379 390.037c-80.504 0-145.621 65.118-145.621 145.621s65.118 145.621 145.621 145.621 145.621-65.118 145.621-145.621c0-80.145-65.118-145.263-145.621-145.621v0z" />
<glyph unicode="&#xe91b;" glyph-name="baseball" d="M356.993 368.497l-198.978-232.733c-9.771-15.545-29.313-21.763-46.635-14.658-16.433 7.107-23.54 5.773-30.201-0.444-8.439-8.439-6.219-20.431 11.548-38.196l55.075-55.075c18.209-18.209 29.757-19.987 38.196-11.548 6.663 6.663 7.995 13.768 1.332 28.869-6.663 16.433-1.332 35.088 12.88 45.303v0l232.733 201.644-75.95 76.838zM381.421 396.922l80.835-80.835 66.178 57.295c91.050 78.614 91.050 78.614 107.039 92.383l303.797 305.129c13.324 14.658 12.436 37.308-1.776 50.632l-52.41 52.41c-13.324 14.658-35.976 15.102-50.632 1.776l-302.91-303.797-150.122-174.994zM265.053 47.824c6.219-30.647-3.553-62.624-26.204-84.388-38.196-37.308-99.488-36.42-136.798 2.222-2.665 2.665-5.329 5.773-7.551 8.439l-55.519 55.075c-42.637 32.423-50.632 93.271-17.765 135.908 2.222 3.109 4.441 5.773 7.107 8.439 22.207 22.652 54.629 32.423 85.276 25.316 292.693 342.437 362.868 424.16 364.646 425.938l302.464 303.797c43.527 42.637 112.814 41.749 155.451-1.332 0 0 0 0 0-0.444l52.41-52.41c43.527-42.637 44.415-112.37 1.776-155.895-185.654-186.098-185.654-186.098-306.017-306.907l-419.275-363.758zM218.863 530.611c-71.952 0-130.135 58.183-130.135 130.135s58.183 130.135 130.135 130.135c71.952 0 130.135-58.183 130.135-130.135s-58.183-130.135-130.135-130.135c0-0.444 0-0.444 0 0v0zM218.863 567.921c51.522 0 93.271 41.749 93.271 93.271s-41.749 93.271-93.271 93.271c-51.522 0-93.271-41.749-93.271-93.271 0-51.966 41.305-93.715 93.271-93.271-0.444-0.444-0.444-0.444 0 0v0z" />
<glyph unicode="&#xe91c;" glyph-name="boxing" d="M489.688 837.133c3.57-2.678 6.694-5.801 9.817-8.925l100.854-100.854c48.642-48.642 48.642-127.628 0-176.716-48.642-48.642-127.628-48.642-176.716 0v0c-14.279 15.173-13.833 38.825 1.338 53.104 14.279 13.833 37.039 13.833 51.766 0 18.296-20.082 49.98-21.42 70.062-3.124s21.42 49.98 3.124 70.062c-0.892 0.892-2.232 2.232-3.124 3.124l-100.854 100.854c-19.189 20.082-51.32 20.974-71.4 1.338-10.265-8.925-19.189-18.743-26.328-30.345-6.248-15.619-10.265-32.131-11.603-48.642s0.446-33.023 5.801-48.642v-1.338c19.189-47.304 9.817-101.746-24.098-140.123-0.892-1.338-2.232-2.678-3.57-4.016l-92.821-92.821 265.521-265.521 145.926 145.926c30.345 29.898 68.277 51.32 109.779 61.583l20.082 5.801c43.733 10.265 83.449 33.023 114.241 65.153 80.772 83.003 78.986 215.541-4.016 296.313 0 0 0 0 0 0l-100.854 101.746c-75.864 78.094-198.584 84.789-282.925 16.065zM415.162 865.693c1.784 4.908 4.908 9.371 8.479 12.941 112.457 109.779 292.297 107.993 402.522-4.016l100.854-100.854c112.009-110.225 113.795-290.065 4.016-402.074-39.717-41.055-90.589-70.062-145.926-83.897l-19.636-5.801c-29.452-6.694-56.674-21.42-78.54-42.84l-292.297-292.297c-14.727-14.727-38.377-14.727-53.104 0l-318.625 319.071c-14.727 14.727-14.727 38.377 0 53.104 0 0 0 0 0 0l233.391 233.391c21.42 21.42 22.76 34.809 12.495 79.432v1.338c-7.587 24.99-9.817 51.32-6.248 77.202 2.232 24.99 8.925 49.088 19.636 71.4 10.265 18.296 24.098 34.361 39.717 48.196 24.544 24.99 58.459 37.931 93.267 35.701zM461.128 120.004l-265.521 265.521-92.821-92.821 265.521-265.521 92.821 92.821zM798.049 482.361c7.587 7.14 19.636 6.694 26.776-0.892 6.694-7.14 6.694-18.743 0-25.882l-2.232-2.232c-50.872-48.196-130.752-45.964-178.948 4.908-7.587 7.14-8.033 19.189-0.892 26.776s19.189 8.033 26.776 0.892c0.446-0.446 0.446-0.446 0.892-0.892 33.469-36.147 89.697-37.931 125.844-4.908l1.784 2.232z" />
<glyph unicode="&#xe91d;" glyph-name="cycling" d="M586.122 474.993c20.565-12.853 30.849-37.704 24.421-61.269l-47.558-176.522c-7.712-29.134-38.133-46.701-67.267-38.989s-46.701 38.133-38.989 67.267v0l37.704 140.104-156.385 93.403c-25.278 14.996-33.848 47.986-19.28 73.266l0.428 0.428c3 4.713 6.427 8.997 10.712 12.853l207.799 207.799c26.564 20.994 63.839 20.994 89.975 0l206.942-206.942c20.994-21.852 20.565-56.555-1.285-77.55-21.422-20.565-54.842-20.565-76.264 0l-174.379 174.379-128.964-129.392 132.392-78.835zM219.367 393.158c121.252 0 219.367-98.115 219.795-219.367 0-121.252-98.115-219.367-219.367-219.795-121.252 0-219.367 98.115-219.795 219.367 0 0 0 0 0 0 0 121.68 98.115 219.795 219.367 219.795v0zM219.367 319.893c-80.978 0-146.53-65.554-146.53-146.53s65.554-146.53 146.53-146.53c80.978 0 146.53 65.554 146.53 146.53s-65.554 146.53-146.53 146.53v0zM585.266 173.791c0 121.252 98.115 219.367 219.367 219.367s219.367-98.115 219.367-219.367c0-121.252-98.115-219.367-219.367-219.367v0c-121.252 0-219.367 98.115-219.367 219.367v0zM658.101 173.791c0-80.978 65.554-146.53 146.53-146.53s146.53 65.554 146.53 146.53c0 80.978-65.554 146.53-146.53 146.53-80.55-0.428-146.101-65.982-146.53-146.53v0zM731.367 795.475c-40.274 0-73.266 32.562-73.266 73.266 0 40.274 32.562 73.266 73.266 73.266 40.274 0 73.266-32.562 73.266-73.266 0 0 0 0 0 0 0-40.274-32.99-72.837-73.266-73.266v0z" />
<glyph unicode="&#xe91e;" glyph-name="darts" d="M734.697 593.951c-36.377-36.82-74.527-73.641-114.010-109.574h-46.579l-67.874-67.874c-6.655-7.542-18.188-7.985-25.729-1.33s-7.985 18.188-1.33 25.729c0.443 0.443 0.887 0.887 1.33 1.33l67.874 67.874v47.024c42.143 46.136 85.175 90.498 128.207 132.199v123.769c0 5.766 2.662 11.091 7.098 14.64l146.394 109.574c7.985 6.211 19.52 4.436 25.729-3.993 2.219-3.106 3.549-6.655 3.549-10.648v-71.867c11.091 8.872 22.18 17.744 33.271 26.173 15.084 12.865 37.707 11.978 51.904-2.662 9.759-17.301 7.098-39.039-7.098-52.791-11.978-15.084-23.956-30.165-36.377-45.249h105.138c10.204 0 18.188-7.985 18.188-18.188 0-4.879-1.774-9.759-5.323-12.865l-146.394-146.394c-3.549-3.549-7.985-5.323-12.865-5.323l-125.101 0.443zM769.743 630.328h80.739l109.574 109.574h-91.386c-31.054-36.82-64.325-73.197-98.926-109.574v0zM712.072 724.374c36.377 33.715 72.754 66.099 109.574 97.153v64.768l-109.574-82.069v-79.852zM589.633 786.037c9.759-1.774 16.414-11.091 14.64-21.293-1.774-9.759-11.091-16.414-21.293-14.64-0.443 0-1.33 0.443-1.774 0.443-167.244 38.596-333.601-65.655-372.197-232.456-38.596-167.244 65.655-333.601 232.456-372.197 167.244-38.596 333.601 65.655 372.197 232.456 10.204 44.362 10.648 90.054 1.33 134.86-1.774 9.759 4.436 19.52 14.64 21.293 9.759 1.774 19.076-4.436 21.293-13.752 39.926-187.65-79.409-371.753-267.059-411.678s-371.753 79.409-411.678 267.059c-39.926 187.65 79.409 371.753 267.059 411.678 49.241 10.204 100.702 9.759 150.387-1.774v0zM511.113 648.515c10.204 0.443 18.633-7.098 19.52-17.301 0.443-10.204-7.098-18.633-17.301-19.52-0.887 0-1.33 0-2.219 0-90.941 0-164.583-73.641-164.583-164.583s73.641-164.583 164.583-164.583c90.941 0 164.583 73.641 164.583 164.583-0.443 10.204 7.098 18.633 17.301 19.52 10.204 0.443 18.633-7.098 19.52-17.301 0-0.887 0-1.33 0-2.219 0-110.904-90.054-200.96-200.96-200.96s-200.96 90.054-200.96 200.96c-0.443 111.348 89.611 201.404 200.515 201.404v0zM631.333 945.298c19.52-4.879 31.941-24.399 27.061-43.919s-24.399-31.941-43.919-27.061v0c-235.118 56.34-472.010-88.281-528.35-323.842-56.34-235.118 88.281-472.010 323.842-528.35 235.118-56.783 472.010 88.281 528.35 323.842 16.857 70.535 15.97 144.177-2.219 214.268-5.323 19.52 6.655 39.483 26.173 44.805s39.483-6.655 44.805-26.173c71.867-273.269-90.941-552.749-364.212-625.059s-553.636 90.498-625.503 363.768 90.941 552.749 364.212 625.059c81.626 21.737 167.244 22.625 249.758 2.662v0z" />
<glyph unicode="&#xe91f;" d="M1023.834 453.775c0-279.487-226.569-506.058-506.058-506.058s-506.058 226.569-506.058 506.058c0 279.487 226.569 506.058 506.058 506.058s506.058-226.569 506.058-506.058z" />
<glyph unicode="&#xe920;" d="M1019.391 514.644h-441.191v440.745c-44.43 5.775-89.304 5.775-133.734 0v-440.745h-440.301c-5.775-44.43-5.775-89.304 0-133.734h440.745v-440.745c44.43-5.775 89.304-5.775 133.734 0v441.191h440.745c5.775 44.43 5.775 89.304 0 133.29v0z" />
<glyph unicode="&#xe921;" glyph-name="formula1" d="M196.855 290.427v-315.145c0-21.872-17.855-39.282-39.282-39.282-21.872 0-39.282 17.855-39.282 39.282v945.436c0 21.872 17.855 39.282 39.282 39.282 21.872 0 39.282-17.855 39.282-39.282h669.572c21.872 0 39.282-17.855 39.282-39.282v-551.281c0-21.872-17.855-39.282-39.282-39.282l-669.572-0.446zM354.427 841.707v-157.573h-157.573v-157.573h157.573v-157.573h472.718v472.718h-472.718zM512 841.707h157.573v-157.573h-157.573v157.573zM354.427 684.136h157.573v-157.573h-157.573v157.573zM669.573 684.136h157.573v-157.573h-157.573v157.573zM512 526.563h157.573v-157.573h-157.573v157.573z" />
<glyph unicode="&#xe922;" glyph-name="golf" d="M349.493 953.58l328.628-216.276c16.853-11.235 21.668-33.705 10.433-50.558-2.809-4.012-6.019-7.624-10.032-10.032l-312.978-211.461v-98.709c48.551 5.618 97.505 8.426 146.057 8.426 30.896 0 61.392-1.203 91.085-3.21 38.52 71.021 127.599 97.103 198.219 58.583 43.737-23.673 72.226-68.214 75.838-117.567 90.684-38.52 146.859-92.689 146.859-157.292 0-130.809-230.721-219.486-511.999-219.486s-511.598 88.677-511.598 219.486c0 94.295 119.975 166.52 292.515 199.824v568.176c0 20.062 16.451 36.514 36.514 36.514 7.624 0 14.846-2.408 20.465-6.42v0zM365.542 855.674v-302.144l226.709 152.878-226.709 149.267zM863.499 239.348c-34.507-73.028-121.981-103.924-194.608-69.417-50.157 23.673-82.659 74.232-83.461 130.006-23.673 1.604-48.15 2.408-73.028 2.408-48.952 0-97.906-3.21-146.057-9.23v-100.313c0-20.062-16.451-36.514-36.514-36.514s-36.514 16.451-36.514 36.514v88.276c-131.611-27.285-219.486-77.041-219.486-124.79 0-71.422 195.009-146.057 438.57-146.057s438.57 75.034 438.57 146.057c-0.401 28.489-32.903 57.781-87.474 83.060v0z" />
<glyph unicode="&#xe923;" glyph-name="more" d="M393.846 774.996l309.117-297.976c12.437-11.919 12.955-31.611 1.036-44.308-0.259-0.518-0.777-0.777-1.036-1.036l-309.117-298.235c-19.174-18.138-49.231-18.138-68.146 0-18.138 17.36-18.915 46.121-1.555 64.259 0.518 0.518 1.036 1.036 1.555 1.555l264.291 254.964-264.551 255.223c-18.138 17.36-18.915 46.121-1.555 64.259 0.518 0.518 1.036 1.036 1.555 1.555 19.174 18.138 48.972 18.138 68.405-0.259z" />
<glyph unicode="&#xe924;" glyph-name="searchno" d="M41.109 765.611c0 73.692 59.691 133.013 133.013 133.013v0h716.653c73.692 0 133.013-59.691 133.013-133.013v0-553.057c0-73.692-59.691-133.013-133.013-133.013v0h-338.983l-61.164 61.164h400.515c39.426 0 71.849 32.057 71.849 71.849v0 553.057c0 39.426-32.057 71.849-71.481 71.849 0 0 0 0 0 0h-717.39c-39.426 0-71.849-32.057-71.849-71.849v-224.392c-22.476-11.79-43.11-26.529-61.532-44.215l0.368 268.607zM434.992 468.634c-18.792 24.318-42.004 44.952-67.796 61.532h421.149c16.949 0 30.582-13.633 30.582-30.582s-13.633-30.582-30.582-30.582h-353.352zM491.366 304.669h215.18c16.949 0 30.582 13.633 30.582 30.582s-13.633 30.582-30.582 30.582h-222.181c4.789-19.897 7.001-40.53 7.001-61.164zM245.604 663.18c0 16.949 13.633 30.582 30.582 30.582 0 0 0 0 0 0h307.295c16.949 0 30.582-13.633 30.582-30.582s-13.633-30.582-30.582-30.582h-307.295c-16.581-0.368-30.582 13.633-30.582 30.582v0 0zM404.778 168.34c75.165 99.115 55.638 240.603-43.478 315.77s-240.603 55.638-315.77-43.478-55.638-240.603 43.478-315.77c80.324-61.164 191.599-61.164 272.292 0l118.644-118.644c12.16-12.16 31.319-12.16 43.478 0s12.16 31.319 0 43.478v0l-118.644 118.644zM389.304 304.669c0-90.641-73.324-163.965-163.965-163.965s-163.965 73.324-163.965 163.965 73.324 163.965 163.965 163.965c90.273-0.368 163.596-73.692 163.965-163.965v0z" />
<glyph unicode="&#xe925;" glyph-name="snooker" d="M102.265 100.567h819.104l-409.369 661.879-409.735-661.879zM543.151 851.138l475.337-767.795c10.628-17.225 5.498-39.581-11.727-50.209-5.864-3.665-12.461-5.498-19.424-5.498h-950.674c-20.157 0-36.649 16.492-36.649 36.649 0 6.963 1.833 13.56 5.498 19.424l475.337 767.429c10.628 17.225 33.351 22.356 50.209 11.727 5.132-2.932 9.163-6.963 12.095-11.727v0zM292.473 137.216c-40.314 0.366-72.565 32.984-72.932 72.932 0 40.314 32.618 73.298 73.298 73.298s73.298-32.618 73.298-73.298c-1.099-39.947-33.351-72.199-73.664-72.932v0zM511.634 137.216c-40.314 0.366-72.565 32.984-72.932 72.932 0 40.314 32.618 73.298 73.298 73.298s73.298-32.618 73.298-73.298c-0.733-39.947-33.351-72.199-73.664-72.932v0zM402.053 320.095c-40.314 0.366-72.565 32.984-73.298 72.932 0 40.314 32.618 72.932 73.298 72.932s73.298-32.618 73.298-72.932c-0.733-39.947-32.984-72.565-73.298-72.932v0zM621.581 320.095c-40.314 0.366-72.565 32.984-72.932 72.932 0 40.314 32.618 72.932 73.298 72.932s73.298-32.618 73.298-72.932c-1.099-39.947-33.351-72.565-73.664-72.932v0zM731.16 137.216c-40.314 0.366-72.565 32.984-72.932 72.932 0 40.314 32.618 73.298 73.298 73.298 40.314 0 73.298-32.618 73.298-73.298-1.099-39.947-33.351-72.199-73.664-72.932v0zM511.634 502.973c-40.314 0.366-72.565 32.984-72.932 72.932 0 40.314 32.618 73.298 73.298 73.298s73.298-32.618 73.298-73.298v0c-0.733-39.947-33.351-72.565-73.664-72.932v0z" />
<glyph unicode="&#xe926;" glyph-name="win" d="M225.202 923.78c0-1.7-1.474-3.174-3.4-3.174-1.7 0-6.121-2.947-9.71-6.347-5.29-5.478-6.121-7.632-5.063-13.337 1.474-7.632 8.047-14.169 14.169-14.169 3.59 0 4.005-1.7 4.005-16.926 0-9.294-0.642-16.926-1.247-16.926-0.642 0-4.231 2.342-7.821 5.063-14.169 10.579-39.557 20.931-69.555 28.148-11.637 2.947-24.104 3.816-51.383 3.816-63.434 0-77.187-8.69-90.297-57.087-6.121-22.82-6.537-76.546-0.831-107.828 14.169-78.472 50.098-147.801 102.538-198.352 53.083-50.74 109.944-74.43 185.885-76.961 30.641-1.059 34.267-1.474 33.21-4.647-3.59-9.294-7.406-30.451-6.121-34.873 1.7-6.763 6.763-10.994 14.395-12.468 13.526-2.342 19.873 5.478 21.763 26.41l1.285 12.279 11.825-10.579c6.537-5.932 23.689-20.288 38.273-32.152 25.389-20.516 26.447-21.763 28.979-32.152 1.247-5.932 2.531-13.753 2.531-17.341 0.226-6.347-0.226-6.763-9.106-7.821-11.222-1.7-20.288-5.478-20.288-8.879 0-3.174 8.463-6.99 19.042-8.69 7.821-1.247 8.237-1.89 7.178-6.99-2.342-10.353-13.337-32.152-21.347-41.635-11.41-14.169-30.867-27.051-60.034-40.161-59.43-26.636-84.593-43.789-87.766-59.618l-1.247-6.763h-33.398v-194.574h560.373v194.574h-33.323l-1.474 6.763c-3.174 15.869-28.336 32.983-87.766 59.618-42.504 19.042-61.319 35.099-74.014 62.793-10.579 23.463-10.579 23.689 4.647 27.279 20.516 4.875 17.341 12.884-6.347 16.284l-9.522 1.247 1.474 13.753c0.831 7.632 2.116 15.453 2.757 17.341 0.831 1.89 13.337 13.11 27.92 24.935s31.698 26.22 38.273 32.152l11.863 10.579 1.247-12.279c1.89-20.931 8.237-28.751 21.763-26.41 7.632 1.474 12.694 5.706 14.395 12.468 1.247 4.457-2.531 25.578-6.121 34.873-1.059 2.947 2.757 3.59 33.21 4.647 76.318 2.757 132.802 26.22 186.073 77.187 42.277 40.804 72.73 91.544 91.356 153.090 22.216 73.597 20.516 148.858-4.005 187.585-10.994 17.569-38.083 24.747-86.481 22.858-22.858-0.831-34.683-2.342-50.74-6.537-22.632-6.121-48.624-17.341-59.618-25.578-3.816-2.947-7.406-5.29-8.047-5.29s-1.247 7.632-1.247 16.926c0 15.226 0.416 16.926 4.005 16.926 6.121 0 12.694 6.537 14.169 14.169 1.059 5.706 0.226 7.821-5.063 13.337-3.59 3.4-8.047 6.347-9.71 6.347-1.89 0-3.4 1.474-3.4 3.174 0 2.757-33.21 3.174-286.535 3.174s-286.571-0.491-286.571-3.249zM125.383 853.168c24.747-4.875 57.087-15.226 69.555-22.632 8.69-5.063 20.704-18.173 25.994-28.11 4.005-7.632 2.947-24.104-2.116-34.041-2.531-4.875-8.69-14.81-13.753-22.404-14.169-20.516-15-33.626-3.174-45.451 6.763-6.99 10.994-7.632 19.873-2.947 3.174 1.7 6.121 3.174 6.537 3.174 0.226 0 1.059-9.71 1.89-21.573 4.647-65.55 28.751-125.811 73.371-182.9 5.706-7.406 10.353-13.526 10.353-13.979 0-1.7-34.683 3.4-57.087 8.463-30.451 6.537-48.436 13.11-74.846 26.636-89.882 45.867-143.57 139.149-143.796 249.962 0 34.873 2.757 53.499 10.353 70.424 4.231 9.106 6.763 11.825 14.169 15.226 12.165 5.44 35.212 5.44 62.679 0.152zM962.127 852.94c15.453-7.821 23.047-36.157 22.82-86.709 0-27.694-1.059-39.557-4.647-57.087-18.816-89.428-65.966-154.564-139.149-192.004-26.22-13.337-44.393-19.873-74.656-26.447-22.404-5.063-57.087-10.163-57.087-8.463 0 0.416 4.647 6.537 10.353 13.979 44.62 57.087 68.724 117.348 73.371 182.9 0.831 11.825 1.7 21.573 1.89 21.573 0.416 0 3.4-1.474 6.537-3.174 8.879-4.647 13.11-4.005 19.873 2.947 11.825 11.825 10.994 24.935-3.174 45.451-14.169 20.931-18.4 30.451-18.4 41.861 0 20.516 17.115 39.557 45.677 50.552 15.869 6.121 48.852 15.226 63.662 17.341 13.827 2.154 46.584 0.453 52.931-2.721zM426.086 829.894c0-1.059-2.531-5.063-5.706-8.879-6.347-7.406-17.757-13.11-22.632-11.222-4.457 1.7-4.231 7.821 0.416 12.053 8.047 7.216 27.92 12.922 27.92 8.047zM613.631 828.648c9.937-4.231 15.453-9.106 15.453-13.753 0-8.879-13.337-6.347-24.747 4.875-11.825 11.184-7.178 15.641 9.294 8.879zM388.039 816.557c-2.757-14.169-13.526-24.935-19.457-19.042-3.816 3.816 0.416 14.81 9.294 23.916 9.71 9.937 12.468 8.69 10.163-4.875zM650.016 816.784c2.757-3.59 5.063-9.522 5.29-13.337 0.226-5.478-0.416-6.537-4.875-6.537-6.121 0-12.468 8.047-15 18.816-2.531 11.41-1.059 14.584 5.063 10.768 2.531-1.662 6.763-6.121 9.522-9.71zM410.217 797.1c4.005-1.7 7.406-3.59 7.406-4.231 0-3.174-13.753-7.632-22.82-7.632-13.526 0-18.626 4.875-11.222 10.768 5.932 4.911 16.7 5.138 26.636 1.095zM639.891 796.041c7.406-5.932 2.342-10.768-11.184-10.768-9.106 0-22.82 4.457-22.82 7.632 0 0.642 3.174 2.342 6.99 4.005 9.634 4.231 21.082 3.816 27.013-0.869zM355.472 790.337c1.89-10.579-0.416-21.989-5.478-27.051-4.457-4.457-4.457-4.457-7.632-0.226-4.231 5.478-2.757 17.569 3.4 27.505 5.668 9.294 7.783 9.294 9.71-0.226zM677.52 790.979c5.932-9.71 7.594-22.632 3.59-27.92-3.174-4.231-3.174-4.231-7.594 0.226-5.063 5.063-7.406 16.472-5.478 27.051 1.852 9.522 3.968 9.522 9.484 0.642zM394.16 777.037c2.342-1.474 1.059-3.174-5.29-7.178-9.937-6.537-17.985-8.69-25.163-6.99-12.884 3.4 1.247 16.057 17.985 16.057 5.29 0 10.768-0.831 12.468-1.89zM658.251 774.696c8.047-5.063 8.69-9.937 1.474-11.825-7.178-1.7-15.226 0.416-25.163 6.99-6.347 4.005-7.594 5.706-5.29 7.178 5.327 3.362 21.8 2.116 28.979-2.342zM542.376 674.273v-102.576h-50.778v150.143h-33.852v10.579c0 9.106 0.642 10.579 4.231 10.579 10.994 0 28.336 9.294 39.973 21.347l11.825 12.279 14.395 0.226h14.169l0.038-102.576zM330.083 753.349c4.647-9.294 4.875-24.104 0.226-28.751-3.174-3.4-4.005-3.4-6.763-0.416-4.647 4.647-6.121 16.472-3.4 26.863 2.947 10.541 5.29 11.184 9.937 2.305zM703.325 751.007c2.757-10.353 1.247-22.216-3.4-26.863-2.757-2.947-3.59-2.947-6.763 0.416-4.647 4.647-4.457 19.457 0.226 28.751 4.647 8.916 6.952 8.273 9.937-2.305zM371.113 746.776c-0.226-3.4-5.478-9.71-13.526-16.057-10.768-8.237-21.763-4.647-16.284 5.478 4.421 8.273 30.036 17.379 29.81 10.579zM670.758 744.886c9.522-4.647 14.395-10.768 12.468-15.869-2.757-6.99-16.7-1.247-27.051 10.768-8.69 9.974-1.059 12.694 14.584 5.101zM323.736 697.508c0.831-4.457 0.416-9.937-1.059-12.884-6.537-14.584-19.685 14.169-13.526 30.036 1.059 3.174 2.116 2.757 7.178-2.947 3.174-3.626 6.575-9.974 7.406-14.207zM715.793 703.213c0-16.284-10.353-28.979-15.226-18.626-3.174 7.178-0.416 18.816 6.121 26.636 6.575 7.858 9.106 5.742 9.106-8.009zM360.534 714.434c0-0.831-1.474-4.005-3.174-7.178-4.231-8.463-15.226-17.115-21.347-17.115-11.222 0-2.342 17.341 11.825 23.047 5.932 2.305 12.694 2.947 12.694 1.247zM674.989 713.15c14.584-5.478 24.104-23.047 12.468-23.047-6.121 0-17.115 8.69-21.347 17.115-1.7 3.174-3.174 6.347-3.174 7.178-0.038 1.738 5.478 1.323 12.053-1.247zM352.071 675.973c0-12.468-18.816-33.21-23.463-25.578-2.531 3.816-2.342 5.29 1.247 12.279 3.4 6.537 15.226 16.926 19.685 16.926 1.285-0.038 2.531-1.738 2.531-3.626zM683.414 674.046c6.347-4.875 13.337-15 13.337-19.231-0.226-10.994-14.169-5.29-20.931 8.463-8.047 16.284-5.063 20.516 7.594 10.768zM314.857 664.752c5.706-6.347 7.632-10.353 7.632-15.641 0-4.005-0.831-8.047-2.116-8.69-3.59-2.342-10.768 3.4-13.979 10.579-3.4 8.047-4.005 22.216-1.059 22.216 1.059 0 5.29-3.816 9.522-8.463zM720.025 665.81c0-9.937-4.875-21.347-10.353-24.332-6.121-3.174-8.69-1.059-8.69 7.632 0 5.29 1.89 9.294 7.594 15.641 4.231 4.647 8.463 8.463 9.522 8.463s1.926-3.4 1.926-7.406zM354.187 635.773c0-20.704-15-35.742-16.472-16.472-0.416 6.763 0.642 10.353 5.932 17.569 3.4 4.875 7.406 8.879 8.463 8.879 1.247-0.038 2.078-4.457 2.078-9.974zM679.824 636.831c5.29-7.178 6.347-10.768 5.932-17.569-1.474-19.231-16.472-4.231-16.472 16.51 0 5.478 0.831 9.937 2.116 9.937 1.021 0 5.063-4.005 8.425-8.879zM317.842 623.721c8.69-4.457 15.453-12.694 15.869-19.457 0.831-12.468-13.753-5.932-21.763 9.937-6.839 12.922-5.327 15.226 5.894 9.522zM715.793 624.553c0-9.294-16.472-28.336-23.047-26.863-4.457 0.831-3.59 11.222 1.247 16.926 7.821 8.69 21.8 15.038 21.8 9.937zM365.824 594.97c0-10.353-0.831-13.337-4.875-17.341-4.875-4.875-4.875-4.875-8.047-0.642-4.231 5.478-2.757 17.569 3.4 27.505 6.347 10.125 9.294 6.952 9.522-9.522zM670.53 597.727c5.29-12.468 1.89-25.804-5.932-22.82-7.178 2.757-10.163 26.447-4.457 35.514 1.511 2.493 6.385-3.211 10.391-12.694zM338.318 580.386c9.522-4.457 15.226-9.937 16.284-16.057 1.059-6.763-8.879-6.763-17.115 0.226-5.706 4.875-12.884 15.226-12.884 18.816-0.038 2.078 5.252 1.021 13.715-2.985zM698.866 583.333c0-3.174-6.537-13.337-12.279-18.626-7.632-7.406-18.816-7.632-17.757-0.416 0.416 2.342 2.342 6.121 4.231 8.237 5.516 6.347 25.804 14.622 25.804 10.806zM386.113 568.749c4.875-10.579 5.063-20.931 0.831-24.52-7.821-6.347-15.869 12.053-11.637 27.051 2.795 10.579 5.101 9.937 10.806-2.531zM649.185 566.217c2.305-15.226-11.637-32.567-15-19.042-1.89 7.632 0.416 17.757 5.706 26.447 5.063 8.425 7.178 6.763 9.294-7.406zM412.974 544.229c5.932-8.879 7.632-15.226 5.932-22.216-1.7-6.347-5.706-6.763-10.994-0.831-4.875 5.478-7.406 32.567-2.757 31.095 1.7-0.642 5.063-4.269 7.821-8.047zM620.622 541.698c0-12.053-3.174-20.1-9.106-23.689-4.457-2.757-7.821 1.059-7.821 8.879 0 8.047 10.353 25.804 15.226 25.804 0.869-0.038 1.7-5.101 1.7-10.994zM374.287 541.244c8.463-3.59 13.526-11.41 9.294-14.395-6.99-4.457-30.036 5.706-33.21 14.81-1.059 3.626 14.81 3.174 23.916-0.416zM673.061 541.698c-3.174-9.106-26.22-19.231-33.21-14.81-4.231 2.947 0.642 10.579 8.879 14.169 8.69 3.778 25.389 4.231 24.332 0.642zM416.149 510.793c3.59-3.816 3.816-4.875 1.474-7.632-1.474-1.89-5.706-3.4-9.522-3.4-7.406 0-24.935 8.237-24.747 11.637 0.453 6.611 26.032 5.97 32.795-0.605zM640.079 512.908c2.947-2.947-12.279-11.41-22.404-12.468-10.768-1.247-16.51 3.174-11.637 9.106 1.474 1.89 4.647 4.231 7.178 5.29 4.875 2.116 24.104 0.831 26.863-1.926zM523.561 509.319c17.757-9.294 19.231-35.514 2.531-46.508-12.279-8.047-31.095-3.174-37.857 9.71-6.537 12.694-2.531 26.863 9.522 35.099 8.463 5.706 16.926 6.158 25.804 1.7zM466.057 499.609c2.757-5.063 2.757-6.121-0.416-11.222-4.647-7.178-14.584-7.632-19.231-0.831-4.457 6.347-4.231 9.294 1.059 14.584 5.668 5.706 14.584 4.647 18.588-2.531zM576.229 501.914c5.063-5.063 5.29-8.047 0.831-14.395-4.647-6.763-15.453-5.706-19.685 1.89-2.757 5.063-2.757 6.121 0.416 11.222 4.457 6.801 12.506 7.216 18.438 1.285zM722.141 56.811v-45.451h-420.809v90.902h420.809v-45.451z" />
<glyph unicode="&#xe927;" glyph-name="mny" d="M902.095 82.286h-780.19c-67.212 0-121.904 54.692-121.904 121.904v487.619c0 67.212 54.692 121.904 121.904 121.904h780.19c67.212 0 121.904-54.692 121.904-121.904v-487.619c0-67.212-54.692-121.904-121.904-121.904zM121.905 764.952c-40.195 0-73.142-32.947-73.142-73.142v-487.619c0-40.195 32.947-73.142 73.142-73.142h780.19c40.195 0 73.142 32.947 73.142 73.142v487.619c0 40.195-32.947 73.142-73.142 73.142h-780.19zM512 277.333c-94.229 0-170.667 76.437-170.667 170.667s76.437 170.667 170.667 170.667c94.229 0 170.667-76.437 170.667-170.667s-76.437-170.667-170.667-170.667zM512 569.904c-67.212 0-121.904-54.692-121.904-121.904s54.692-121.904 121.904-121.904 121.904 54.692 121.904 121.904-54.692 121.904-121.904 121.904zM804.571 82.286c-13.508 0-24.381 10.873-24.381 24.381 0 120.916 98.513 219.429 219.429 219.429 13.508 0 24.381-10.873 24.381-24.381s-10.873-24.381-24.381-24.381c-94.229 0-170.667-76.437-170.667-170.667 0-13.508-10.873-24.381-24.381-24.381zM24.381 569.904c-13.508 0-24.381 10.873-24.381 24.381s10.873 24.381 24.381 24.381c94.229 0 170.667 76.437 170.667 170.667 0 13.508 10.873 24.381 24.381 24.381s24.381-10.873 24.381-24.381c0-120.916-98.513-219.429-219.429-219.429z" />
<glyph unicode="&#xe928;" glyph-name="pay" d="M512 448c-66.682 0-120.429-53.746-120.429-120.429s53.746-120.429 120.429-120.429c66.682 0 120.429 53.746 120.429 120.429s-53.746 120.429-120.429 120.429v0zM512 287.262c-22.393 0-40.311 17.913-40.311 40.311s17.913 40.311 40.311 40.311 40.311-17.913 40.311-40.311c0-22.393-17.913-40.311-40.311-40.311v0zM483.637 540.062c3.983-3.487 8.464-6.467 13.437-8.464 9.954-4.48 20.903-4.48 30.36 0 4.977 1.987 9.457 4.977 13.437 8.464l92.062 90.572c15.924 16.423 15.427 42.797-0.993 58.722-15.924 15.427-41.803 15.427-57.729 0l-21.896-23.885v144.318c0 22.393-17.913 40.311-40.311 40.311s-40.311-17.913-40.311-40.311c0 0 0 0 0 0v-144.318l-21.896 23.885c-15.924 16.423-42.3 16.919-58.722 0.993s-16.919-42.3-0.993-58.722c0.497-0.497 0.497-0.497 0.993-0.993l92.559-90.572zM793.169 327.571c0 22.393-17.913 40.311-40.311 40.311s-40.311-17.913-40.311-40.311c0-22.393 17.913-40.311 40.311-40.311s40.311 17.913 40.311 40.311v0zM833.479 608.738h-120.429c-22.393 0-40.311-17.913-40.311-40.311s17.913-40.311 40.311-40.311c0 0 0 0 0 0h120.429c22.393 0 40.311-17.913 40.311-40.311v-321.479c0-22.393-17.913-40.311-40.311-40.311h-642.955c-22.393 0-40.311 17.913-40.311 40.311v0 321.479c0 22.393 17.913 40.311 40.311 40.311v0h120.429c22.393 0 40.311 17.913 40.311 40.311s-17.913 40.311-40.311 40.311c0 0 0 0 0 0h-120.429c-66.682 0-120.429-53.746-120.429-120.429 0 0 0 0 0 0v-321.479c0-66.682 53.746-120.429 120.429-120.429h642.458c66.682 0 120.429 53.746 120.429 120.429v321.479c0.497 66.185-53.746 120.429-119.928 120.429zM230.831 327.571c0-22.393 17.913-40.311 40.311-40.311s40.311 17.913 40.311 40.311c0 22.393-17.913 40.311-40.311 40.311s-40.311-18.41-40.311-40.311z" />
<glyph unicode="&#xe929;" glyph-name="user" d="M256 228.429h511.501v-73.357h-511.501v73.357zM329.357 484.429c-40.421 0-73.357-32.935-73.357-73.357s32.935-73.357 73.357-73.357c40.421 0 73.357 32.935 73.357 73.357v0c0.499 39.923-31.439 72.858-71.361 73.357-0.998 0-1.496 0-1.995 0zM694.643 484.429c-40.421 0-73.357-32.935-73.357-73.357s32.935-73.357 73.357-73.357c40.421 0 73.357 32.935 73.357 73.357v0c0.499 39.923-31.439 72.858-71.361 73.357-0.998 0-1.496 0-1.995 0v0zM950.643 704h-350.316l75.853 75.853c5.988-1.496 12.476-2.496 18.963-2.496 40.421 0 73.357 32.935 73.357 73.357s-32.935 73.357-73.357 73.357-73.357-32.935-73.357-73.357c0 0 0 0 0 0 0-6.487 0.998-12.476 2.496-18.963l-127.252-127.252h-423.673c-40.421 0-72.858-32.935-73.357-73.357v-584.858c0-40.421 32.935-72.858 73.357-72.858h877.287c40.421 0 72.858 32.935 73.357 73.357v583.86c-0.499 40.421-32.935 72.858-73.357 73.357zM73.357 45.786v584.858h877.287v-584.858h-877.287z" />
<glyph unicode="&#xe92a;" glyph-name="userinfo" d="M512 959.8c141.366 0 255.9-114.534 255.9-255.9s-114.534-255.9-255.9-255.9-255.9 114.534-255.9 255.9 114.534 255.9 255.9 255.9zM512 319.85c282.731 0 511.8-114.534 511.8-255.9v-128.15h-1023.598v128.15c0 141.366 229.069 255.9 511.8 255.9z" />
<glyph unicode="&#xe92b;" glyph-name="setting" d="M605.207-63.789h-186.413c-23.725 0-44.484 16.946-49.569 40.248l-21.183 96.596c-27.962 12.286-54.229 27.538-78.378 45.333l-94.054-30.081c-22.878-7.203-47.874 2.543-59.736 23.302l-93.63 160.994c-11.863 20.759-7.626 47.027 9.745 63.549l72.871 66.515c-3.39 30.081-3.39 60.585 0 90.664l-72.871 66.515c-17.795 16.099-21.608 42.79-9.745 63.549l93.207 161.418c11.863 20.759 36.86 30.504 59.736 23.302l94.054-30.081c12.286 9.32 25.421 17.795 38.977 25.844 13.133 7.203 26.268 13.982 39.824 19.912l20.759 96.173c5.083 23.725 25.844 40.248 49.993 40.248h186.413c24.149 0 44.484-16.946 49.569-40.248l21.183-96.596c27.538-12.286 54.229-27.538 78.378-45.333l94.054 30.081c22.878 7.203 47.874-2.543 59.736-23.302l93.207-161.418c11.863-20.759 7.626-47.027-9.745-63.549l-72.871-66.515c3.39-30.081 3.39-60.585 0-90.664l72.871-66.515c17.795-16.099 21.608-42.367 9.745-63.549l-93.207-161.418c-11.863-20.759-36.86-30.504-59.736-23.302l-94.054 30.081c-24.572-17.795-50.84-33.047-78.378-45.333l-21.183-96.173c-5.083-23.302-25.421-40.248-49.569-40.248zM512 652.631c-113.119 0-204.631-91.513-204.631-204.631s91.513-204.631 204.631-204.631 204.631 91.513 204.631 204.631v0c0 113.119-91.513 204.631-204.631 204.631z" />
<glyph unicode="&#xe92c;" glyph-name="psw" d="M704.365-63.565h-384.346c-105.31 0-191.404 86.092-191.404 191.404v320.545c0 70.336 57.267 127.218 127.218 127.603h512.335c70.336 0 127.218-57.267 127.603-127.218v-320.16c-0.385-106.464-86.092-192.173-191.404-192.173zM255.834 512.953c-35.743 0-64.571-29.21-64.571-64.571v-320.16c0-71.103 58.037-128.756 128.756-128.756h384.346c71.103 0 128.756 58.037 128.756 128.756v320.16c0 35.743-29.21 64.571-64.953 64.571h-512.335zM320.018 672.459c1.536 106.079 89.168 190.635 195.249 189.099 103.774-1.536 187.561-85.325 189.099-189.099v-64.186h64.186v64.186c0 141.44-114.919 255.974-256.359 255.974s-255.974-114.537-255.974-255.974v-64.186h64.186v64.186z" />
<glyph unicode="&#xe92d;" glyph-name="searchpic" d="M41.183 765.376c0 73.463 59.712 133.175 133.175 133.175v0h716.538c73.463 0 133.175-59.712 133.175-133.175v0-552.965c0-73.463-59.712-133.175-133.175-133.175v0h-339.089l-61.522 61.522h400.249c39.446 0 71.654 32.208 71.654 71.654v0 552.965c0 39.446-32.208 71.654-71.654 71.654 0 0 0 0 0 0h-716.538c-39.446 0-71.654-32.208-71.654-71.654v-224.371c-22.437-11.58-43.065-26.418-61.522-44.15l0.362 268.521zM435.28 468.627c-18.819 24.246-41.98 44.875-68.036 61.522h421.238c17.009 0 30.76-13.752 30.76-30.76s-13.752-30.76-30.76-30.76h-353.204zM491.373 304.693h214.962c17.009 0 30.76 13.752 30.76 30.76s-13.752 30.76-30.76 30.76h-221.838c4.704-20.266 6.876-40.893 6.876-61.522zM245.651 662.962c0 17.009 13.752 30.76 30.76 30.76 0 0 0 0 0 0h307.244c17.009 0 30.76-13.752 30.76-30.76s-13.752-30.76-30.76-30.76h-307.244c-17.009 0-30.76 13.752-30.76 30.76v0 0zM404.882 168.623c75.273 99.157 55.731 240.294-43.426 315.566s-240.294 55.731-315.566-43.426-55.731-240.294 43.426-315.566c80.339-61.158 191.801-61.158 272.14 0l118.7-118.7c11.943-11.943 31.485-11.943 43.426 0s11.943 31.485 0 43.426v0l-118.7 118.7zM389.32 304.693c0-90.472-73.463-163.936-163.936-163.936s-163.936 73.463-163.936 163.936c0 90.472 73.463 163.936 163.936 163.936 90.472-0.362 163.573-73.463 163.936-163.936v0z" />
</font>
</defs>
</svg>
