<?xml version="1.0" encoding="utf-8"?>
<!-- Generator: Adobe Illustrator 24.3.0, SVG Export Plug-In . SVG Version: 6.00 Build 0)  -->
<svg version="1.1" id="圖層_1" xmlns="http://www.w3.org/2000/svg" xmlns:xlink="http://www.w3.org/1999/xlink" x="0px" y="0px"
	 viewBox="0 0 372 196" style="enable-background:new 0 0 372 196;" xml:space="preserve">
<style type="text/css">
	.st0{fill:url(#SVGID_1_);}
	.st1{fill:none;}
	.st2{fill:url(#SVGID_2_);}
	.st3{fill:url(#SVGID_3_);fill-opacity:0.3;}
	.st4{opacity:0.2;fill:url(#SVGID_4_);enable-background:new    ;}
	.st5{fill:url(#SVGID_5_);}
	.st6{fill:#408CFF;}
	.st7{fill:#0066FF;}
	.st8{fill:url(#SVGID_6_);}
	.st9{fill:url(#SVGID_7_);}
	.st10{fill:#FFFFFF;}
	.st11{fill:none;stroke:#3E74FF;stroke-width:0.2;}
	.st12{fill:url(#SVGID_8_);}
	.st13{fill:url(#SVGID_9_);}
	.st14{fill:url(#SVGID_10_);}
	.st15{fill:url(#SVGID_11_);}
	.st16{fill:url(#SVGID_12_);stroke:url(#SVGID_13_);}
	.st17{fill:url(#SVGID_14_);}
	.st18{fill:url(#SVGID_15_);}
	.st19{fill:url(#SVGID_16_);}
	.st20{fill:url(#SVGID_17_);}
	.st21{fill:url(#SVGID_18_);}
	.st22{fill:url(#SVGID_19_);filter:url(#Adobe_OpacityMaskFilter);}
	.st23{mask:url(#mask0_584_1490_1_);}
	.st24{fill:#7BB0FF;}
	.st25{fill:url(#SVGID_20_);}
	.st26{fill:url(#SVGID_21_);}
	.st27{fill:url(#SVGID_22_);}
	.st28{fill:url(#SVGID_23_);}
	.st29{fill:url(#SVGID_24_);}
	.st30{fill:url(#SVGID_25_);}
</style>
<linearGradient id="SVGID_1_" gradientUnits="userSpaceOnUse" x1="5.2189" y1="11.2728" x2="367.8389" y2="184.0577" gradientTransform="matrix(1 0 0 -1 0 195.8898)">
	<stop  offset="0" style="stop-color:#6B8FC7"/>
	<stop  offset="0.1215" style="stop-color:#3B5481"/>
	<stop  offset="0.1216" style="stop-color:#354965"/>
	<stop  offset="0.8948" style="stop-color:#2A5087"/>
	<stop  offset="0.8972" style="stop-color:#486798"/>
	<stop  offset="1" style="stop-color:#5E81B7"/>
</linearGradient>
<path class="st0" d="M17,0h340c8.3,0,15,6.7,15,15v166c0,8.3-6.7,15-15,15H17c-8.3,0-15-6.7-15-15V15C2,6.7,8.7,0,17,0z"/>
<path class="st1" d="M226,42h146v139c0,8.3-6.7,15-15,15H226V42z"/>
<linearGradient id="SVGID_2_" gradientUnits="userSpaceOnUse" x1="299" y1="80.9198" x2="299" y2="12.6548" gradientTransform="matrix(1 0 0 -1 0 195.8898)">
	<stop  offset="0" style="stop-color:#756A56;stop-opacity:0"/>
	<stop  offset="1" style="stop-color:#A8652E;stop-opacity:0.18"/>
</linearGradient>
<path class="st2" d="M226,42h146v139c0,8.3-6.7,15-15,15H226V42z"/>
<linearGradient id="SVGID_3_" gradientUnits="userSpaceOnUse" x1="70.7467" y1="195.8898" x2="70.7467" y2="102.2505" gradientTransform="matrix(1 0 0 -1 0 195.8898)">
	<stop  offset="0" style="stop-color:#DFE6F3"/>
	<stop  offset="1" style="stop-color:#DFE6F3;stop-opacity:0"/>
</linearGradient>
<path class="st3" d="M77.5,0h27.3L64,93.6H36.7L77.5,0z"/>
<radialGradient id="SVGID_4_" cx="-107.9728" cy="522.3729" r="1" gradientTransform="matrix(-32.2477 78.3242 59.895 24.66 -34660.957 -4359.9639)" gradientUnits="userSpaceOnUse">
	<stop  offset="0" style="stop-color:#FFFFFF"/>
	<stop  offset="1" style="stop-color:#F4F8FE;stop-opacity:0"/>
</radialGradient>
<path class="st4" d="M84.7,49.6H112l-44.3,93.6H40.4L84.7,49.6z"/>
<linearGradient id="SVGID_5_" gradientUnits="userSpaceOnUse" x1="33.0492" y1="168.2905" x2="33.0492" y2="74.6508" gradientTransform="matrix(1 0 0 -1 0 195.8898)">
	<stop  offset="0" style="stop-color:#0352D5"/>
	<stop  offset="1" style="stop-color:#0352D5;stop-opacity:0"/>
</linearGradient>
<path class="st5" d="M40.9,27.6h25.2l-40.9,93.6H0L40.9,27.6z"/>
<g>
	<path class="st6" d="M269.5,74.4c0.6-1.8,4.5-4,6.7-4.8l3.4,6l9.1,2c-1.1,0-10.8,4.5-15,6.7v-6.8C271.6,76.1,269.5,74.4,269.5,74.4
		z"/>
	<path class="st6" d="M322.1,74.4c-0.6-1.8-4.5-4-6.7-4.8l-3.4,6l-9.8,2c1.1,0,11.5,4.5,15.6,6.7v-6.8
		C319.9,76.1,322.1,74.4,322.1,74.4z"/>
	<path class="st7" d="M284.6,72.9l4,4.7l-9.1-2L284.6,72.9z"/>
	<path class="st7" d="M306.6,72.9l-4.4,4.7l9.8-2L306.6,72.9z"/>
	
		<linearGradient id="SVGID_6_" gradientUnits="userSpaceOnUse" x1="291.006" y1="175.6119" x2="299.993" y2="175.6119" gradientTransform="matrix(1 0 0 -1 0 195.8898)">
		<stop  offset="0.4888" style="stop-color:#E3EBFF"/>
		<stop  offset="0.4889" style="stop-color:#D1E5EE"/>
		<stop  offset="0.489" style="stop-color:#B3C2D9"/>
	</linearGradient>
	<path class="st8" d="M295.5,14l10.8,12.6h-21.6L295.5,14z"/>
	
		<linearGradient id="SVGID_7_" gradientUnits="userSpaceOnUse" x1="299.994" y1="116.5159" x2="291.007" y2="116.5159" gradientTransform="matrix(1 0 0 -1 0 195.8898)">
		<stop  offset="0.4888" style="stop-color:#E3EBFF"/>
		<stop  offset="0.4889" style="stop-color:#D1E5EE"/>
		<stop  offset="0.489" style="stop-color:#B3C2D9"/>
	</linearGradient>
	<path class="st9" d="M295.5,85.7l-10.8-12.6h21.6L295.5,85.7z"/>
	<g>
		<path class="st10" d="M295.2,17.2l1.3,3.8l3.8,1.2l-3.8,1.2l-1.3,3.8l-1.3-3.8l-3.8-1.2L294,21L295.2,17.2z"/>
		<path class="st11" d="M295.2,17.5l1.2,3.5l0,0l0,0l3.5,1.1l-3.5,1.1l0,0l0,0l-1.2,3.5l-1.2-3.5l0,0l0,0l-3.5-1.1l3.5-1.1l0,0l0,0
			L295.2,17.5z"/>
	</g>
	
		<linearGradient id="SVGID_8_" gradientUnits="userSpaceOnUse" x1="323.4727" y1="135.1842" x2="319.0297" y2="127.4308" gradientTransform="matrix(1 0 0 -1 0 195.8898)">
		<stop  offset="0.4888" style="stop-color:#E3EBFF"/>
		<stop  offset="0.4889" style="stop-color:#D1E5EE"/>
		<stop  offset="0.489" style="stop-color:#B3C2D9"/>
	</linearGradient>
	<path class="st12" d="M326.8,67.7l-16.4,3l10.8-18.6L326.8,67.7z"/>
	
		<linearGradient id="SVGID_9_" gradientUnits="userSpaceOnUse" x1="267.5273" y1="156.9436" x2="271.9703" y2="164.6971" gradientTransform="matrix(1 0 0 -1 0 195.8898)">
		<stop  offset="0.4888" style="stop-color:#E3EBFF"/>
		<stop  offset="0.4889" style="stop-color:#D1E5EE"/>
		<stop  offset="0.489" style="stop-color:#B3C2D9"/>
	</linearGradient>
	<path class="st13" d="M264.2,31.9l16.4-3l-10.8,18.6L264.2,31.9z"/>
	
		<linearGradient id="SVGID_10_" gradientUnits="userSpaceOnUse" x1="319.0295" y1="164.6973" x2="323.4725" y2="156.944" gradientTransform="matrix(1 0 0 -1 0 195.8898)">
		<stop  offset="0.4888" style="stop-color:#E3EBFF"/>
		<stop  offset="0.4889" style="stop-color:#D1E5EE"/>
		<stop  offset="0.489" style="stop-color:#B3C2D9"/>
	</linearGradient>
	<path class="st14" d="M326.8,31.9l-5.6,15.6l-10.8-18.6L326.8,31.9z"/>
	
		<linearGradient id="SVGID_11_" gradientUnits="userSpaceOnUse" x1="271.9705" y1="127.4301" x2="267.5275" y2="135.1836" gradientTransform="matrix(1 0 0 -1 0 195.8898)">
		<stop  offset="0.4888" style="stop-color:#E3EBFF"/>
		<stop  offset="0.4889" style="stop-color:#D1E5EE"/>
		<stop  offset="0.489" style="stop-color:#B3C2D9"/>
	</linearGradient>
	<path class="st15" d="M264.2,67.7l5.6-15.6l10.8,18.6L264.2,67.7z"/>
	
		<linearGradient id="SVGID_12_" gradientUnits="userSpaceOnUse" x1="277.8575" y1="166.604" x2="314.4335" y2="125.5009" gradientTransform="matrix(1 0 0 -1 0 195.8898)">
		<stop  offset="0" style="stop-color:#D5E3FF"/>
		<stop  offset="0.5208" style="stop-color:#F0F5FF"/>
		<stop  offset="1" style="stop-color:#D0DFFE"/>
	</linearGradient>
	
		<linearGradient id="SVGID_13_" gradientUnits="userSpaceOnUse" x1="295.8375" y1="173.854" x2="295.8375" y2="118.9433" gradientTransform="matrix(1 0 0 -1 0 195.8898)">
		<stop  offset="0" style="stop-color:#FFFFFF;stop-opacity:0.5"/>
		<stop  offset="1" style="stop-color:#FFFFFF;stop-opacity:0"/>
	</linearGradient>
	<path class="st16" d="M323,49.5c0,14.9-12.2,27-27.2,27c-15,0-27.2-12.1-27.2-27s12.2-27,27.2-27C310.8,22.5,323,34.6,323,49.5z"/>
	<g>
		
			<linearGradient id="SVGID_14_" gradientUnits="userSpaceOnUse" x1="280.5393" y1="164.9944" x2="311.2993" y2="127.603" gradientTransform="matrix(1 0 0 -1 0 195.8898)">
			<stop  offset="0" style="stop-color:#B1CCFF"/>
			<stop  offset="1" style="stop-color:#D5E3FF"/>
		</linearGradient>
		<ellipse class="st17" cx="295.8" cy="49.5" rx="24.3" ry="24.1"/>
	</g>
	<g>
		
			<linearGradient id="SVGID_15_" gradientUnits="userSpaceOnUse" x1="287.4211" y1="165.174" x2="303.8801" y2="128.455" gradientTransform="matrix(1 0 0 -1 0 195.8898)">
			<stop  offset="0" style="stop-color:#78A6FF"/>
			<stop  offset="0.4844" style="stop-color:#376EC1"/>
			<stop  offset="1" style="stop-color:#1352B0"/>
		</linearGradient>
		<ellipse class="st18" cx="295.8" cy="49.5" rx="20.2" ry="20.1"/>
	</g>
	<g>
		
			<linearGradient id="SVGID_16_" gradientUnits="userSpaceOnUse" x1="283.5453" y1="148.0784" x2="291.7173" y2="142.0903" gradientTransform="matrix(1 0 0 -1 0 195.8898)">
			<stop  offset="0" style="stop-color:#90BDFF"/>
			<stop  offset="1" style="stop-color:#408CFF"/>
		</linearGradient>
		<path class="st19" d="M285.9,51.5c-1-2.7,2-5.1,4.4-3.6l5.8,3.8c2.5,1.6,1.4,5.5-1.6,5.5h-4.4c-1.3,0-2.4-0.8-2.8-2L285.9,51.5z"
			/>
		
			<linearGradient id="SVGID_17_" gradientUnits="userSpaceOnUse" x1="304.7314" y1="151.6529" x2="299.8093" y2="142.7268" gradientTransform="matrix(1 0 0 -1 0 195.8898)">
			<stop  offset="0" style="stop-color:#90BDFF"/>
			<stop  offset="1" style="stop-color:#408CFF"/>
		</linearGradient>
		<path class="st20" d="M305.7,51.5c1-2.7-2-5.1-4.4-3.6l-6,3.8c-2.5,1.6-1.4,5.5,1.6,5.5h4.5c1.2,0,2.4-0.8,2.8-1.9L305.7,51.5z"/>
		
			<linearGradient id="SVGID_18_" gradientUnits="userSpaceOnUse" x1="291.539" y1="145.1588" x2="300.264" y2="145.1588" gradientTransform="matrix(1 0 0 -1 0 195.8898)">
			<stop  offset="0.4973" style="stop-color:#90BDFF"/>
			<stop  offset="0.4974" style="stop-color:#408CFF"/>
		</linearGradient>
		<path class="st21" d="M293.1,45.7c1.1-2.2,4.3-2.2,5.4,0l3.6,7.4c1,2-0.5,4.3-2.7,4.3h-7.2c-2.2,0-3.7-2.3-2.7-4.3L293.1,45.7z"/>
		<defs>
			<filter id="Adobe_OpacityMaskFilter" filterUnits="userSpaceOnUse" x="297.8" y="42.9" width="5.9" height="17.3">
				<feColorMatrix  type="matrix" values="1 0 0 0 0  0 1 0 0 0  0 0 1 0 0  0 0 0 1 0"/>
			</filter>
		</defs>
		<mask maskUnits="userSpaceOnUse" x="297.8" y="42.9" width="5.9" height="17.3" id="mask0_584_1490_1_">
			
				<linearGradient id="SVGID_19_" gradientUnits="userSpaceOnUse" x1="291.539" y1="145.1588" x2="300.264" y2="145.1588" gradientTransform="matrix(1 0 0 -1 0 195.8898)">
				<stop  offset="0.4167" style="stop-color:#B1B0D8"/>
				<stop  offset="0.4974" style="stop-color:#FFCC1D"/>
			</linearGradient>
			<path class="st22" d="M293.1,45.7c1.1-2.2,4.3-2.2,5.4,0l3.6,7.4c1,2-0.5,4.3-2.7,4.3h-7.2c-2.2,0-3.7-2.3-2.7-4.3L293.1,45.7z"
				/>
		</mask>
		<g class="st23">
			<g>
				
					<ellipse transform="matrix(0.9789 -0.2044 0.2044 0.9789 -4.1742 62.5663)" class="st24" cx="300.8" cy="51.5" rx="2.4" ry="8.8"/>
			</g>
		</g>
		
			<linearGradient id="SVGID_20_" gradientUnits="userSpaceOnUse" x1="295.84" y1="158.4522" x2="295.84" y2="155.3799" gradientTransform="matrix(1 0 0 -1 0 195.8898)">
			<stop  offset="0" style="stop-color:#B0C6FF"/>
			<stop  offset="1" style="stop-color:#408CFF"/>
		</linearGradient>
		<ellipse class="st25" cx="295.8" cy="39" rx="1.5" ry="1.5"/>
		
			<linearGradient id="SVGID_21_" gradientUnits="userSpaceOnUse" x1="283.61" y1="153.7042" x2="283.61" y2="151.1905" gradientTransform="matrix(1 0 0 -1 0 195.8898)">
			<stop  offset="0" style="stop-color:#B0C6FF"/>
			<stop  offset="1" style="stop-color:#408CFF"/>
		</linearGradient>
		<ellipse class="st26" cx="283.6" cy="43.4" rx="1.3" ry="1.3"/>
		
			<linearGradient id="SVGID_22_" gradientUnits="userSpaceOnUse" x1="308.006" y1="153.7042" x2="308.006" y2="151.1905" gradientTransform="matrix(1 0 0 -1 0 195.8898)">
			<stop  offset="0" style="stop-color:#B0C6FF"/>
			<stop  offset="1" style="stop-color:#408CFF"/>
		</linearGradient>
		<ellipse class="st27" cx="308" cy="43.4" rx="1.3" ry="1.3"/>
		
			<linearGradient id="SVGID_23_" gradientUnits="userSpaceOnUse" x1="288.17" y1="136.2287" x2="303.5636" y2="136.2287" gradientTransform="matrix(1 0 0 -1 0 195.8898)">
			<stop  offset="0" style="stop-color:#90BDFF"/>
			<stop  offset="1" style="stop-color:#458FFF"/>
		</linearGradient>
		<path class="st28" d="M289,58.6h13.3c0.6,0,1,0.5,1,1v0c0,0.6-0.5,1-1,1H289c-0.6,0-1-0.5-1-1v0C288,59.1,288.5,58.6,289,58.6z"/>
	</g>
	<path class="st10" d="M285,32.1l0.5,1.5l1.5,0.5l-1.5,0.5l-0.5,1.5l-0.5-1.5l-1.5-0.5l1.5-0.5L285,32.1z"/>
	<path class="st10" d="M279,25.4l1.2,3.5l3.6,1.2l-3.6,1.2l-1.2,3.5l-1.2-3.5l-3.6-1.2l3.6-1.2L279,25.4z"/>
	<g>
		
			<linearGradient id="SVGID_24_" gradientUnits="userSpaceOnUse" x1="276.4931" y1="127.015" x2="315.3691" y2="127.4483" gradientTransform="matrix(1 0 0 -1 0 195.8898)">
			<stop  offset="0" style="stop-color:#8FBCFF"/>
			<stop  offset="1" style="stop-color:#408CFF"/>
		</linearGradient>
		<path class="st29" d="M274.2,67.1l5.4,8.6c14.5-7.7,28.3-2,32.4,0l5.4-8.6c-1.5-1.8-8-5.3-21.5-5.5
			C282.3,61.4,275.8,65.2,274.2,67.1z"/>
	</g>
</g>
<linearGradient id="SVGID_25_" gradientUnits="userSpaceOnUse" x1="111.516" y1="180.8898" x2="111.516" y2="129.8898" gradientTransform="matrix(1 0 0 -1 0 195.8898)">
	<stop  offset="0.6719" style="stop-color:#FFFFFF"/>
	<stop  offset="1" style="stop-color:#7679A9;stop-opacity:0"/>
</linearGradient>
<path class="st30" d="M92.2,27.5L80.4,65.5H67.2L56,27.5h10.7c0.6,2,1.3,4.3,2,6.8c0.7,2.6,1.4,5.2,2.1,7.9c0.7,2.6,1.3,5.1,1.9,7.4
	c0.6,2.3,1,4.2,1.3,5.7h0.2c0.3-1.5,0.7-3.4,1.2-5.7c0.6-2.3,1.2-4.8,1.9-7.4c0.7-2.6,1.4-5.2,2.2-7.8s1.4-4.9,2-6.9H92.2z
	 M107.3,65.5h-9.6v-38h9.6V65.5z M124.2,65.5h-9.6v-38h16.9c3.8,0,6.8,0.5,9.1,1.4s3.9,2.4,4.9,4.5s1.5,4.9,1.5,8.5
	c0,3.4-0.5,6.1-1.5,8.2c-1,2.1-2.6,3.6-4.9,4.6s-5.3,1.5-9.1,1.5h-7.3V65.5z M129.9,35.3h-5.8v13h5.8c2.8,0,4.7-0.5,5.7-1.4
	c1-1,1.4-2.6,1.4-5c0-2.3-0.5-3.9-1.4-4.9C134.7,35.9,132.8,35.3,129.9,35.3z M150.9,43.3V33.1l7-4.4h9l0.1,36.8h-9.1V39h-0.3
	l-6.4,4.3H150.9z"/>
</svg>
